<mxfile host="Electron" modified="2024-02-15T07:02:18.279Z" agent="Mozilla/5.0 (Windows NT 10.0; Win64; x64) AppleWebKit/537.36 (KHTML, like Gecko) draw.io/21.2.8 Chrome/112.0.5615.165 Electron/24.2.0 Safari/537.36" etag="pUmofy64QLbGbPAcTPJp" version="21.2.8" type="device">
  <diagram name="Page-1" id="2XWkQP5S-hDbL94sL5Vg">
    <mxGraphModel dx="2058" dy="1180" grid="1" gridSize="10" guides="1" tooltips="1" connect="1" arrows="1" fold="1" page="1" pageScale="1" pageWidth="3300" pageHeight="4681" background="#999999" math="0" shadow="0">
      <root>
        <mxCell id="0" />
        <mxCell id="1" parent="0" />
        <mxCell id="APLwThIm-aDqV8bCMrbt-1" value="Anchors: Margins and Offsets" style="rounded=0;whiteSpace=wrap;html=1;fontSize=25;fillColor=#dae8fc;strokeColor=#6c8ebf;" parent="1" vertex="1">
          <mxGeometry x="991" y="160" width="1440" height="60" as="geometry" />
        </mxCell>
        <mxCell id="jpe5JgAUQ5WCP0j2fJ5D-1" value="" style="shape=image;verticalLabelPosition=bottom;labelBackgroundColor=default;verticalAlign=top;aspect=fixed;imageAspect=0;image=data:image/png,iVBORw0KGgoAAAANSUhEUgAABaQAAAP4CAYAAAAiRvsSAAAAAXNSR0IArs4c6QAAAARnQU1BAACxjwv8YQUAAAAJcEhZcwAADsMAAA7DAcdvqGQAAP+lSURBVHhe7P17sC/bdtD3nXvRAwmcALYRVwLrPs495x6udCWBkAp0JUC6a2UbJCNLVIDtxU5BKoTEVbv2H7sCThk77NS2F+IhDCy8IVsY2cY+cIAcsBMZC8TLuAiYxFDYjk2BwKlKiPVCgHkqdHr2nLN7dvfo7jnH7Hd/Z9Wnztn9+/Wvez579Fi9fuuNn/P1nymMT33ZlwMAAAAAAAAAsBgS0gAAAAAAAACAVZCQBgAAAAAAAACsgoQ0AAAAAAAAAGAVJKQBAAAAAAAAAKsgIQ0AAAAAAAAAWAUJaQAAAAAAAADAKkhIAwAAAAAAAABWQUIaAAAAAAAAALAKEtIAAAAAAAAAgFWQkAYAAAAAAAAArIKENAAAAAAAAABgFSSkAQAAAAAAAACrICENAAAAAAAAAFgFCWkAAAAAAAAAwCpmSkg/KV68937x7qvnxY34OgAAAAAAAADg6mZJSN88e128+97r4umt/DoAAAAAAAAAAPkJ6dvnxYN5OvrlE/l1AAAAAAAAAABK2Qnpxy/fL9597754LLzWc3dfPLzkaz0AAAAAAAAA4IryEtJ398W7771fPDx7JL/eUSWveZIaAAAAAAAAAC4pIyH9qHj6KuUPGdr3xyavAQAAAAAAAADnok9Iu6ejX9wJrxm3z4sXL58Xj/0fOnTfNd28/1Hx+Nl98fSOBDUAAAAAAAAAXIEyIf2keGH+kOHY09EmIW2eoDbve+91+f+v7dd7vLwvHvz2V/fFU5+wBgAAAAAAAACcmiohffPMJJdfRySTHxWPX9pEdNvr4sWzJ/xxQwAAAAAAAAC4kPSEtPvqjZQ/Tnjjvt6j8vJ5ccNT0QAAAAAAAABwOckJ6ccvTWL5vngsvCbzX+/x2n5VR/QfQQQAAAAAAAAAnElaQto96fzwLPYPET4qnlZJaJfAnvpDiAAAAAAAAACA00pISPvkcvwTztXT1D4Z3drGU9IAAAAAAAAAcDXRCWn7hwwTnm423zXdSUZb5is8Yv4gIgAAAAAAAADgTCIT0u57oBP+kCEAAAAAAAAAAKGohLR9OpqnmgEAAAAAAAAAetMJafPVGzwdDQAAAAAAAADINJmQrv4I4XvSd0EDAAAAAAAAABBvPCF9d1/9IcOHZ4/k1wEAAAAAAAAAiDSSkH5UPH31fvHuq+fFTe81AAAAAAAAAADSDCak7R8yfL94cdfeDgAAAAAAAACAxvQfNQQAAAAAAAAAYAYkpAEAAAAAAAAAqyAhDQAAAAAAAABYxWhC+hu/6ZvF7Wdx9voBAAAAAAAAwJ6QkBa2AwAAAAAAAADmR0Ja2A4AAAAAAAAAmB8JaWE7AAAAAAAAAGB+JKSF7QAAAAAAAACA+ZGQFrYDAAAAAAAAAOZHQlrYDgAAAAAAAACYHwlpYTsu4u6+ePe993te3Anv3ZHHL19X5/nw8on4OpbyqHj6yoyR++Kx+DqugPm3vJtnto13txbfPimelv3/4K4Vdhw8L26k94a0+wEAAADASZGQFrYjn08ojHtdPL2V91+DfI47TzbePm+SGq9IaKzrSfGCdr825t8K/A9+tr0+9IR93/Vq5Lqh3W9F9lrID9oAAAAArIeEtLAd+R6/FG6+e/Z0A+ySILtPMjXJmhfPHgmvYzE+scSTsRfG/FveHn/w4/vdPhkfntfN3f3IWNDut6ajXPsAAAAAnAkJaWE7cvmb8CM9ceWSICQbMWC3XyMAnMkef/CjPadD/BCLax8AAACA9ZGQFrYj0xGfJHXfJ02yEUPsU/87+xoB4GzcWvywoyfQtT+MOsQPsbj2AQAAANgACWlhOzKpEgoTT1W7z+z/WrHbzyW/b+6eFy/cr0hX52C+ozMigWgTBwnJxttH1R83qxLvXnmsp3fjde4d5/ZJeb42aeE/o3W+vt5dk79e3W4X8+/Hz+5b59v9FfK2fv3MH+Gqzq06p7kTs6nHy61f2RdJf2isOz4Tj7fWePH7VfMgeF/5GXV7dt6rF/SBa8u6XuY40jbhMzTjTNsuycfbaP6t03+h1H5Ybn1ZJImbPP8642mQXw9y97Ny+t18BchDtUY1+754JvVB7Dka858nAAAAABgkpIXtyJOc3PVc8qeXyPZPXJskU7g9eM3cDNfJr57pc7FPv8o3313Vjb94HGssER8exyde2trnIL9n/BgV3y7mfb79BOLnjLzfnN+LhLaKMnq81/LxcurnkmHS+y1pvDxpvtc28XhrjpeKm0eysj0nkuDxXJu8LMdE5zgP5bZenevkpaPpd0fVLqPHk8f1JvNvtf5zNP2QU7/R45X90PrBTz7V/Bs9x5DcLvJ7Q0L91P1uEszSPk73hyfR51iSfvCy9vgEAAAAcEokpIXtyGOTRcPEBECl+xSq4ZJeQwmK1s2xvRmub6Crpybda91kWItPrI29xwmO134CsDzuM//aUALc1c/c5LvPqT6jfu+j4vHUzbzbb/LpQf/5r9xTgdUTo/6zTULW1qFfZ9/e5tzaT7y1EjuTT4jGao5nPjP6eOr6+TFmdMaL2c8/5dk9nkvitI8X7Dd0PHee1bmuMl58/bqJofJ4dXsqflgkCRNbvm5BfXvbWm2j7PeKpl1mGtfueMvNvxX7r7L2/MvpdwV3ntW5+vFYiZl/njvn5HNK2U/b7749y/3M09Dh6+Y3FKrPHBuvqXVbe3wCAAAAOCsS0sJ25PA3rMOGE9Iln+io3tPc/A7d4NZPMA7dUPuk2dgNt082jp1XpUmmDN3g+/ORP8vf/JskTveGPo79/Okb/vDJTvFcfLt0EkY+kWSSN+H2Wqt/hNcTDSeuHJ9Q6ryurd/keDFun7QSZYbueFuMFzdnBuv3qFc3Nd834bGk+SaMGW2/W+ntMte4tv213Pxbtf9Ka8+/mOPJ7aKRO/+cwb6akLSfrt9te4Y/HOtw5zBYv+S6rTs+AQAAAJwXCWlhO3K4JIA6oeCT0PfF0+pmezz5Y2/Ix97jk1dDN9All3SZeuoxO3nhX4s4lmwqGdDwiZ/BZJ2UqPDnN0NbRck4nqp+dYLqPvnrAJrjya9Lx9tqvPhzbT81PD9fv9a5Cf3Ve19Gv1dS2yX3eLWF55+zVv/ltIuqfgnHG50zkWZLNmvPKXG/9H5vEu5TBs8haty3rTY+AQAAAJwaCWlhOzLMkVBwnzF9o9wkr4cTjNMJaXuDPZ2ktO+beDpyLMGR3Taxyf7pdpGSiTEJHPue6SdEY+iPp6tfVPJJpDveduPFfGWCPR/L/Tq/+F49qX7D25q20/e7k9gu2cerLTv/Guv0n75dll5fhtolTfb8c6I+R5C+X2K/B9fJKUNtrqvbOuMTAAAAwLmRkBa2Qy8/oeCTHdb450QkiCYTDu54k089TidhKiPJMm1io+Y+e7ptY5Pw7XOZPr/INoikP56ufvoEr+Z4Oxgvt4+a78SumMRRat2HuDZp1U+qc7/tcsdZarvkHq+28PzrWbT/ctpFV7/Z+iFKWp8Orwnac8qoS2S/z3etVbb3wuMTAAAAwLmRkBa2Qy8q0TKi3v9uOukRk2C0nzd20+6OM8NTj817pONl3vyXbAIiom1du0wm4TvnMtl3Prk/1icJpsfKwBhQ1i9mvIhif6jROl5Mf/v3LDNeWuo/8Kmfmy1imwhzSXifut8r6e0y17heev6Nmrv/SmvPv7x+TxXTxv49EdeH5HOaqS4j/e4T0uk/YPPcOQ72Y4IFxicAAACAcyMhLWw/J3/DmHMDO8Xd4Ctvwm3CokkOTD0BNvmEmE+cjCUlEpKU3fPr8ucj1z8/QWGPP53EmmyXgXPx9RPb4vZJnbyZJYFRGm9P82vh8vG09asTj2NtWNaz2z+57bneeCn3Kdtq8P1urA/XI4E0byK3afvdSm8X/3m549p+znLzb9X+K2n7YZn5MNXv6caPNzX/nMkfRg1I2k/Z72772Pnf3D2asW7rjk8AAAAA50ZCWth+RvXN/sQNbB6XiEi9eS/55EA7aSQnNrywTg+t77A0yQ2XbCiN3iAHN/WP/ZNd5leRpT/W5d/73uvyM4PXTVKrPt7AE2LaxEateZovbKObuyfNeTu2XUaeVHP16CXo6vrZ9nxctsONq5tN5FpzJRzqhJBJ8gXnenP3vP7hiT2X9nmq6xe04buvzDHDPmzGzGzHW3m8NAk2e7zWnCmP6dt0jv6TkpKp21L7vaKZR7OM6+Xn35r9Z2j7Ibt+mn7XyJl/jjR+Y6Tsp+93d32s9g2uXyU/vkfPwc8l0wZB+9h9y88L32u2q88TAAAAAPpISAvbzydIxBnqpOiEIPEzppeo8PsJ5+VvgvtJCv809uviIaxbx3RyI7ipD0UkwfvSkzQp6oRARzsB4Pv6fvBJzrFkyVD9HkyCotpvPIGTZqDtDZMwFo+XV78mCSMz9Wz3+zLtac0/XobGSK2cY9K4TiUlJe22sJ2G2k7T746yXeYY12vMv7X6z1p7/mX0u5J6/jnSOI+Rup+63yeuuQ+j48X3pWz78QkAAADgzEhIC9tPqbxxrRJx1ZOhwuszmLxZdcJkUp2MHnxq2ycxugkQt728ATY31ubp1jDRWCWaYut523lCr2yj8ImxLnPOrSS4eWKs9YR233CSJkX7yW+T8Ogf17XLYHtOJ0uqJxZNe5p6Ve1o2mI6EaXSelrRnHfz9J1ts4F+z6ifNF7MvJD7fI72XHm8uDZtzYegXcV9kkhjwW1rtdNI2yX3u5XTLvnjep35t3z/Bdaef8p+z6GZf5Z2zVPup+33cr8X5fvq+pn9oq9/5bm2xrS9/o3uu+b4BAAAAHBaJKSF7TgA96RrzhPHSDGdiAKOh3ENAAAAAMDaSEgL27F/WU+QIplvb34AgDNhXAMAAAAAsD4S0sJ27N/01zIgSfXEufCr7K1fsZ//1+mBRTGuAQAAAADYHRLSwnbsnfa7PTFo4o/9kfzHITGuAQAAAADYHRLSwnbsHd/7ugzpj/3F/gEwYK8Y1wAAAAAA7AkJaWE7AAAAAAAAAGB+JKSF7QAAAAAAAACA+ZGQFrYDAAAAAAAAAOZHQlrYDgAAAAAAAACYHwlpYTsAAAAAAAAAYH4kpIXtAAAAAAAAAID5kZAWtgMAAAAAAAAA5kdCWtgOAAAAAAAAAJgfCWlhOwAAAAAAAABgfiSkhe3AOTwqnr56v3j3vfvisfg65vWkePFe2d6vnhc34utDtPt9eXHz7HXZv+8XL+7k1zG/xy9tmz+8fCK+vjz9eDk32sVYY3yy7kxbe53Yfl2Kc5TzPB/iQdlB2uXuvpo3XazBjOsz4fqwvN3Gb7dPiqdl/z8E69vDy4h4XrsfdoWEtLAdefxi11YuFuUC8fhW3gdLyE/Q2L5MD/S0+x2ZrfPr4mniGNfu1wTimn3PYfVxdvu8CXo2Snzqx8u0I89b2qW00vh8/PLa684kZT+ox9kO1qUoRznPU+IHdrLt4uQU9hhu7tSOea2eF+P6NLg+rGCn941h33e9GlnntPut6DD3DxsjIS1sRx57szrs4dkjcT/MzC/U6p80uwtXcmCg3e/AtG2d1UdXD8S3GGdNMPdii3Use06PWb89b+6eFy9ehTfaZbveKdr1ZO2it8b49McgwB6m6YeccbZGv8/hKOd5QouukQeW3S4581ZLd8wqMdKqp/2cQz9lzbg+Ea4Py9vjfaPvd/tkfHheN3f3I2NBu9+adGv1FZGQFrYjR3NBaf307fZR/as41eLBxWZx/okKfbDpLlzJgZ52v+OyP4RJT9Bo96tcPhBnnM1rxfa8LY/lAklJ6q9rnqZdjoAEwEIYZ1hOfjx4TtvFyTk0x7T7tOppvgbk4IkSxjWQYI/xm/acDhGLEtfFIiEtbEcON/kGghwfPFz+6Sq/kHYT9zOySZqMz3ffWZcc6Gn328Ic/eDqm/xDFu1+Xu7+R3ekcTaHpft7rfas51zJ/ErdbVAf811w0g80x5ylXY5i6fa+KsYZFpQdD57UZnFyDs0xzT6t+zL78NDR13HGNZBgh/Gb9odKh/hhFHFdNBLSwnZkmPyJ1cAT1J57krpOWBiv7ounEb/GfaP4YnvpV8aX/65rl7T357jIhcG3s0/8l+367L7TNu1fcanOq9UWY8IfKGj3M9x5uvFi+6N5/0OVsArf35bXf3P0gzv/5KdMYvfrzwdfv9GL8crzSG+4fvZCHq4TOeNMyQUTPbH9ndEPbfnjZRft6etRfubwU9CPyjEobZfstV1SjleKvm52jpc7Pkup8338JiDo31mua+7zlNcH7fxLvq6o+iFjnOX2e3K7tPuhGt+T8URJfZ7K49US51+21OPl1i913vp56cdR4vG086haK4K6l+fcGvMD83e9uFzTLtp5G/S567vqPaYdTb2kba3jNnrtOsjXb0pnfQn2Z1z3acd1mjnGS2r/Wfr6JR6v2ta8t7bw9WG99cVL7YfceTR8vPH4TSl5HsWuod11SbufldPv5itAHqq1ptn3xTOpD7TXh8b643MfSEgL25HBXWDGbkbtT7T7C2I14esJ2Df8mXYxlPax5Ivu4MWwUi42E0GJWviEYGmZhHS5KJrPNxf2zvFCrWOPvK8nDBi0+wX7msW2Dq56Fuq/OfrBnUPyxT1mv9F2vS8vWPa/3Qva6vNIa7R+Zf9V60RQv5xxpuSDt66YsaLvB0H2eNlHe9Zztg60M+2xXVKPZ7h6DI+JYD0PtueMT+18H34izQTidt/Zrp2uLTXXB/X882NUJF9XVP2QMc5WX5d8P5jXRs67u6/6PJXHC/eV3m/mnTj/coweb2C+59RPNW8V8aCTcx2za4WtuzwWhH5QzD+9FeNkf6yX5RjsvO+h3Nb7zJFrZNiu0usNd8wpnfWlMlpPxnXyuE6WOV40/eeo6jd6PHnd3eT6sOr6UtL0Q079Ro83fN+olRNPSO9vk9tFfm9IqJ+638t52EpEd3TXzuhzLEnr7trjc0dISAvboWcvZOMJAn8Rar0nmITtn/w9Kt/vX5MCEv8T8mayhvvWP1XsTXy/X3eCl/vXC6x8ozsHH3hNPS2g5hbFh1fup5atn2ibwM/UrzQY9AaBnvj6kMT9Wotvp/+qn8q713rnOU//5fXDkm3k3uPeF/5ktBUAdD9j9XmkpaxfTdv2mVz7jiZADXU/SBYcL7U12rOZs/Osq3tsF93xxGtiyAe5g+u1Ezs+1fPd7zd0o9BdjzMF86h3nmPXh2A/3TqYd12J7wcvdZx1xB5P2y5uv3Y84dsnJp5wEs8z/XjN/Os+URQ331Pp5ru+fsp5q40H3XlW55oyXtx7qnM15+Lraz4jPG5vrZhp/sVaM06u10j7edX7g/btbZs65uDrgurYZd2CbVXdpo5hMK47NONaIWu8KPuvoqlfc7ysddcdb7nrw8rry+rzKKffFdx5Vufqx2MlZh557pyTzyllP22/+/Ys9zNPQ4evm99QcGvW8HhNrdva43NfSEgL26HlJ1M78Onyi2kziZtFdGhi+xv27k/b6p+wjk34cuEIF2YruOi2tjev9/c5jvAnz6M/oexd0CJfH5K432T/+c/rvb59/9lzT784xOw3HHA4/uLUen2LeaQTU7/R17XjM1Ncn+v7QTLXeJmvPf06P61d/3ZwVgVY4eeUwXc7CBu3v3bRH8/uN1IXt9/UeIkbn834S57vUnv4bYPH1Y6XiPP0x269njP/5rmuxPZDLXGcdcUdb4brg/BaJfL8Y9tFezw//8zNcbi9Js4j/fjUzndt/er9Euet7ni51zG/3pukSuzavm5cp+2H6NdDfiyEdfP7h9um1nq3z+DrgmqcCn071K+M6znHtXJ9yRgv2v6z0uetbt3ts+2+3PVBt74c5/oQc7z+ftr65c4jZ7CvJiTtp7uu2PYMf8jV4c5hsH7JddOd51mQkBa2Q8tfyIYmk2UneXPR0S9afkEcT4APCS+i8d9Zegy+bkMXismF1F0oB/cfkrhfdyz0DY+pTfsv+ULjxOzn3zM2j4QAb6t5lCyhfoPjSDs+s0wFC9asQdjM42We9lQGsH7Mmq9fGNl/tN28PbaL+njT42pyPa/Ejc+s+e770PWR+aGC+ff4Gq4cLyXN9SF3/uVfV2L7IZAyznrijpfTLs34G9jX7Tc+d+PbRXW83Pln9p3Q2k99PG176udtczz5del42dcx/9rYcQX58y+epl1aEuatb8/We4X9xfeFktcKM246a6j5jKFx6/uNcT3TuNatL+rxktF/ldT65R6vtvD1wUlfXw5yfUg4Xrtd8saneh554jlFSNwvvd/9ujRt8Byixn1b+nmeBwlpYTuUYhYfIfiwE3DsprMkfXbU8cY8Ko9tF1Xr9cCX1B+Nv8AMB3hTQW9UnwjS9ps+z3q8iBfZ7frP1lMbQI/vF3Ohl/pvu3mUJr5+w3XRjs88bixOtJO6HwTzjpeN29MFZ1Z/rja/kjY9r/bYLurjTY4Fv05OnUfc+MyZ776OZt3x/1+JuIlMp7s+5M+/3OtKZD8E8ubf0utSfjxhxbaL7nh+W858T6E/nrI91fNWd7zseaRNNGTPv1j54zpl3krvHd42fE5Tr9d830zp9B3jurTIuE6jHS/6/nMS65d9vNqy14fGOuuLvl109Ys/3vB6liJ7HjlRnyNI3y+x31v3K+OG2lxXt+3yGlsjIS1sh1LMhcxP8nqBml58K9JnJ144B92WC4D/jrKKWQAyP3NT/Zv0rvGFMrJPelL3iwhAYoLVtftPO+4i95u+iEntvIN5FElXv5TXF+LaaTyYy+iHrkXHS8rr8/DBcPt7HtuiAridtov6eJP1mV7PK1HjsxTZfhJfR/9VK+Ypjscz3uS0aa4PkX0W0wba60psP9Qy51/U8XLaJTeecKLbRXe8/PmeRn88ZXvGjFmR5nj582i6fSYsHtfljuuU8eSO1XqvtP/UObl9Rs655vpmSrfvGNelJcd1FP140feflVq/3OPVXJsvdX3oWXh90beLrn6z9UOUtD4dntvac8qoS2S/5yfvM9t77bzGDpCQFrZDZ3pB9BfZcJLHTFr/ns7ioA5kRtyW51gda+JitmeTSdypNnf9NJYIECXuF9F/dkwlXBQW7z/XdiPBgix+v+h51Pqsnc2jEbr6Ca8nj888NkCZGlcZ/SC9Z7HxIry+dHtG3HBMt/F+20V7vKnAt/5ajInziBufJfV8d+fvNPtPtaOS6vow1/zrSLiuRPdDLW2cdS2+Lk2Ov5jPTh+fqcebnH8+LpppnKrXF217auetKh6M6VP/HmkexeyfYIm4bs04WTyWsP/kOaWvFWactsZMdYzhdmRc+/esMK6HZIwXdf9V0us317q79PVh1ALry9rzKK/fU8W0sX/PWJylPaeZ6jLS73Y8KtalmjvHwX5MsHheYx9ISAvbz8kP6JwJNmZqgWoWp+4EtQvp8KLlF4be4uMvdGOLYjmR+wtW2RblOQwuZO6CMLyI5li6H5r2Ul8EJgO9AYn7TZ6nvzD3+neO/tP1w3TbylL2G58Pj+rXt59Hofj21Navph2fFf38s+c1FoBZ6n4IrDFealntmcAdZ7jdJ9al0p7bRXs8u10ONOuxUoqbV9PjUz3f6/2Gg/eYfok1+ZkD14fxfgjatDfO5riuJPSDlzn/Yo+nbZfpvp2et0bseWqP5+snzpNyPA/Fn1rj7Tk839XtqZy3ue05tN/QeLHixkRbuU/2/Cs/I/L6nj2uU+atO/fWOcVuC0293mPq0FmvzWeM9Avjeu5xrZAxXrT9Z6XXz3+eOCYT1l37OctdH6rt2etLPG0/LDOup/o93fjxpuaRo419kvZT9rvbPnb+N3ePZqzbuuNzj0hIC9vPqF6MJiaY3sBFoPtrB9Kx/cQvA6fWl/ibi1n9XTrSDXuQ5K5+DTzc1yzAdt/uhbJZKO3x2udb1sN95hITf/l+8McY+Umaa28xgDDqALH8jKA/bqr+eD4SNKbtF7bFQ+s7kpq+M7r9MEf/6frBjfHUi2fifnX9THAW9OHN3fO6bkav/1aeR6GU9oyt32D/acdnST//mjYK2+Hmrv+X3/X94C0zXpZozzRhG7YDr/Bch+ftvttFe7x6TIbBaHmMuj3cmBluFyNhfGrn++h1w/XNjNc07fVBO//q/suKC1L6wcmaf8uvS7Yf+ttro+PCiz9P9fHq+pnXzOeWfejqZtvXGu+/eLHzvXue+vbUzdv89lRcx/yYToiV5ph/4ZoxtRZlj+uEeevrFp577LYW3ydl3eoxZ/o+7J+QeX+nHUy9B+tUYlyPfK5iXGvkjBdt/1U09avb03ymdt1d/vpQt8tK9/3afsiun6bfNXLmkSON3xgp++n73cW01b7Belvy43v0HBLjOv15ngcJaWH7+QQXfGOJi2k9+YY9lJNwKEC0i/CQkUVt4rhDx2wW7wFhcmA2K/RDfYzyoiS+3tR9eGHrnGfHPPu595aLr/8+UsnQxTOv/3T9YI85foGVpO8XXAi7TMA+8nlrzyMrtT3H6/d0sr1mGp+J829ozEnHU/dDae7xslx7KkyNs5Fgef/tojxecEPXZt8bW++U8amZ7/7zh8aDf32eGx7X9srrg3b+DbVhbfS6YiX1QyVv/qUcL71d/LnlxBNW3HnmHW+ofmY8j103dTTX6cz2TJ63y7SnNdKWA0mTKUNjpDZbXDfHuO4cryPcz7Zju73stvD40+c0OOYGku/mGO0+MPtPzQHG9dzjOlXeeNH0n6Os31B7pqy7Q3O/3X95/T50jFrE9T3e2vMoo9+V1PPIkcZ5jNT91P0+GJtb5m+oRF+POrYfn/tDQlrYfkrlxKou+GZhmnFBqg1NXHNDaS5KEcc035XZuvk0PynqPEknsz9FbwU0ZT3Dn0qJ3E+5wv0epJ9OzWnpfvAXpZGnQ+IW83IxrX/K6dsm5pxj93PnWd009Psvaszk9F9qP/iAuTpf4fUh6v3CnzKb82zqZS9a5Xl393FWn0dGcnsO1W86ILOU4zNr/jVP61jj7arqh9nHy8LtqeGeegrH2eSxjtIuyuONjSu7Xk+dp5E2Pv37w34Ym+/T1w1/QxRzrlPyrw/qddD1YXt8+n4U3t+T2g9GzvxLO15au8wVTxgx55l/vOqJMNN/pl7VODHjOXa+Jxqc7+V5iNfpOdozZd7O0Z7p82g4aRIhZ/5FX9/nGtcx81Yae25b6/jT51Qpr4WtJx5H+75z/mX7RM0BxrUoa1xHm2G8JPeflVO//HV3netD/vU9wdrzSNnvOdRxVtLYCCn30/Z7ud+L8n11/cx+kTmt6lxbY1q6PnSsOT53hoS0sB3AwlyCaeknDeZig4D0i7l2v+uaDsjObP7xco72PH67XHtcJzvY9QF7x/wDgHWx7gKIQ0Ja2A5gWes8aTCT6qkSRXJEu9+VaZ+EPYMlxssZ2vMM7XLlca1wqOsDds+PJ67FALAO1l0AsUhIC9sBLGv01452RfpVuRja/S7uskn8hcbL4dvzJO1y2XGtc5zrA3ah+oGP8KvCrV9h5jeVAGA2rLsAZkJCWtgOYEkuyXSAQEX7pB5P+OnYdrteImqp8XL09jxLu1x1XOsc5/qAnfC/gTCIuQcAs2LdBTATEtLCdgBL4nvFICERNS/aU7Z2u9APabg+QEP6o2ixf2AJAJCOdRdAPhLSwnYAAAAAAAAAwPxISAvbAQAAAAAAAADzIyEtbAcAAAAAAAAAzI+EtLAdAAAAAAAAADA/EtLCdgAAAAAAAADA/EhIC9sBAAAAAAAAAPMjIS1sBwAAAAAAAADMj4S0sB0AAAAAAAAAMD8S0sJ2AAAAAAAAAMD8SEgL2wEAAAAAAAAA8yMhLWwHAAAAAAAAAMyPhLSwHQAAAAAAAAAwPxLSwnYAAAAAAAAAwPxISAvbAQAAAAAAAADzIyEtbAcAAAAAAAAAzI+EtLAdAAAAAAAAADA/EtLCdgAAAAAAAADA/EhIC9sBAAAAAAAAAPMjIS1sBwAAAAAAAADMj4S0sB0AAAAAAAAAMD8S0sJ2AAAAAAAAAMD8SEgL2wEAAAAAAAAA8yMhLWwHAAAAAAAAAMyPhLSwHQAAAAAAAAAwPxLSwnYAAAAAAAAAwPxISAvbAQAAAAAAAADzIyEtbAcAAAAAAAAAzI+EtLAdAAAAAAAAADA/EtLCdgAAAAAAAADA/EhIC9sBAAAAAAAAAPMjIS1sBwAAAAAAAADMj4S0sB0AAAAAAAAAMD8S0sJ2AAAAAAAAAMD8SEgL2wEAAAAAAAAA8yMhLWwHAAAAAAAAAMyPhLSwHQAAAAAAAAAwPxLSwnYAAAAAAAAAwPxISAvbAQAAAAAAAADzIyEtbAcAAAAAAAAAzI+EtLAdAAAAAAAAADA/EtLCdgA4i8cvXxfvvvd+8fDyifg6AMmj4umr98u5c188Fl8HAAAAAGiRkBa2I8Pt8+LhvfImfir5dXdfJckm34dLuXlmkqckgGbj56Px6nlxI73nwBgvWM6T4sVJ5w0AAAAAbI2EtLAdOdxN/GiSKOY9uB73RCIJoBn5pzxfFy+ePRJePzLGCxYU+8NVAAAAAEAyEtLCduR5/NIkwN4vXtzpXsdVuR9UkABCFMYLlmOfvuc6BQAAAABLICEtbEcm93UcD9ITmXxVB4a4sUECCFEYL1iQ/cHp6+Lprfw6SvVXAtFOAAAAANKQkBa2I9fQd29GfFXH7aPqj7DV33tbfc598fRu4OsGJn+terk/THVz+6R42jnXh5dTXx/Qr5/Z57G5ma8SbN0be3f+df3K/Z/dd/Z/MvtXFtzcPS9evLJPCFrlOfvzFN4fuinr8VC1ebPvi2fSOZbjoXWMMXP0X9CWru+qzzbjy9RL2iZ8Rlr/WfZpy+C18litupfHk9s28XguSdsz+bUWeeMsZ7zEm2G8pK4vKpFrztjatfI6qB+fWqnzKH8dTFuvu+2VeDzlONP2wzrzr6s8t/p4ZXuc7iuBAAAAACyJhLSwHfmkp8umvqqjSmQGN7hdY09cD98Mu5vmWb9n1iYbuufX6CZTnPppMsnr4kXVPp2Ekdunqt/I/rMmA4aSmpXyPAeTKiZ5Iu3jdPtgtD06Zuk/NxZe3rcSKcZDua13Lt3knqb/HDv27Wv+qwDahP1Gj1fWQTie/NkR4yNnnKnHS6LM8aJaX5R6icWe4QTxFuuganxqaeZRzvhUrddBeyUeL2ecqfphrfnX1WmXsXoBAAAAQBcJaWE78vmb6fom1d80Dz3BF9xUt588e1R+ln+tnzjwxxn8tX1/0zx03GQ+kWTPx9zsh+daP0XXS/y4BId7LXxyrZXA6O7n2uXhlXvarnpCzt/4m0SL22/2+nUTGWU96/McSeCY/czT0OHr5slE12bDX68wnjCbRZhA8WMsGHe9ba02VfZfxbWpec33pzlW/RllP/aSRs3xuk86Th8v4I43+bUW/rySx5l2vORKHC+uflUdfT9XxtcXNd+eQ0m6odeV55m3DmrGp5ZyHvnzUo9PI2G9du3VPl6w39DxlP3n35PeD1vNP8sn+tt1BQAAAIBpJKSF7ZhBKwHikxDC012VJkkx+PR0N8Ht2MTAyA23v7Gf6emt+qm1bgIjdPuklWgxJhPHPpHReb0+3lAdlkq4D9bvUa9uhq1fmLTp8AmeoX6YvR4C38Zh3fxxw23CmNH2n+WTpya51U0cyfzxTKJHej12XNvxM52Q0o8z3XjJljRe9OuLnjvm6HjottlW62D6+NRaex2s9xscnyVhvdYdL3ecafpho/kHAAAAAJlISAvbMQf/5NZ98dTdhGclg8QEwNTNeJMAGTp2Gp9wGEqsD/DnPpYUcYmY7nk25z/QNu6zR9suUZgMbT3pPKhJxEwZPM+B+s/Jj7PWMYTj9t6X0X8Vv//Q6125x6tNzw8vZ5ylj5cZJIwX/fqSY7jtxXEYbF99HUwdn1oZ41o3PpXrdWm0vQzheNnjTNkPm8w/AAAAAMhEQlrYjnn4G/TKSKLH3lBPPMUp3ciP3dxXfFJ8pl9ZnjyeLCZRYd/TPU9//sMJFf/Z8yaSzK+kB31nntYT/yih45JIMYbaIGoMZJKOMbytaXN9/zmufUYTVYHs49VcQm5yvOaOs8TxMoOU8RL1XuXcHiMed+Q46vPMXQcTx6eWflwrx6e6T3XHyx5n6n5Yf/4BAAAAQC4S0sJ2zMTffI/epE/f/Fekm/XJG3j/K9DTT4hGUSYMphMVQ20wff5RSRCt20fNd6xWTKKjX/fxZGWMyDGQRXpaUjpuv831/Wel9lHu8WpuvE73y0zjLHK85EsZL2ltlZ4MHNFr/7FzyTjPyXMf799F15CAflwrx6e6TzXHyx9n2f2w2vwDAAAAgHwkpIXtmEnUE2oxN/L+Pe3k2lQi1P9hqPQn5AYoExzTiYaBBMjk+UcmQeZwW55jdax+PXw/pCd+PFf/ufpJIo5F4bjC+9T9V0nvo8nj+XMcSZgZtl8iElxLjLOR8ZIvZbzo15dsrp/qeTG6fujPM28dVPSt0urr4Gh7j5i8bknH0/df+7WZ+mHR+QcAAAAA+UhIC9vPyd+g5iQO08Q+OWsTFSMJFfc53UTFWIKj3mfO+vpExVjS4Lb/q9Lj9TO/bm1f7yZApttvIIGjVn5eeQ6Dn+USPL3z8QmjkfO4uXs0/LmTCaAZSMmpyG3a/rPS+8h/njhuy/Hlk1pT7WU/ZzrBpR9nyvGSK3G8jPff8PqSzyUZq88N/196r/487X7adXDuNWTYeP0WWAeV67X2eHnjTNMPG82/SnnsleMJAAAAAOdCQlrYfkb1zX7yTa/eWKKkxd04m/e2/miVSb7V343Z/5wwgVHXp34yrLwRd/vOd0PePOH27qv74vFteK4moWKP171Bb5JCZp9g+93z+lyl/SbbT0qoZmgSJrYfWmMkbNdee7pkSrXv83Ydgz4c7Ic6cVTWNeh/u2/5eeF7laQkU+q21P6raJLt9Xwwn/mkGme+HW07WYPtWWnGanheN3fm89rv1Y4z/XjJlDpelOvLHGzbTv9h18oW66BmfCpp55F+HdSt1+rj5YwzRT9sNv9K9Zirjr9OPAEAAADgXEhIC9vPJ7gxN1ZIPjTHvI9KKLZucHsGbuLrBID8fnvDPpJY0KiTYbKHlyNPv0lMokQ8z+n28wmJORMOTdJoQJj0Cg32hfUwtF+lMz475qiflGSy28L2HWpzTf85g8mycUPzwYyv0eMFhvqy3Z5540w9XrKkjxfV+jKDVvtErLurr4PK8amzwTqYvF7nHU89zpT9sIv5FzGuAQAAAKCLhLSw/ZTKG97qxrx6Ukx4fW6aJ77MOYY3uubJr2fjN9T+KTer/f5+wnEu9um6VqKjbNfwac2e1lNy5v3NU202qdA9T5e8GXn6zNZvJMmh5c41rN+D9BReV/VUXjtBUiVQo87vUbt9zL6zjVUpyeS2tdp3pM2T+88aTZZNqJ4cNf1gjlW1oxlf0wmzRvMUqNWeH9YM40w7XrKkjxfN+pKtTojG9Je15jqYMz5VNlkHU9br/ONp+i+rH7aYf2vHEwAAAABOh4S0sB0A9mk6YYYdcQnpdZ5ABgAAAADgGEhIC9sBYI/8k5QkOA/A/MYAPzwAAAAAAKCHhLSwHQA2UT1RK/yKf+urDuK//gErCv5onvm6FfsVCgt8pQ4AAAAAAAdHQlrYDgCbmPgjbCQ498p/t3fbat/NDAAAAADAgZCQFrYDwHakP8I2/YfRsKV2Qnq+P8gJAAAAAMD5kJAWtgMAAAAAAAAA5kdCWtgOAAAAAAAAAJgfCWlh+1mQcAcAAAAAAACwJySkhe1nQUIaAAAAAAAAwJ6QkBa2nwUJaQAAAAAAAAB7QkJa2H4WJKQBAAAAAAAA7AkJaWH7WZCQBgAAAAAAALAnJKSF7WdBQhoAAAAAAADAnpCQFrafBQlpAAAAAAAAAHtCQlrYfhYkpLGuR8XTV+8X7753XzwWX8cWHr98XfbJ+8XDyyfi6ziPm2e2r1/cya8fG+vL2Z17/M6N+bALd/fVmO260hi+5rxl/omYD1zHACARCWlh+1mQkF7Sk+JFJ+CSPDx7JOx7HDawig24XZu8el7ciK9jdbfPiwc/HnfcL2njDEMevzR9/bp4eiu/vjesL2j4BM9+xu++1yXmwx745FPbOmNmH+Nzf/N2Hcw/yZbzYR+uOh8a+75uAtgjEtLC9rMgIb2gMNE34tg/IXeBVWzA7duEJ3F3pAmOX+z2hyOJ4wwDfF8f5UaA9QWhvSV4dr4uMR92aM0xs5fxedHELPMvws7X0EVc/QcVV+xzALlISAvbz4KE9HL8UwBHfwJ6nAusIgNu3yb8mhrSpI0zDDjcDTLrCwK7G7/7XpeYD3u05pjZyfi8aGKW+RfjgrHd5X9QccE+B5CNhLSw/SxISC/H/mr8yYNR911wsXU82tcFYCcSxxkGuHY8zA/JWF8Q2tv43fm6xHzYoTXHzF7G597m7UqYfxF2voYu4qLzoXbFPgeQjYS0sP0sSEgvxf1KkuZX428flYHsa/sTdO/VffH0bjx4sU9jBMHv7ZPixSv7hIb/jMfZgXHnM0d1695tk7Kez+5b9TR/VG/sV7huykDmofoMz3zNxPg+adw5mp/cl+331P2xv6r9TdtJ24TP6Pbfw8vntu2rQEy+QdH3X+LxXDDYM/nrc0HbuH+n9l+8nHHmKOdRvKE5Xh737kmpe5yBp0JWnO/jT2z5+mx5o3S89SVn3V1+PTPy5632PHX79eeDX8/Gxu/N3fPO2Ck/w6+DnffqHWFd8trzwbZPc8yHkXHprTM+veF+H7tuam01b3vHnZTSLjOMz9Ka81YvdbzMsA66+K97THmfzOvRru8DQqn90JY6H9aft9r6De/Xnw/dsTJggSerc66b8e05z7oE4NpISAvbz4KE9FLKC7C5uCZ+R1Z1ge9doBtjiSL7NIa9mPuAp22GC70PiGL06h60ycjnyHU0AY38/sps30XmzvHlvf1v4KHc1jvnbmA42j5lsBb0UWu/kqr/Ro9X1kE4nvzZ42Or4o5VvS+5/xKN1qtD6PuceRRv4Caiukkpt3fOq38TkneemvEy/MRWM79ezJ4YS5DV79usL7p1d631rJQ1b7XnqdxvtP/L9az6TKE9/ZwTlevuXGM6a3yutS55bj68fO7WKclQMmXF8WmMtuv4dVNrq3kbHld6vSW1XTLH5+rzVkszXtw+unXQJhel91sD11TzmmmzxOPt/j7A0/RDR9J8KK06b7X1G91Png+2LkPrsRGZtE6hvm4mtudoe3QM9QWAyyMhLWw/CxLSC/EX4JSfZAfBQfvJiUdlsOJfG/5pfBWsmIu5+5zqM+r3lgH17ImmIOAWX+9wbfLwyj010HqSwQT8tu79NnPHMQGS+el7WH/zxIoLjGZ5+iYMnHwfhEFbd1vrXP15lso2CZ8waN1giO2l6b/meN0nGqaPF3DHm2w/f16t/vPnNNZ/uRLHmTvP6lx9f1Vi5lEK6QbBb+ueb9C/flvWeWrGi3S+pXrMj92AbOEI64umH3KOp6Cet9rzzN2vVLZn/Hrmx3V3/JbzqN5vjvne5c43dny6fjCWXZec8Frm2qY+ZtkPdUJh1vmgoe33HFvNW/cZvTaX5LaL2z+63bT1yz3PVMrj+X5OXgf9+mJ05pHZzz/13D2e9nrkzrM6VzMm69eWigu05uh39xlR88FYc95q65c5Pod+2DD1ejLtdVPbnp7bv9duADCOhLSw/SxISC9D/sl9YCSIGbqQ+8+UAxJ/kTfBbzfAWIi/4Y0MJsM2Eesw8Hk2cA+D+Q4f+M8RqLmgr9U//rzCbUJwOHxD4/jPFl9P7z9/PBOQS6/HBrDTT2ZY2v7LlvS5ufMohQ/oy7Hpt1XnWvZf9TRVd3t4zA3mu9SOfltE/68uqd+3Wl+083al9ay0drvk7dc/j5q/Se69HiQpWtub1wfPJcdAu8nWXJesut+H2sWff+f1tcdnTL+Pvq6y0bxNaLvsdkkan/r6xZxnynlM0baLdh2cnEfG7ZNeu+mOt0FcoJQ9Po2E+WCtN2+19dPPB1c3cT9f75ExmEx33dS2Z/f1wfYBgAEkpIXtZ0FCehl1UDKkczEeDzKdsQu5f600FMjOzgVkscfzbTL4fjGQaQL0KfFB7TDfD61zFOrZe59v/7GAcay9Uvsv93i1qaC00fTfeKA5Rz+0JIyz7HmUpJ+QrtqobMvH1Xl0tgdJ303mu2tHf0z/hNEuk9FGQr8bm6wvyf2w7npm6Oat9jyV+/l2jFjPpHbxdWw/Lbew3a5LVnfN6XN91WrzlcdnQr9Hr3Mxtpq3sXWZo12S2m2beZsso13y1sHmWh5Lcz3aJC7QyOiHlqQxWkqu3/LjunUeCfv1+3g4Fu/db8wk/bo5wzqY2ucA4JCQFrafBQnpJfhEVXyiZ/rmseSDHSkQHQxylhN1zrV+8q5LDLpcvWLMUXepTsPbmrrE3EjY9wy0V2L/ZR+v5gLMySSIsv9mkDLOot47No+SdNvEtqXpE9sW7e3h8bLPUzHfw/7x/18Zu3naUEq/b7a+pPbDyuvZ6u2i3M+fw1idxfOsmV+BD8Z0OW6qXyfuvW8++12XjOl+r9elcP6vPD7j+z12HYi00by142CsT6w52iVp/dxs3qbRt4tyHVTPSd3xsteJ1HGtpO+Httj5UFtp3mrrF7+fPB/E/p/1utCVeN2cYR1MWpcAIEBCWth+FiSklyDc6I2KuXksjQRj61/kI8+5Nt0mUh3Ggrf5uXNs1UmqZ78u0+0/3l6p/Zd7vJobU9Ptq+u/fCnjLK3OYzcNsWyd7fHsWHXHro4R/n/YxvnnqWlrv4//q+jmqRj7JPda8ytFSr8b26wvqf2w7npmrNsu2v2m2zFyPNyWN9j+O10r5gY7f5737Xtdqvt9LIkhJDrWHp+z9Xuibeatq8vIXPTy2yWt3Taft5H0x1PGL+o5qTleZFvNHBdozNPv7j0R88FLrd/a4zq7XbSxYq7I62b+OrhSfQCcEglpYftZkJBeQPJPtGMu0v49UjCwxUU+4oY3NNkmch18ADTPTfoE8RyFegrvmw5Ex25Q0vtv8nj+HCeCfdu+EQG+C5RT+y9fyjiLOQf/npygumH7wRzPfa4/z6q9TLu67a1+yD3PmP27XDs6zXwaG5dbSun30ibrS3o/rLqeGcp5qz1P7X556+eA23Kfqm4R61uylPEZM078e+ZZl/x8GOsH2+bt4609Phfp90lbzdv4MZPfLinjc2fzdoT6eNr4xe2X3O+q61HuOpE+rrXm6fe0Maqp39rjOrtduuu2dvzlGLlu5q+DqX0OAA0S0sL2s7hWQtpfaJe9wGsu2jaQGb4Z9Z8pBzITQc4SJgPuNn/+wzfbA3XwNxIjdbu5C//qeQYp+IvcNt5/5tfi7Otye6X3n/88cYwFf+l6qn/s50wH+Or+y5U4zvLmUbq6/aoxEQTw/t93cmIo7zwVbe3bceQmY7hvvfKG0P165+Af0pzLIdYXRT9kHS/d6u2i3G98Poytn+X5l9uGjuXPZ3psJ9r5uuQ/T7w+mNd9P3XX/pXHp77fc2w0b91nDPVJKLtdEsfn+vNWR3s89TpYXzdHYqQy3uq2i/Z44/VrPlfuJ8W4Vpql3xPmg7XevNXWL79dXNK9Ot/w/6X35ijbsjyHwc917darh7I9a6nrUkt5zivcvwPYLxLSwvazuFJCug4GJi6oucaDkgH+Qv9e5y9Hm+Ri/R1fAz95z7rIK9WBukm6Ned7U53v817wbttk4PyNweDUBaFG2WfhX3a2x5oK/ONJNxGp26obl/Ac757XQZQhBlKa/qvHi/lM8xfeyyDQtYftF2u8XfwTJ+3zurnr/8V4ff9lShxnWfNIwbbLfRncl/8N15TqPMpzqI4p3MzmnGfGeJH7J+5GrxnjI+c2lyOsL5p+WHE9M9ZvF91+2vWz3u+VnUet8Vsez+87V3vWDrEuWeb60LSLSYr4483Xf1pZ102treatHwPh/uZX5cPx4GS3S+r4XHneammPp18Hmxjp3VfmmMHrpu9cu8x2vJx1QjWudWbp94T5YF9bb95q6zdHu9ixc188dZ8111obqs8z+bqZuQ4mr0uN8Jpmjj0WqwI4JxLSwvazuE5COggsjcWCNn+cMiARXx/WuuD2aILpJXXas6MdkEy3iQ+QxECmDtJl1V+I7u6jIN1E+OCwOe+hugSBWpe5kanqN9CHyv4bGi8PJrAbO16gCaDbZu2/LCnjzFLPI4XwWK1zCcfswFqjPk/FeJnqH//62Ge2x8q87dh3gPVFOW/Vx0u2bbsMkffTr5/tcSmYrT1De16X3LmV7RYmQbrHayW8QquNTyPjuqm12bwdqKuYXMltl/Txufa81dEcL3MdrJNoMhNvtdsl73hrxgV6c/R7ynworTpvtfXLb5fW9aw8N+k9c1BfN7PWQcW6JO23YLsA2C8S0sL2s7hOQrpUXkirwNIEBqOBUg4XkCh/gmt+ldb/0bGK+Qn22F89Lo0G04sqg4T6qQ3rQWzb6TaxQfhIoFb91L5zLJN4na0fpZsIt6113iN1CZ4QqARPH9g+Cj+7kdN/1ZMX5TEfzLGq9jDBulSXIe0n5kwf9MfbDP2XJXacNTTzSKO5eey0dRC0j/XrWvN9un9cH4+NmdaNeczYyrXv9SVr3V18PTO2aZeKZj/l+hnuGyaOqjWx+/TXrPa6Ltl+t4kbu7437VL+/1L9p5XT7wqbzttyDW09KVmOl/BJwfZ7c9slfXyq6rdy/6Ufz86HvPilO4/M5w31Xf7xDnEfMEe/J8yHrPqtOa5z26WOs2aeNxJ3rsnXTU171hTrkmHmhHl/zHsBnBIJaWH7WVwqIQ1cwvQNEaBT3kyYG0jGFgAAwHxcQnqdJ90B4DhISAvbz4KENHAu/kkSAlrMzj35vdpTWAAAAGdnnjzmYRIAEJGQFrafBQlp4GCqJyiEX+Fs/argCr/uh2vxv0rK9/cBAADoBX8k03z9nv3qjLGvjgGA6yIhLWw/CxLSwMHU3zE3hIAWc3pUPH5mv7/P/MEa+T0AAACY5r7+rBO/89tnACAjIS1sPwsS0sARSX9kR3hqGshUjTP+kAwAAMAM2glpYiwAGEdCWth+FiSkAQAAAAAAAOwJCWlh+1mQkAYAAAAAAACwJySkhe1nQf0AAAAAAAAA7AkJaWH7WVA/AAAAAAAAAHtCQlrYfhbUDwAAAAAAAMCekJAWtp8F9QMAAAAAAACwJySkhe1nQf0AAAAAAAAA7AkJaWH7WVA/AAAAAAAAAHtCQlrYfhbUDwAAAAAAAMCekJAWtp8F9Tunxy9fF+++937x8PKJ+Pqo2yfF03L/h3J/8xn2c54XN9J7V/OoePrKnMt98Vh8HWmu1Z5Z82FNt8/dvHtdPL0VXsdJsJ7t0WHWiaNgPct288yOyRd38usAAABnR0Ja2H4W1O+E6pvA0qvERHK4b9ereZMn9kYr9jOfFC+qc9g6MX4WF2rPnPmwMp98SElUps2j4zlK/VjPDu5A68RRsJ7le/zStB8JfQAAcF0kpIXtZ0H9zsg/ffe6ePHskfD6EL+ffUIsvCG/ubtP/Kwp7lixN/4+WcCTa/O4VHtq58P6bPIhYV6kzqPDOUr9WM+O7zjrxFGwnuXyY5IEPQAAuC4S0sL2s6B+qK2aJHFPCEYeyz9pxa+tzoP23CefwHmIToilzaPjOUr9WM+ALtazTPzgCgAAgIS0tP0sqB+8VZMkd/dJx+LXVudFe+5R84RmdL8kzqPDOUr9WM+ADtazbK494hP6AAAA50NCWth+FtTvBNxNS8/kr70+KV68sknocXP8umjssYzu8bq/tvqoePzs3j455HS/YqTLfOXIQ/UZnvm17PF99MrzE/4o5GNzU171VfcG3dWvfgpKUb+kP0SZ2Z63/fqZ7xd/ejd+02x/4BHUvTzn1pgw31E+R4JOPR+sm7vnnbFa1tX3n/D+OfrPcp8zep458yhPers04uffdvVLc/b1LBjTbm2pjmPmuelvaZvwGWnroKVfJxKPp14n5prvU7rjpNn++O5Jqbvelu1kjl+fl5O8Xs9VP/c5u1nPtmpPSzOuxx8S8PUp+4OENQAAODES0sL2s6B+x+dvWromb1L8r4NOyr0RLEUfq9S7gXU3hmb7yOfI9TU3ffL7K5PJh0Sj9XxdvKiejOy0p9unOv/k+tmbY+n9lpT00bdnlQgT3uuNjTn7VKituzxmZxhnJfV8MIaSVJWy/6SkQ1b/hWy/jL5v5PN75hzbmnapJM6/reqXKus8j7CeuXN8eW//G3got/XOuZe0G2ufgXXQUa0To8cr6yAcL/e6mT/fpwwkUP1c7PS1r0+YvFSt17PVb2/r2Ubt6WjG9fBvUjTrwPDaCwAAcA4kpIXtZ0H9TsjdYKX92muQJBFfn1PisfwN8iv3VFLrSSKTkLU3Zr2kiD+OSYCYpwfDmzrzhF99Qxdsz+KPVyrrFj7t1LqR7dbb9Ve7fv4mc6x+zRNSPinYfG65n3+qrXs8bXv6G3ezb/laeKyb8lj+PPo3z/Y91bmac/H1NZ8RHnepG+vo+eDbs5tgLetX959QP3X/dbh+iR+Pa81ZZbtkz7+16pcr8TyPsJ6FiUI/1904F7e1ztWfZ6lsk+h1sKJZJ5rjdZ/Ynz5ewB1vsv38eeXO90l+3pWf39tmjhvWJ2g3v82dZ3Wuvr/ce0fX67nqt7v1bKP2dO+pP8+37+S4ls63VM/N7noMAABwTiSkhe1nQf3Oxz59M3RjNMDf5GTfREdIPFb4NNHYE13dz7M3zuZmOnhvyO03/aRXnMkbdX9D23ldW796v7Eb+NsnvfrrjtckfYYSDP5z5fb0yQaT5Fj3RtqeV8x8EJIQndelsaTtv2xLfW6Prl2y599q9cuUeJ7a8bLqeubXqrDP/XmF23xyLTimdh200tcJfzyT4JNel85RErtOrDffhYRk9dllu1S/FdPdHp6Pfr0+73q2TXtaiuuf1B5+W8Q4BQAAOAsS0sL2s6B+ZzOVPBoQedM+C3es2CenfMJh8P29m0ejuYGcMkud/Y3iWLsP1Lup38B5jNYvuImOpGnP8Zttx7eBlFDwr40ddxFp8yFMbrWeQB2h678ZJM6jHOntMsP8W7F+WU64nvn53jpHoZ699/l5rlgHK6nrRO7xavHrxHrzvZ9ArY5dnuPjqt0724MkZc56vV79Ohaf79u0Z+u1lPq59vDH9E9Wk4wGAABXQ0Ja2H4W1O9sXOJCuika0b0BW1Lasfo3kV1jyZMYc9xYx9yw2vd0662s39jN7yjd8aL6bOycOjfX60mdD+ZX0m39rdcTfyxO2X8zWHPOJrfLDPNv3frpnXE9k+o0vK2piz/39HXQSVwnso9Xi10n1pzv3WPZczR1tcdobw/PPWpMiuv1mdezLdrTUVz/wnb2/1+J+KEJAADAmZCQFrafBfU7GXfjk3azOH0TOp/UY7mbw5GbMOlmcamb5iHTN6xD9dbVT3ODa2mOF9lnI+cUdUO/BNV8KN0+ar6Du2ISsFJbK/sv25pzNhDZLvnzb6P6JTvjeubOsVUnqZ79ukyP9fH2Sp0rucerRa8T6853+1n23O0YcPWozjf8//Dc0+rcXq/PvZ6t356Wps38Pg/VscvPffnEPcm91joAAACwDySkhe1nQf3Oxd5kpd4sTt+EzscdS3qKSDL5JLB8s+gTOOkJW53pG86BNnY3san1G7v5HaVqz5gbcv8e6WY5Zv9l6OZDx23Zd9X5C5+j7b9sifNoCSPtkj//dlC/KInneYT1TDxHoZ7C+9TrYCV9rkwez5/jxLUtep1Yeb7b+pnPcp/rj1udhzlft71Vv5hz8O/prNcnX89Wb8/Waylt5trDaeb92PwBAAA4JxLSwvazoH7n0txwya+LJpMkM0o8lk/EDD8RNHCD5m+sR27cbu4ezXZTZ9t96DzN1x3Y17v1VtfPt+NYX9/2v1JBe7zx+jWfK7f3djfR8fOhPMeybwbPz42nbv3V/ZdrtTmra5fs+ZdVv0fFU/f1IoN/6G4uZ1zP3LFaye/Ibdp10EqfK/7zxER9uf75JOFU/8SuE2vP9/q8qrYOEub+33d2/HXrP94PTT2653n29Wzt9rQUbVZf34NzdKb7CAAA4FxISAvbz4L6nUnzlE54Q3Vz96R4PPLk16o3OOGNVvBHk25M8uDl815CwN4I9m/KakJSxHI3gUZ5IxjW3x5r3jrXN6TmZjc8VnmDa58iteQbXU39mr5+95U5ZvC6+VoFn5Cb63huu9m39ceugrYc/NyVkg198fOhSSjY+rUSB2UdfR92x4u+/zIlziMtbbtkz7+M+jVz0e0/1DdzOOF6Jl0PUrelroMVzTpRr0vmM828Lseoaw/bL9Z4u8SvE2vPd3u8++KF+W+Y0KyOU87Jqt/Ltg72aV6355qyXp99PVu7Pe179ONabme3FoTnDwAAcGIkpIXtZ0H9zqWdjGmM3ZBP3oTOKkikCtrn6d8r3CA6UlKkVt9EyszTk/Pd0AUJoy6TMK7Os9vGmfWrb+JlD+WNfLt+ecez42TIBkmMCCnzYei9td54yey/LCnzKE96uzhZ809fv/b5Lr2upZxn5nhZaT2Trgc+kdec91BdNOugo1wnhtYls/6NHi8wNMZn7T+FsG6tzwzHQtnv4T5e+nq9fv0aKfNIb932dBTjeqqd/etbXFMBAADWRkJa2H4W1O9smqdj/Y3Si2cxiZ/hm9D5lcdsnWN5Y1U95dt93/STQPYmceRm8Lb8jFedY5lExUSCQqX1tJQ5b/s0lTl3ewPZbeMZ6uf6u5WYLtsyfMqskX+8m/Lm2v+RpbqOo+NrySRGjMT54PowbM8H6engyhz9lyN2Hs0gqV0CWfNPWb/WD2rWWNfOtJ5J1wO3rXXeI3VJXgetnHWiegLbjE9zrKo9zPon1WVIzDqx/ny3n2d06hAkUMfaK229Xr9+bcr5nmDd9rQ043q6nV1fRY1tAACAYyMhLWw/C+oHADgXKYmKa5lOsAIAAADYNxLSwvazoH4AgFNxTzxu81Q+9sA/mcrXGgAAAADHRUJa2H4W1A8AcBqaPyKG46n6WfjKhNZXhvCVBgAAAMCRkZAWtp8F9QMAHN+j4vGz+yoZbf7An/wenMbEH3Vd7ruOAQAAAKyFhLSw/SyoHwDg6Ko/7rnUH3XETkl/1HX6D80BAAAAOAYS0sL2s6B+AAAAAAAAAPaEhLSw/SyoHwAAAAAAAIA9ISEtbD8L6gcAAAAAAABgT0hIC9vPgoQtAAAAAAAAgD0hIS1sPwsS0gAAAAAAAAD2hIS0sP0sSEgDAAAAAAAA2BMS0sL2syAhDQAAAAAAAGBPSEgL28+ChDQAAAAAAACAPSEhLWw/CxLSAAAAAAAAAPaEhLSw/SxISAMzursv3n3v/Z4Xd8J7saBHxdNXpu3vi8fi68CVMB/O5PHL19V15eHlE/H142F8AtjOzTO7phKrnwj3Y8CpkJAWtp8FCeklPSleCBfDrodnj4R9cUQ+qG3jJnt9bu69el7ciK9jbXZuMBe2wXxYyurj+vZ58eCvLTvuz7R2YXwu5Tjr7qPi8bP74qH6wYT18PJ58fhWeu92dt2e4drQ8fDqvnh6t797DdU6MSX5B3X+B2Kvi6c7G29rOc46Ec/WqTM2TlZH4EpISAvbz4KE9IJGgsMQP609KxfkcpO9Pj/3TvME4dExFzbFfFjIFuO6SZ682O0PsxPbhfG5kGOsuzd39yOx8p4SSDtvz4EnQkP7egAmsT0j6mek1/HqPxA7xjqR5wp1BM6NhLSw/SxISC/H/3SWJ6CvygW53GSvzs89ftizF8yFLTEflsK4lqW1C+NzKfsfn+FTjOYraG7qJ1TNE9Putd2c/77bc3Ae3QZtuasEf157zrZuXP4HYle4jl2hjsC5kZAWtp8FCenlPH5pgj9usi7LPc1B/6/Pzr3r/vrl7jAXNsV8WAjjWpbYLozPhex9fNa/Rfh68Bxv7nb0ROPO23N8HrknRPc0zzLbc7Z1w53HZR8e2vs6MYcr1BE4ORLSwvazICG9FB/8KZ5GME8zvHzd/hXGiO9/s08LBMHZ7ZPixSv/VIT9jLm/j6/6Vcuqnp75NeInAzcQE23iAobhX6nqt0v9HYPVvmFg6o5lfhpetsNT90egqnY075G2Bcep9y3/bW6IXgR1NN/FF9OOvf6IkNaeaxnqt7I/7p6UuuNy+EmEderXPV/zdFD7V4KrJ7F6+3mKcTY1zyeewFm331Pqp9VZe0YNtF3yOjjPvE2X2p7t86z2TxqfZd3c+tU9prxP5nw4yPXI9nc45spz9v0gvD8UP/9mGNepqjEkfP7krx7nj7N4Oe2SOT5La1830+ZfI+08Nf03z/jUtGf6fPf9rk8S0Z7hPt151DeVwNXOo/j5ME97WuVnRb3P61/H/PXBtvW8ycqc698x+mG4PZeJe1KP19brjwjafgCwDBLSwvazICG9FBcsJX5fVXUBrC9+fWM/wbfBpg0efIDVFhu4xTABTffzA0P1rgIHoR4+YWeCtHB793VRGSQEdbf7uPZ/ee+C1sZDua33WXWQ1BzLBDt10rpnOrAJ+0N6vU3ZnqsYuNFxfdk9Nzm4X7N+wdwbGTfiXEoeZzGBrm8/6T0r97uifiqjx+kQ6qhaB2eat0k07enP09RhZH95rbc3ZdL7rYExZl5TzIfDXI/8WiQq+2EweZ44/0b7u2OmuSu33XjbV7LGWaKsdslYr9deP1Xzz1Ccp6b/svrB0Ldn8nwfiB/i0J699vTnGsay0uuznmfifMhuz8BUfUOjxy3vEaq6z3g9Kumufwfph9H9F4h7pvpPOl7Hee7HgOsiIS1sPwsS0gvxF9CYYMkLbqrbPyl+VAY0/rWhGx6X9DIXSvc51WfU7y0Dlokn2uKVF2t3LtVPi1uBzhOXfBt62kBKbvrPGwoW/Oulsn7hUwWthEkYJIQBjG/LMGnR3Rb2U/g+U8ey3ZrPDQKVcJ8ed86j7/Fy2nMNUp/5baVWcBaMw3rbyvXzge8r9zRF60kUE7jb4/X7RjHODDdexEB69PW1+11Zv2zuuLGfG8y/pHUw2E8/b1NkjpfW+PRjY2x8BnOuWz+zn3/aqHs87XzQ9oN7T70O+PqazwiPO9v1yLeLbZNwe9MP0nnmzr/EcT0X156T64J6nOVKbJfs9Xqt9VM5/7Tnmd1/qeMzpz3T57s///T+oT2l9qzr140zzG+4+LEpHk97ntr54KW2Z8dQfXt8/eyx1ol7FP13mH5Qtqdvh+T51xyvfiLavRbff+4zBud2SNsPAJZGQlrYfhYkpJcx9FRTrXfxbC66Qxc6/5lyAOb2ry72Nijpv2ceNnAIbxo7/A1mVILOB1NDiY3mxmUwmHCf13rdbwvb2Sepw22tc7Hb6r4bCnCkz+maaoNAdnsuzvdReY5+W3VO5Tirnsrobm+f69r1C+ee+JnueN3xpBpnxsDnWcGNSee1tdtFXb9co+3TpV8HZ5m3CbTtqR2fk/Uzyhum7njSHe8416OxOeZfl+ZY9vxLGtfzse0+fL30tOMsW+Lnas9z7fWzPs/E+ac9z+z+S+yHvPZMne9+fSmPJ74+jPaUhfWTlZ8jHCu7PRPnQ/NaWnt2+eNPJQZt/UaOU16nc85Dlt5/R+mHmPaUXtfOP388k9APt9fc8eR55Ay0nUTbDwCWR0Ja2H4WJKSXUV+0hwxcrGMuqmIg4F8rLfuTW38jMW24Lk2C82nVTiM3175eY8GWC0jCeovBauT7bN+N3fD7YDPtnGRztOfS+gnpqo3K+tu/3N7Z3mq79evn595g20sBpXKcWcMJMXEcVlZul6z6ZUr43Jx1cJZ5GyujPZvxOVBHaXzW46WZa7E08+E41yPL17H9FNqYGebfUvNl1FTyvaEbZzNIbBfN+Fz/uqKdf/rzzO6/pH7IbM/k+e6Ol7wW055DfP36TCJ6aF3UnqffL/16VMtaP/sxqci3Y8R1erDfNbTzIcKm/ZDQnt3PU82/jOO1RNcxc94CWBQJaWH7WZCQXoIPlqafYvLsxXri/f7iLCUAlgiqJO44MUbPJficsSAhJjFi39NuO6k9h7eFwVxMoOuClpEgqf+5A+Zqz0V128TW35yPbfv29tb4XL1+0/3nx1Q47rTjzJP7W2gPb+V2ya1fDmneDYl6r7gOzjNvY+nbUzc+R9f+Ubrj6fvBceN7njkdw/zKr62H5ZIw4ntLM8y/lHE9n5E1pUU5zmaQ1i7K81z7uqKdf+rzzO+/pH7Ibc/U+e7bM3Utpj0HCPWLaWPteaqvR4289TPuWu77dKwdF1kHU/vvIP0Q357dz9PNP/3x2mwdh49dy523ABZFQlrYfhYkpJeQmviYvlhXRoKcvOAunhQ0pPP1tcY+a7peUtu59m9tG3lfq58ibvgng0B3rIj+n6c9lxcGdPacXTtWYzL8fzmgXK9+03NPGlO6cdaQ6jn2mWu3S2799FI+N/K94jo4x7yNp29P3fgcW/vHaY6X0w/WdPsspPN9qeYcpF9Tz59/S82XCcIaK1OOs2yp7aI7z9WvK8r5pz/P3P5L64fc9kweSzHJUgHtOcTVr3Ntm/oc9Xmqr0de5voZeS2fbsdl1vHU/jtKP+jbUzf/5uk/956ItSZ33gJYFglpYftZkJBeQHLiI+GiKl4sY/afh79g6wOgIMi4y71JMITPENtfCNil90UEePacxoIW+eZAMkd7rsHW2YwvN9Z83ar2Mv0jB32r129y7slzRTXOQt1x485jqN5rt0t2/dTi50LWOjjLvI2nbk93nqnjM6Z+ItV8yOiH1mtj+6/gtuyD6jz6/ZQ//1LG9XzseY+NO0c7zrIltotyvV79uqKcf+rzzO6/tH7Ia0/NWHLnlzj+aM8BQ+Nzot657amrn5G5fkYef5u4J73/jtIPa8c9k8fz14/R/ouvY968BbA0EtLC9rO4VkK6vDBVF71lLziai9pUssR/pnzhXSKoGuADi5Fj3dyFf+W5rVtPX6+heo+3y8BfZpaCtMhtU+dT138s2JSONcR/nrI9rTKYc7+uPviHPzLZdi7rXJ1vECD6f98NJGBnqV+8yf4bmCuqcdYSBr0RNyQrt0t+/ZQmE05t4+fZ9G+33WaZtwm07akdn3U7jp3/bf8rKpaZD8P9YK14PTLHKtt48Diu33v1yJ1/ieN6LrZfpsewepzlSmwX9XmuvH5q55/2PLP7L3V8ZrWnbiz5NWY4ThKOR3uKhuvnPmto3GrPUzsfvNT27LBjZywxao1fx5aKexTz4SD9oG1P7fzznyeuEWW9bJzdP16La9sz3Y8BV0VCWth+FldKSNcXy4kLTq7xi/YAfyEsg6zWH30wF936uzEHArDM4C6ND3BLZRuGf4n4JjhXqe4+KGkHBuPBm9+nCrjCY909r3+40P1MKfiJ3RaOkYfWd5CaYMufy0TfBkFNfc7mV8nDfq3p29Nr2siYDtI1bLvcFy/Mf8O+qupajtnqPKWgOL9+Kex5jrTBQHCqGWdtLglt2sYdY7xO67ZLfv2U6hsm80OLYI5WdSzrHb7XUK6Ds8zbBNr21I7PenyZz31ljhm2TVPH2Y6n7Af7nvWuR3U/vLLn2bqGlOfq+6Lf75nzL3Vcz6IZA2F/3dw9aZ2/oR9nmRLbRX+e666f2vmnPc/s/ksenxntqZ3v9TmW9Sj3DeeuuYZWr5Xn0prTtKdorH72taG5oD1P7Xzw70ltz5A/dnlc8fXGJnGPaj4cox9Wj3vcdvuauc6V13jXHva8LXlsO/4zwnY1bRPUt5Exb52mjYyROgNIRkJa2H4W10lIBxduY7Gb5fhgqcsHjjLFxXwpQZAg6d5cGD5JJ7W7v4DL5x8ECF0mAKv2bbeNFPzYbWGfSP3ktr0qg51wrHRMt/PAOZcBTrddKor2DK0RAIVjsxWMhec+NKcy6xdveu75tuoHlOnjrMuPu2rsDPV1aLV2MfLrp9NZdzukwD59HZxr3qbQtGfO+CzVN4+yh/IGsj1e8o6X3g+OG9drXY/a659gaB5lzb/0cT2Hobq2j5c5zrKktEvmea66fpaS55+TfJ5z9J9ifGrbM2O+j8/dgTWG9uyYqJ8/j7njT+18qKS05/h7a2L9Noh7kvvP2X0/GOvHPUNxiKlXXP8NnPOB78eAqyIhLWw/i+skpEvlhaa6cJsL52IXCXfxi0lICaonQ8IAwTz51Xrir286mF7AbVnP8tyaC68LEIR2rZPRg23iA4aBgCX4ybT9nOZpOFv3cD8p+HHbWseX+sltKwMOs495uiAM9IbqJyqDxNYTA+WYC59A6Eloz55WQDoc9OVogsLO5wfB2+j4y6lfNKlP23zSWAwSk8aZoG6LhCB0lXZxcuunVs6/8LimjhNrcNo6OOO8TZHcnpnjs9Kvn7meyWtL/vGOdD0yfdHq96A/xH2MrPmXPq7zNU+9WVJ/zDHOcsS2ywznueb6WUmZf4Gk85yr/xTjU9Ge2fO9d8yyfSeSPrRnaKp+5XlXa/gS80g5HyqJ68SU6vrf3bdU1q11nLKeS8Y9WfNh1/3gJLfn1PiMiUPK+ylTP3Osqj1Mvfy4jui/k92PAVdFQlrYfhaXSkgDY1wgsdaTffNywdlI0Aec0qHnLQAAAOJNJ7q3w/0YsAQS0sL2syAhDVjZT/psyT2de8hzBzIcet4CAAAgmo/7dvkgAvdjwCJISAvbz4KENGAt+2vMC/K/Ijb0K4vAiR123gIAAKCtuq8RvpKq9ZUhO/xKDO7HgMWQkBa2nwUJacBI+D6y3XhUPH5mvxfdfOei/B7gzI44bwEAACDyid1Be3sIgfsxYGkkpIXtZ0FCGjD2/H1ksuqPmIz98RHg9I43bwEAADBG+mON0h/y3R73Y8DySEgL28+ChDQAAAAAAACAPSEhLWw/CxLSAAAAAAAAAPaEhLSw/SyoHwAAAAAAAIA9ISEtbD8L6gcAAAAAAABgT0hIC9vPgvoBAAAAAAAA2BMS0sL2s6B+AAAAAAAAAPaEhLSw/SyoHwAAAAAAAIA9ISEtbD8L6gcAAAAAAABgT0hIC9vPgvoBAAAAAAAA2BMS0sL2s6B+gORR8fTV+8W7790Xj8XXgf14/PJ1OVbfLx5ePhFfx75F99/dffW+rhd3wntD2v0u4OaZbfurtsVR6q89z6v3L+bH9RYAgHWRkBa2nwX1AyRPihflDce7r54XN+LrsDf6+0zYP37pkm5D/Vcn6E7wA4fb58VDVRfG6yEl9J9PrrVNj2Htfldg14rXxdNb+fVz8z943Xv9ted5lPrhMLjezmrPcSQAYD9ISAvbz4L6AQJ/08ETMAPcjf4ub8h8EsKQbnSC109xQ9kkXV48eyS8fnC3j4rHz+6Lh5TE0u2T4sWrMAlr2ubJTvta23/aOajd74x82181IXKUH7xqz/NEP1g+/Tp4FCe/3q6KaxEAIA4JaWH7WVA/oI9f853ibvR3mbC35/ZQ3Yj3E022b1/bG3t+4LBf4tdMTCcO5aeBnVPd+Grn4J7n7squ/oPHo9Rfe55n6F/WQZwW1yIAQBwS0sL2s6B+QN+1f407grtJ3mXC3iUhXjwz/+32oUtWv7yv3vPAE07pfJJn8fnxqLi59SITS3Xy5nU5NoO+rZ4UNNtP9EMm7Rzc89xdm2uLy64DR6m/9jxP0b+sgzgpN04ZiwCAKSSkhe1nQf3O4+buee/XMx9ePi8eTyWNzK+CvizfW+9XenVfPA1vZGbVP159nlWA2k10uV/rq2/C3K+utvYf/zXUm/JG7KlwTHmf7q9xJx5P2Z7+yd267t1fty0/Q+pLdb8n6ZzLqIGnt5Lbpd3vtp7Nvg8D7VHf5FQJ6fbNjm3jcr/RG6HU8Wlp+y/5eO7ceyafesufR/UTTf79ayV6XJ3Hj+fPTe6fOpGe/XRgd31otj++e1LqnqM7L9/u6v5r6423SNr9pmW2i7fi+mn3GV4HbH3mHueJ892fh3reDh9vvP5aqfXztOd5lPrNYFfroBGMTRdjVW1i5qs5trRN+AxNe2rmu5V4PNfmPatcbxUy46xlz7PTR6O61xFnrTgSALArJKSF7WdB/U5iKGiudJ6SCdyU+7UCu47ZE07105WS8jyrJ5M7gajbpzqXkf3lc7XBq/R+S7rZcTd05oYj8Xg57WmfyrZ19zfSbUKAruz3ZKP91iHcqKnaxfd7ebNY39T29PuvuVG1/dh8dvPvsK3DfVXj01H13+jx7sXjyZ89PrYqvj3N+0aOO/o5nf0mjzkTX+exxNL0e9yN6UD/xRv4HD8XO+O/e17q/usYHMMTtPtNy2uXatvK66fdZ+Aa4JIWs62hhmZ9yZm3o8cr15dZ5kNAU7/J/UbO8yj1m8n0GhfznrnWQcPFSi/Ltq7bwfK/hRRua5KeTkZ7XuJ6mygrzlrjPEfbv2PjOBIAsC8kpIXtZ0H9zsDfYJQBfOvm+VEQwAkBl08UlNpPQJT7PfOvzRmouZsXoww2w6cSWoFmNxB152m+E7h6T/VEg6+nTy6Wujc7dbsYtm3COtZPgXSP5wPY1vGC/YaOl9We7lzNufj6ms8Ij9tLjCj7PZvrR+GGQaRtl2C/Xv9VT0O511r9EN5s2//3NynNDWzQ1vV+hnJ8VjT91xyvfkLLvTZ9vIA73liSouLPK3ketfkf8LT7cln23MbGctyYbMaA/HqccIx1t3XPYWisBWL7r8XVd6Kv+rT7xchsF9cO/bG19PrZGQ910qS7ruZSri/qeas8npr2eGvvp7X28fr2tQ6WwgSjn7NlW1T/lra1xmhOe2rme3O8I11vo7njVcf07V6Ji7NWO89a3FitZdbPvx4XRwIA9oaEtLD9LKjfGQg3953Xw+DbaoLzocDaPxkyy5MRpcnA1geOndfDJ1TGnoAY3G8s4C0D0m7b6I6X254+ODc3BbGJEE2/z2CgvWX6dpnsP38erdd9O5ptrn3Mebr32mO493TOXzs+rfT+88czN1fS6/WNojheGradxpIUlm5c70HYp9LrpVb/2m2PhXFl2zw3ESMkMqvjl/1eJeu728f7MLb/WiI+V6TdL0pOu+jXCSt9/vlzaI13vy21PyKsff2LOZ60n5a2ftrzPEr95rO3dbDk6xyekx+P4Tb3vv45lFTtyfW2Tb9+rnuegaTPnaF+Q/NGGq8AgN0hIS1sPwvqdw5hsN08JTJsKHhrmTMQjQn63A1BN+D0dRu86XCf3a6LD2DTb7qa48mvS8fLbk//2thxBan9PouBfpLktIut29iNn3CD3umb6jPKz7Wf5caC0H/1OSjGZyW1/3KPV5v6oUSjGdcDfSG1yx74thpZh/w4a9qquYFt9otvq3H9xGvVtuXn2uRPZ/voGFaeU8IcbNHuF0XfLpusn64t/DH9k5ZLJKNz5rtq3iYcb5b5rq2f9jyPUr85+XPYzTooHa8ktEPvfbnt6fcfer1rtv6LbzvVvFXKWT/XPM+WhPmSX7/EOBIAsDskpIXtZ0H9zsL8ap0N2qzXxYtn4a+1tU0HaaWBAE8jJqC07+meUz/J0dW72THU5647XnZ7uuA8PehP6/c5RNXV0bfLdD+INxKdm5yqr9yvovq2lfrPb0sfn05i/2Ufr+baYHKcK+fRHkS0bb+tfH3DbbFtNaXblvZzzfnZ82hvHz+e7pzsvBqbGzLtfnH07bLF+hmOd///lQUSE/7z0+e7bt7GH2+e+a6tn/Y8tftpxR9vYgzn2N06KM/b4W3NGM5uT663Lfr1c93zDEWds7Nk/eo+JSENALtGQlrYfhbU72RuHzXfjVwxCcpuEB4TpJUUN/lDpgPKoXOaDhbFz1afu+Z4+e2ZEpyLovp9DpF1reS0S8SNn3AD0rupdJ8d9qfU1vrxaaX2X+7xaq5+0zeLynm0AzHnFZNM8DfW861ntm/s57p+qvoj/P+Jvonuv5AbG8k30Nr94unaJWedsDRj1+/zUB27/NxyHfFfb7B+8mWoDXTzVn88He3x1t5Pa+3jSabPYe110I3NVp2lduiP4dz2jGmL0Gz9F71er3m9TTt3Mc5a5TxDKfNlhvolxpEAgP0hIS1sPwvqd2L1H+zoBpMxAZ5/zzw359NB7UBg7ILM4WBxoC4jyYtRk8GpdLzc9ozZP8Fgv88hIsCvZbRLRP/ZMRXuJxyv7M8XL++Lp933dMaZenxW0vtv8nh+HI7cKBoxCYiKdh5tLu68fJJleK1y/TdT/Wz/mc9y5+fbtWpn0x/yOOuK7r+WlDkY0u4XT9cuMX3s3zPX+unHg9WsM2PzXE+9vijnbd56lk57vLX301r7eH1xY3zVdVCMldznh9uE9+W1Z/p8nzzeoa+3MZ/l3yPHWeucZ0gYJ4Py65cWRwIA9oiEtLD9LKjf0ZWBXRnUDQbRLiDrBltTQZi/sZn3hm7oeOZrJ+zr3QA1+gare57+BmMsiL3tt5v2eHntOXbzNUTX723lZ7ggPjpxL96EDtO2y2Q/+BupVv/GtKN7T+f8tePTSu8//3liu5fj0t9cTbWz/Zzpm0X1PGpRjJdskW07cWM92t4KdbtXxw0SFP7fd3aeTB0vtv9aXF2T66LdL4G2XXz/pK4TVvr8a64P/eTS9FxJN16/+a9/2uNpaY+39n5aax+vb4froLSeRG7La8/0+T5a791eb+ONt+fw+rn2edZ2HUcCAPaIhLSw/Syo37E1gZj9S+OtoLF+UlYIyOpAzO4X7vO0/k7i/s26Vn2eJvALPvPm7nl9jkb3hsEGoiPnId0AVZonJt59ZY4Z1tHc8Njzme14Oe2ZGJwb6n4P+CDffk7kDUeYyAnqeVPV83k/qFe2S3huD63vxG76zmjVz52beNPpDbxHOz4riv5r2sXWz4xP24b2+679a2P9F47x8Lxu7szntd+rn0cN1XjJFd227sa5qkMwXkyb1uvAfOds2+K+eGH+G35u1Y7lWK/G6NRNbnz/tfixUx63fp9Z08L5JdHul0DdLv7cEtcJ+x79/JPH+/xJmLWvf1nrmYL2eGvvp7X28Xp2uA76NgmvUanbVO15kettEuX6ufp5er4PzbGD891FHAkA2CUS0sL2s6B+x9cE9wPKwF26AQmDtb6RIFWluVHqMQnjqg7dY/obgPL11mc1pJudWh30yh7KwLfdLnnHU7enMujX9rvV3Fz598rv6+rs1zFPu7hjmD9GOHKsXnu5dhy7uRjuP834dJT9N9QuZlyOHi8wNAba9cucRxXteEkxPrZCYlvXN60C04fd92cI+67VZuE5RLRRXP91DYzVyUSTdr94Oe2y5vo5Nd7966lzetja17+M9UxFe7y199Na83jHWAftfG3X2W4LjzE0hjPaUzHfjaH1ZZ/X23Tp6+c252mNj3HpeOr6pcaRAIBdIiEtbD8L6ncSwtMeD9LTsx03ZXDfCtbMPq0nCWbUeprBHcudnw18B25aRhIm0k1Rm30SopWYLm94wqcyGvnH07RnVtCv7PeKOdfqHMt2n7gRaysD/bAfq2OOf0Zau7h+qBJX/f6rbiCFY9l2HL+pHO2/5PFp5fRf9USYqZ85VlUvMy6nbxQb7Sd9TN367TrHPCqpx0uskSRFx2Bb37afsFtqPWtujjt9VLbR5Dm2xPSfoFNPM//kNa1Du1+k3HZZa/2cHu9+LMbMwUhrX/+U65ma9nhr76e12vGOsA5K1yifAAzH68gYVranfS1tvnuHut4qqOKsDc7T2mccCQDYJxLSwvazoH4AdsU92X7dJ1embxQBAEAurrendPk4EgDOhYS0sP0sqB+APcl5AuoMfP25kQIAYDlcb8/p6nEkAJwNCWlh+1lQPwB7suyvie5A9eSO8KumrV9hnuvXvwEAuCiut5d0+jgSAC6GhLSw/SyoH4D9SPk+x4Nyv0pqb4Ql3EQBAJCN6+0FXSCOBICLISEtbD8L6gdgP67yfY79P7Iz/x+eAgDg6rjeXgvfCw4AZ0NCWth+FtQPAAAAAAAAwJ6QkBa2nwX1AwAAAAAAALAnJKSF7WdB/QAAAAAAAADsCQlpYftZkLAFAAAAAAAAsCckpIXtZ0FCGgAAAAAAAMCekJAWtp8FCWkAAAAAAAAAe0JCWth+FiSkAQAAAAAAAOwJCWlh+1mQkAYAAAAAAACwJySkhe1nQUIaAAAAAAAAwJ6QkBa2nwUJaQAAAAAAAAB7QkJa2H4WJKQBAAAAAAAA7AkJaWH7WZCQBgAAAAAAALAnJKSF7WdBQhoAAAAAAADAnpCQFrafBQlpAAAAAAAAAHtCQlrYfhYkpAEAAAAAAADsCQlpYftZkJAGAAAAAAAAsCckpIXtZ0FCGgAAAAAAAMCekJAWtp8FCWkAAAAAAAAAe0JCWth+FiSkAQAAAAAAAOwJCWlh+1mQkAYAAAAAAACwJySkhe1nQUIaAAAAAAAAwJ6QkBa2nwUJaQAAAAAAAAB7QkJa2H4WJKQBAAAAAAAA7AkJaWH7WZCQBgAAAAAAALAnJKSF7WdBQhoAAAAAAADAnpCQFrafBQlpAAAAAAAAAHtCQlrYfhYkpAEAAAAAAADsCQlpYftZkJAGAAAAAAAAsCckpIXtZ0FCGgAAAAAAAMCekJAWtp8FCWkAAAAAAAAAe0JCWth+FiSkAQAAAAAAAOwJCWlh+1mQkAYAAAAAAACwJySkhe1nQUIaAAAAAAAAwJ6QkBa2nwUJaQAAAAAAAAB7QkJa2H4WJKQBAAAAAAAA7AkJaWH7WZCQBgAAAAAAALAnJKSF7WdBQhoAAAAAAADAnpCQFrafBQlpAAAAAAAAAHtCQlrYfhYkpAEAAAAAAADsCQlpYftZkJAGAAAAAAAAsCckpIXtZ0FCGqHHL18X7773fvHw8on4+nU8Kp6+er9si/visfj6VdEue3SJeXv7pHha1vOhrKepq63v8+JGem9Iux/07u7rtg69uBPeG9Lut7ajnCcOjuvtzTN7bTvk3DroOsF9AADM59DXsR0hIS1sPwsS0gvxgeirocTHcjcaduFTfO7t8yZpM3jex5XWLk+KFxu1g7r/lI7SLhhw8nlbCevY9Wpk7Gr3W9Ha830Ntk7dNp+uo3a/tR3lPLd0xnG9vqtfb32c/Lp4eiu9vm9brhPq+cd9ABIcpz0fFY+f3RcP1XpimQcTHu9sXdl1e47E0w9lPP307pG834bS2tNdb6ck/6Du2NexPSEhLWw/CxLSy7CL4NgC5Ba+2Z9AcAufKpBsFs0Xz/Z3YcmT2C7+wrv6EyI5/adxlHbBsDPPW8PXzz6xFY7Tm7v7kTpr91vT2vN9C9o6HqVtrtCHqWiTWVz+enumhPyacyLnWG5f7gMw6RjtaeK9oUTqvpK/O2/Pgd/4CD3sas1IbM+I+hnpdeRBrrmQkBa2nwUJ6WU8fmkWH/tr4uLi5W405l+8l0p0H11au/gfKKz/6zVr999R2gWXpU3KHCKZc4X1WlvHo7TNFfowFW0yh8tfb0+VkF9zTjD/ZLTLvPbfns3DYe7BhPoBMfPEtHttN+e/7/YcvB7dBm25qwR/XnvOdv29/A+W50NCWth+FiSkl+AXwef2p3PCIrTYjYb7CR8Jw47Edql+oLDFr9es3X9HaRdclnatXGyNndMV1mttHY/SNlfow1S0ySwuf71142hfT90prTknmH8y2mVee29Pnwg0T/sPnOPN3Y6eWt15e45fj5rfrNjN9SqzPWe7/rrzOMV1bGMkpIXtZ0FCegHuImgWH5sU6f/EcHShMz9t7PwRLvN9p/L3Mz0pXryyiZdpnfNwi2RPwq+V3Cj/YFj1K1TVxcszvx7Y/rX6PBntUl9Y/Xb33WPBPt2vAGjr91/9XWVVm4f9nnOeGlu2yxr97s7R/BDIjc3qOGb+mDaXtgmfEd9/DTvXg9fKY7Xa2nxn8RzHq7Y1761Nztugbdy/U/tPJ7U9Y8dod3xq92tox2f8Opg/380NVPszyuP69hTen083H7zevIik3U8jZ13SnGf88eZYz1Lrp1knrjCu89fPtHjJHU97vU2KIxv661jqOPOG+8Gey7wJmvXrZ6WvEynjM2P+VZ8lvG80nuiOzQETTwbmtGec/HVJO49yrHNftc06b2j6PX3e+jGqXz9oz3Cf6Tk/lcDVzvc14+tG+VlR7/PWvY5dFQlpYftZkJBeQLno1otP+P/1e4YX9mrBdouZpPcTtvonwBE6AaZfJLvifopnF19pf2voomQuGNL7nbm+YymjXeoLkdk+8jliO40et7z4VhfsoN+zzlNhq3ZZq9/9Ob68d8FE46Hc1jvn7o1Sav8FbDBmX5PnlrDf6PHKOgjHU89bd6zqfcn9p6Rpz9F9QjPtV9GOz8R1MPocS9Ix3fVEVrbn3DfJmv7rCOeF9PoQ7X5p8teltPNMPV7meqapn+vzpHXiCuNa0y41Tbzk+t60V+LxkuPIgOo6pp1Ho/1QjvnqM+ddA1atXyBpnUgdn6Pv7+icqzaesPsNJ5+a+5yBsZ3ZnlEy2sXImUc6K95Xubap6jDSTq06ZrZnTr8nz1t/TVGNJdqz157+XHsxRuf1Wc9z5fg6NFXf0Ohxl7mOXRUJaWH7WZCQnl87UCsXYrMotRY1aVspuClr/yTVPGntXxsLAN3nTi20Q9zxp3+K1/zk2ZyPuVkMz7X+qXDvPNz5mX3MT0VbF5In9WfO/1PExHZxF5eHV+6nna2fFJsLpD1P8ebfbHfHCn+63ApsB88js/+Srd0uK/R7GBj4ORTMq9621rnm9J+bE+Y199nVHA7bp5dUaY5XP/nkXosbL4473mT7+fNq9Z8/p7H+08ppTy9xjNZS9vPnmTo+teugl1q35ga/naArj1u359j1IdWM/Zc8prT7pdD2eyjlPBXHm2U9S6yf+yz9OuGOe7ZxrW4X5Tqhvd76sWD29ePD7TMdR+Zcx1LnkbIfsqxZv5D7jN7YkOS2i9tf226uXcbrU/LtN5SUHXx9jvbUSGwXd/5VHZLnkYZyndC2p++f1db5nH5Pn7f+/NPHEe0ptefgfC7rGD4J3j+e9jy188FLbc+Oofr2+PrZY61zHbsuEtLC9rMgIT0/e+EpL0YD/65vNFoLXbOoDV1A/U8xBxdIf/M6eMEbN/3Eg1X/NHVsgS0vNOHCbNTtMPT5YrvMILFdwp8Wi+cy8HmTAYe7wA2+ntl/yVZtl5X63bdxODb9eYXbhGAjr/988GOCURs89d/T5o9nAkHp9diAKHneDn3mzOMvez4Y2nNK2E87PrXrYPNaat2Cm4iB1wePpTBn/yXPbe1+CbT93pJwnqrj+TZWr2cZ41p4reKPP9TvU6/3HGNca9tFu07ojpcbR2qvY+njLKYf0sZRjPXq1xLzHkc7PmsD4zCWHR8RidbR4wzP6VnaUyOpXWa4H0ukXSe07albXxJe78jr99R56/uvPJ74+jDaUxbWT1Z+jnCs7PZMnA/Na2nt2eWPPzT/PVu/keMsch27LhLSwvazICE9N7/QB4uoCyDrha3775Jf/OSLhzO1wAqfG2/qptDTXuj9ftNG20AjsV38BWbw/dIF1PfNWPtNnUdW/yms0S4r97sYRAj17L0vt//8/kOvd80xXiqx8zbsv4F2FvtPaa76ufckn1P0ftrxqV0HA1H92+b7sP00ywJm7r+UOla0+0WbaV2KPk/d8dTrWUb9stcJRd8dYVzr2kW/TjTHk1+XjpcdR/rXxo7bohxnCf0wWpdUa9WvK3ZOJLTL4Gcp5l8jPp4Ye6+4blVmak+NhHbJnkfJtOuEvj3XXecz+107b6PGcYj2HOLr12cS0UPXbe15+v3Wja8bbm2bOr5vx7WvYxdGQlrYfhYkpGfmF6hWkOIWV7fNLuztJxCkbT3iZzeiPmNQ+xwHTZzDILcox5h74U5rl+kLkRRsxwSw9j3D55HXf+nWaJe1+12q0/C2pi7Z/ZcYdMwxXqzIeavtP6W56qedE9H7acendh0M6Or2qNzPtq3lbgbE9+rN238TQb1Au1+0mdal6PNUHk8aI8PbgvNQ1y9/nZDOb9rex7WyXdTrhO54UW0/dk6J1zHtOIvvh3muR7WV6tfVm58D4ttluI9188+LjScsuV4jnzFTe2qktEv2PEq1+n3Vyut8br+nzlvfnqkJadpzgFC/mDbWnucMcyupPXvcGjYxfuLX65mvYxdGQlrYfhYkpGc2sNDbxdEu5uH/29enL2aV0YtI5GcMcZ89uWgmX8is7Rbl1HaZvhBJF7rpi9/UeWT2X7J12mXdfnfn2KqTVM9+XXL7b3r/tvzx4sTOW2X/ac1Tv9Qx6sXvpx6fynWwoa2b0/nePtPW0q9Las3afxNBfZ92v3jzrEvx56k7nn4909cvd52IGRcjdjuule2iXic0x4ts+5Fzmm6fNu040/dDnrXq1+bqErFO5LdLZrtFxxOW1D5jdZinPTVS2iXyvdkxQED5WUdZ53P7PXXeahPStOcQV79Ognjqc9TnmT23MtfByIT4dDtmngd6SEgL28+ChPS87AIsLFDVAmu2uwWqdeGKWbT8e4YWd/mCEWvwvLsyA6dZgrckie0yeSGS+2r6wjQVsOT1X7p12mXVfhfPUain8L68/ouZv22Tx/PnOBFQp87b1P7Typ8PRsx7JPH7qcdndsAsjEut2/Kzqr6LGAeRZu2/5DrO2DYD5lmX4s9TdbyM9Sx3XA/XaWqdmLHv9jSute2iXSfEvg9Jx4tZw/17pDgyZv827TibZ31JtV792uLnRH67xB9LYuubMN+649uN26H2mqc9NVLaJXceKSjXiaOs83n9nj5v6/NL2of2HDQ0PifqndueuvoZeetg7PG3uY5dGwlpYftZXCshXS4OLojQL3Tj7AIlLPR1oPa8WqC6x7f7DQc3fmEfXNgmb2DGDZ53lz/O2HvLG8neOfoL18jCfHMX/hXdmSS2i2/n4SBTvsCM95/5dWT7+uB5ZPZfspXaZdV+l4KIyG15/ZcedPjPE9ehcv74m52p/rGfMz1v1f2nlNeejnZOpOynHZ/+GKnroJdct7J/yvcOfp6rx3D/ppml/6S5F0O7Xwptv4dSzlNzPOnzE7el1i97nTjpuFa3i3KdWCYOaT5X7r+JvpUox9ks60uy9erXIs3PAdntkjz/2uznR9wH1FybVseLSHTN0Z4aie0y3g9T80hBuU5o23P1dT6r3xXztuT7cHjeCcejPUXD9XOfNTRuteepnQ9eant22LEz/YO58XViqevYtZGQFrafxZUS0vXiYCQsxvFcQCZ+tn/N/FVbYQHzC3e5CLb+KIJJTtXfrTiyQNYLePmeYP+bav/nEwGmDyTbF++bO+kv2DbvffdVebG4Dc/VLMD2XPtBgL9wmf3K8wk+157j1AVdKbFdJi9Erp+69asDVHMBDet297z+IYi0Xy2r/xRWapc1+10KmlK3qfpPE/zU8918pplnZVDm2sP2izXeLvHzVt9/OtnzoST1U4y0/bTjU7sO+vekzb+6Pcvrh7k+tK4v5T6+TVPbasgc/VeP8bBdTdsE9RVp90syw7qUdJ7px5PGcew2bf2y14mTjmt9u+jWCfXx/Jgs902OIzXXMeU40/ZDlhXr15KwTmS3S+L8a0u5D/DcPmXdblw9x+fqDO2pkdouOfNIRRtPHGOdz+p31bwt1edY1qPcN7y2mLFavWbGbbCd9pSN1c++NjRntee5bnzd5o9dHld8vbHJdeziSEgL28/iOgnpYIEzUi9uMSYW+mbxGl/YZSMXu0qnfh3yxaLRnFvEfsGFXvJQLvj9hHypDvJk3aBhHintMn0h8u3Ub5fgwttlLqjVfmN9mNd/6dZql9JK/S4FTXZbeN5Ddcnov6lgc8DQfDfzZ3q8WHHzNrP/VHLng9yfMZL3045P7TpYSZ/vQ31dm3X9zO+/wc/o3QR2afdLlL0uJZ5n4vHy1rNScv3mWCfOOK4z2yV5ncg73tB1xRqZs8rrmG4ezbG+JFq1fqGUdSK3XdLnX2hoLo7t59epB3PcmDU6uz010ttFPY+0VruvylzPKopxpu137bwtjV9bBvqQ9uyYqJ8/j5nintpq8fX4e2uLrNdIRUJa2H4W10lIl8qFsVrgzEKxxAIxtdDXC+zIhcucY7g4mieHov/afLmwup8ceg/RdW1+6mhNHde+v3XBKI8V/jRSdFsu4GWdmuPYC8si/VGLbRd3cRkJqqUkQS34iW8leOrLBiTD/W7l9J/GSu1iLN7vPqgI29hta533SF2U/TcdbA6rfpJeHvPBHKtqDzN/pLoMiZm3M/SfRtZ8SGmDkHI/9fhUroOV8lxbfRcx312bhserxo5rV3Efraz+c8prXutJkdi20e6XSt3vTup5Rh9PGsduW+x6ZiTVb+KzSnHrxNnG9RztkrJO5B9PE0fmXMdU8yi5H/KsXr9QyjqR3S6K+VdLvQ8o1QmnhPghtz1V0tsl735MY437qvz1xdKt86n9njVvjd4xy/YdSoJ6tGdgqn7leVdzZKR+ivO01oivXf2mlGOmvZ9T1q11nLKeS17Hro6EtLD9LC6VkAaA3ZsOcAEAAAAAODsS0sL2syAhDQD74Z9g0PyKIgAAAAAAZ0FCWth+FiSkAWBF1Vf3CL/62frVL37NCwAAAABwbSSkhe1nQUIaAFZUJaTd942JEr6LEQAAAACAkyIhLWw/CxLSALA26Y91LP0HcwAAAAAAOA4S0sL2syAhDQAAAAAAAGBPSEgL28+ChDQAAAAAAACAPSEhLWw/CxLSAAAAAAAAAPaEhLSw/SxISAMAAAAAAADYExLSwvazICENAAAAAAAAYE9ISAvbz4KENAAAAAAAAIA9ISEtbD8LEtIAAAAAAAAA9oSEtLD9LEhIAwAAAAAAANgTEtLC9rMgIQ0AAAAAAABgT0hIC9vPgoQ0AAAAAAAAgD0hIS1sPwsS0gAAAAAAAAD2hIS0sP0sSEgDAAAAAAAA2BMS0sL2syAhDQAAAAAAAGBPSEgL28+ChDQAAAAAAACAPSEhLWw/CxLSAAAAAAAAAPaEhLSw/SxISAMAAAAAAADYExLSwvazICENAAAAAAAAYE9ISAvbz4KENAAAAAAAAIA9ISEtbD8LEtIAAAAAAAAA9oSEtLD9LEhIAwAAAAAAANgTEtLC9rMgIQ0AAAAAAABgT0hIC9vPgoQ0AAAAAAAAgD0hIS1sPwsS0gAAAAAAAAD2hIS0sP0sSEgDAAAAAAAA2BMS0sL2syAhDQAAAAAAAGBPSEgL28+ChDQAAAAAAACAPSEhLWw/CxLSAAAAAAAAAPaEhLSw/SxISAMAAAAAAADYExLSwvazICENAAAAAAAAYE9ISAvbz4KENAAAAAAAAIA9ISEtbD8LEtIAAAAAAAAA9oSEtLD9LEhIAwAAAAAAANgTEtLC9rMgIQ0AAAAAAABgT0hIC9vPgoQ0AAAAAAAAgD0hIS1sPwsS0gAAAAAAAAD2hIS0sP0sSEgDAAAAAAAA2BMS0sL2syAhDQAAAAAAAGBPSEgL28+ChDQAAAAAAACAPSEhLWw/CxLSAAAAAAAAAPaEhLSw/SxISAMAAAAAAADYExLSwvazICGNKTfPXhfvvvd+8eJOfn0Tt8+Lh/Kc3n3vdfH0Vnh9M4+Kp6/Med0Xj8XXcSSPX9qx//Dyifh6PsbLvGjPa6Lf50V7LonryrEt338A42w3dnu/eRy7zCPgcEhIC9vPgoT03NJuBPa/SPv67OtC7Nst5YbL7rP0DdqT4oU5r1fPixvxdRxGHYQu2Z/542WdcX0UzL+zSBvX9Pu8aM/FnPC68vjlRH3u7u3rZ7hOrdJ/2BttnKWOzxhnu2H7MG39Uvf7SdlrBAl95CEhLWw/CxLSc0tJSB/hKZZ93phO3gD1uLZeuh4+iOSJhhNofhjz4tkj4fUZZI+Xlcb1UTD/TiJxXNPv86I9F3S264qvjyHFssHrp7hOrdB/W7p9VDx+dl88uDpGJZBuy/uEVz5p59vmyYlikpT5ENLuZ5x8nB3Ibu83D8OPZRL0yENCWth+FiSk55ZwITrCTd9Oz9EHCA/RgZpLrC9cD/+TdH4tCTHyx8s64/oomH9nkTau6fd50Z7Htu51xb73oUpI9hMO9lxe2wQn16n9qp9iD00nkPxYE50mIaeNs4jPzmCv95uHwQ+4MRMS0sL2syAhPTd3IYoJxFwAuOubPneO8RfiNTRPDkT/+s9Kbc2vJSFF9ng5whqyIubfSSSOa/p9XrTnsa16XXHJhhfPzH+7x3TJ6pf31Xv2FUcehE/mLD4fHxU3t15kAsmNE3NuL+6Cvq2emDbbTxKbaOMs4rMT2O/95mG49mD9Ry4S0sL2syAhPTfpJ6OPyhuE++pX2ML32psG+QmEm3IBt78y5y35K3Dm/F67oNd6ePm8eFxefEeftDG/2tfZ791X98XTMDBtcRf2um3crwYG+5s/3jFdx5in0E1APPLkRstcv0bkAxf/ean1G+4He0EPA6LusQZM3FjsZZz165fPP5lVf2b310rLsVod2+/jgqae6Kd8UuunGS9bjGtPWb+M+X5T9tlT4ZjyPpnzL3k9s5LH2UZu7p53xk5ZV99/wvtrynZJkzOuc9fdva+DzCP/GdJYVY9rJa4r/nMdVz+bkG7Hiratyvf794gJmtT6Wfp1N/F47tx7Jvsvf97W9xP+/WsldFydx4/nz03unzr2jB7ncXLme/w6r50P+fOoZ/Fxppt/8brrUbP98d2TUneMuXFV18fhftPZqj0tzbpr9xle/219VlzfcFgkpIXtZ0FCem7C4u8DjdYFbeAiUV3Y7OIsmjm4a56+kNy7c+lfQKvATtzHEi8s7ljVayPHnb4o2bYbfd9ovTpma1PXp+bzUus3er5l0Cz88KIXGPT4C730nj2NM7l+ucIf+PiAqE1qz+57YsZjabR+5TwS66cYL6PH6ZizDzX95/apzj+2fjUbLEvvtwbGtHlNMf9U65mTOs42MXSzWyn7b+AmJKddkmSN64x19wjroNunOv/k+p18HinHdQ6uK+05YetnxpE9bvO5zb8HH74YPe54XKAaL4r2VPefO1b1vth+6OrsN3nMmfg6jz3hOf2eocRZBvV8T1znR8dJR7ivdr/SJuNs9HyH1pdUA+PA9+VAO7R+sKW5ruS0S0t3XROMtmNHd6wl26g9Hc26a/cZvw9d4lqN8yEhLWw/CxLSMwsvgm6bWYyr79cLLxTu4tFe+O2FrwqszE/tw8W7DPb9TxHHgsQ0/nil8tzCn2q2LljdC6i/8JXaP2F+VF6g/GvCxcfXuWyL6rOrn6T6+vubllIvSd/h2ji+HVw9swOBCb7vW/Xzr4/VL68fBoOHwdcPMs6yuKDNfKZvBzNWw/6YCoDcftPt0NSv+6TOaP3U48VbaVznjs/k+e4DbsPeZDafW+7nn3KZqz3deVbnasZI/drEeubekz3OFufbs3vDXtav7r/h9VrXLjkSx3X2unuM6y3zqDuPlOM6ywzz3e13juuK74PyGO7/fbxhj9Ns73+ecj5UNP2gbM+u2P7z55U8b9v8D5Tac2pZ9tzG5k7cGGnGgPx6Gj/WUue773ftOp8yH0La/ZzFx9lM82FSuEZ0t3U/X1grXP3seYZzYOK6om6XDreexscBmf0+aaP2dO+pP8+3r/mM+r3Suiudb8m1a38+A8NISAvbz4KE9Mz8zYBPAlb/Lhf3aqFvFmT7k8X2ol8Hb+KFoNT97EyTF2QflLReb4KYoQu0/6lp9zzDn6aKdfAXqKkAIdVSn9uhrV9MP4ivj9ZLCEScPY6z0ddVfFBoglFdwCPNUYmvnwnMpNfrwHju+bDSuNb2n7Z+9X5jAX15I9kdv7rj6dczK3+cLW94LfCv99eC3HbJkDiutePsKOugtn71fqedR5pxnSt/vtt2OMt1xbeH6QPXH2a/1txx7+l8nnY+WOn9oG3Prtj+y+6HzYR9Kr1eavWv3fZYmN/1Guv+nUc33+tzGOovoS7S68n9lNm/S4+zuebDNNdv4Tiozqmct9UPW7rbw2O6sVjiftPbpj2t9HVXbA+/LWJ8AyES0sL2syAhPTN3EfeLfXXRNwFUtd1fKKTAqrlQTJEvFIn8BWEs6BQCkvGLlSNdgEo+ABq8iPUunjPp9MlSmvrJr4v1S+iH/ucOB+i+n/r77Heczdo//rjqz526+XEy6qcaL6E1xvUs9UuZ7358BkF1JE175qxnrdfGjrsDvm3aT7MMy26XHInjWjePjrMOMo+GpY7rbMrzbJzsutL5rOrYZV/Yc3BjTzpeRv0qfv+h17tyj1eL7L9S0w8D7Sy1yx74thpZ1/vxZbCe1vvFt1Ws9Pk+wzqfMh9C2v0qC4+z2eZDDFeX4FpUnXN5bPtDjM72IEmZc13ZbP7N1m5DtmnP1msp9XPt4Y/pn6wmGQ0NEtLC9rMgIT2z1sXIBkPVQlwt5G4Bli6E9SI9bY4LaMyFqR909i9wIvGC1r+IdknHm0PUOWfT1S++H+Tzt3XrHtMF4VJAsdtxNnP/dIKgdCNtGNDXL38+rDGuV6/fWDA8Snc8/XrmZI+ztZhfUbX1t14P/DEnK7tdMqSNa+U4O8w6yDwalzaus3FdaXPt4T+r+uzq6bnm3KXj6evnJPZD9vFqcf03Rz9sJqJt+23l6xtui22rFInz3dUlxlB9065HDe1+1rLjbL75EKN7jrZu5tj2GO3tYZ3115Xt5l9ev8fYoj0dxfUvbGf//5UZf1CF6yAhLWw/CxLSMwsC9NbFoVrk7YXAbm9fFMJFu/V5C5m+MEkX9OmLfEW8aLmL48hFaJkLeeQ5Z9PVT9cPDWncjH3mMcZZvuyxFMxj8XVHX7/c+bDOuF69foqA19IcL7INR85pun125ra8offfHVwxN/TdeuW3i17quNaNs+Osg8yjKFHjOl/2ebo2OMt1pRfLuvqFx5eOp6+fldoPucerRfZffj9sJ+a8ev0u8GvsvNcHJ3K+56/zafOhod3PWXiczTYfItnj2c+yfeI+t6pn+P9hndPmZHucbTX/5m23Ieu3p6VpM7/PQ3Xs8nNfPnFPcufMS1wVCWlh+1mQkJ5XE6i5C6L/KaP7qaNZgKsFunOhXDR4E0xfWKQLeswFzb+nc7FxFznxp66VpS7knX5YythPlSty/XT9EOgGD+48hsbRMcZZrvyx1Mxj+XVvsn5+XHTrpxwvjXXGtbr/tPN9JBgepWrPmHHi3yMFzzH775i5RlXn3+3f3HbJkTiulfPoMOsg8yjd4LjOlX+e57quCJ9VHv/Fy/viad3H7j2d88yLC9L7Qd2eHbH9p563m4s7L79+Dq/9rv/WqN/IfM9f51PmQ0i7n7X0OJtrPsSyxzPn4M7Hn291/uY83PbW8WLGon/Pte43V2/P1mspbebXAauZh277TOML10FCWth+FtdKSJeLoFtsl7oRtYFEuWDXFwb/ml2AX9wNXLD8BXRkgb65ezTb4m0vaEMBpfm1OPt69zzH92sCwG49ogPYuS9Qkzdo89DWT9sPjXA8RQQMBxlnefLHkj2v6cDLn7+4npQ3Sj6469Yvez6sNK61/aeun6/XWNuX7dptk2XmX/O5cj/kjrNyvrpfPx78w0LZynMsP3vw/Nx60K1/XrtkSBzX6nF2kHWQeTREN67bys9Iigc159lm2+ks15WY9nDv6Xyedj5Y6f2gbc+u2P7L7odK+Z6k8TmHyLb16+dAe422t0p5XuWxBs9paL7nrvPaOEu7n7P0OJtrPsSq61P1R3Bf7P99Z9urez7+PIfqN3RdmWf+KWT2e6y129NStFkdh4S5EGu6j7zyuKuvg9grEtLC9rO4UkLaL8bDC24+u8jel8FT9xh2MX94aX/NrL8Iu8XenVv4F6FvTIDgEhfTi3ec+sJjLmrhscoLmV/8jd4FwAd45QWm9ccignOULj627fvba+5zZ7/ghBfE4Hxtm5btHL43g7Z+6n6ouSS0GWvuGONj5CDjLEd2UNg8JRCe183dk1YdKvV8MO81r5c3N64d7bizuu2ZPR9WGtfa/tPXr2n7d1+ZYwavm1/T9QncuY5X91/aembfkzfOmradOPcM9TFe2fq1rnllHX0f9uZ7TrvkSBzX+nF2jHWQeSRTj+uAravTitUGcF1pzz/33sHPMgbeo50PFU0/KNuzLb7/svuhlDw+5xDdts36adqzPjfTpvW6M9856+d75jqfMh9C2v0qK4yzWeZDPHuewn1xdR5ln1b9UK4FwT7N62bftOvKHPNPJavf463dnvY9+nVXbmc3NyfWiU3WQewWCWlh+1lcJyEd3KAZ6puKceHi2b6Yh8cXLhRGfbGQVX9ZWtpPJQjUuswNbBUAyhem1gWiR9rH132g3iUfcM4VADU6/d4xz/Fy6qfvB88HX9V3dMVcsA8yztRGg6A4zQ1zmzRehubDgwlAxfrNMR/WGNeGpv8y61cH9TLTru3xmXe89PXMyRxn7TE28xwIDI3l2sB8V7dLlpRxnTnOdr8OMo/GaMe11Rln5Xvl9wW4rrT3c+0x/Fljx8uIC5T9kN6efXH9t0A/xIzPZON9HRLbemz9NH3YfX+mobavDc33sfMsja/zCfNhlv2sNcbZHPMhVnis1rmEfTMwxtOvK3ntkiev32Ot256OYt2damf/+vBndtpzkXUQR0JCWth+FtdJSJfKBbW6QTPB0kwX2q56se8lBoOFdWxRvS0D9Vd2kfaqAGGJ8239VLQUPH1gLxQjF3TTluGFwuwbPinR4m4+RpKltt3mC4DayrYP61l6mHUMZNYvox8qdRCS0H4HGWcaU0FQnOYpQmtsfJv58Lx6KuHB1K1qRxNgDQXGc82Hpce1k9x/c9TPtn8roVbWLXzqpJF/vLT1zMoeZ62E4bxzoMf1Ydie1Vh1/SjuU9K0S77YcT3DONv1Osg8mqQc1xVzrtU5xq2ZXFfa77PtMf5Zo8dLng9WTj+ktackpv9m6ofE8ZnOnWeEwbYur2HhE+2LXx+08z1rndfGWdr9jHXGWf58iGPPQ/jMcoz7Oo7NZ+4329ZtT0uz7k63s1+DRsba4usgjoSEtLD9LC6VkAaA1UwHxrg6d/PHGAEQhevKvGhPoMF8ALBPJKSF7WdBQhoA5uefKMj5FW+cnHuiRfO0H4Dr4boyL9oTaDAfAOwVCWlh+1mQkAYAheorF4RfdWv9KvLIr6Lh2vxXdvC9eAA8rivzoj2BBvMBwEGRkBa2nwUJaQBQ8AnFQUt9Rx2O7VHx+Jn9XjzzB5Xk9wC4JK4r86I9gQbzAcBBkZAWtp8FCWkA0JL+aNj0HwjBdVXjhT/QAmAQ15V50Z5Ag/kA4HhISAvbz4KENAAAAAAAAIA9ISEtbD8LEtIAAAAAAAAA9oSEtLD9LEhIAwAAAAAAANiTSyekAQAAAAAAAADrISENAAAAAAAAAFgFCWkAAAAAAAAAwCpISAMAAAAAAAAAVkFCGgAAAAAAAACwChLSAAAAAAAAAIBVkJAGAAAAAAAAAKyChDQAAAAAAAAAYBUkpAEAAAAAAAAAqyAhDQAAAAAAAABYBQlpAAAAAAAAAMAqSEgDAAAAAAAAAFZBQhoAAAAAAAAAsAoS0gAAAAAAAACAVZCQBgAAAAAAAACsgoQ0AAAAAAAAAGAVJKQBAAAAAAAAAKsgIQ0AAAAAAAAAWAUJaQAAAAAAAADAKkhIAwAAAAAAAABWQUIaAAAAAAAAALAKEtIAAAAAAAAAgFWQkAYAAAAAAAAArIKENAAAAAAAAABgFSSkAQAAAAAAAACrICENAAAAAAAAAFgFCWkAAAAAAAAAwCpISAMAAAAAAAAAVkFCGgAAAAAAAACwChLSAAAAAAAAAIBVkJAGAAAAAAAAAKyChDQAAAAAAAAAYBUkpAEAAAAAAAAAqyAhDQAAAAAAAABYBQlpAAAAAAAAAMAqSEgDAAAAAAAAAFZBQhoAAAAAAAAAsIqLJaSfFC/ee79499Xz4kZ8HQAAAAAAAACwlEslpG+evS7efe918fRWfh0AAAAAAAAAsJzrJKRvnxcP5unol0/k1wEAAAAAAAAAizpGQvruvnh4mfc1G49fvl+8+9598Vh4DQCANX3pp74MAIAW6XoBAABwRodISFfJ5Jwnm+/ui3ffe794ePZIfh0AViLdgAIAAGA7UswGAACWc4CE9KPi6aucZLLdnz9kCGAp0o0NAAAAjkuK+QAAwDz2l5C+fV68ePm8eOz/8KD77ucXd/49j4rHz+6Lp3eRCWr3dHSzPwDkkW5aAAAAcE5SPAgAAPT2mZA2TzSbP0D43uvy/1/br9t4eV88+O2v7ounPmE96knxono/T0cDyCPdnAAAAOBapDgRAACk2elXdjwqHr+0iei218WLZ0+ik8s3z8xnvI5MXgNAm3QTAgAAAEixIwAAiLPr75C+cV+3UXn5vLhJSSy7r/rI+mOIAC5LuvEAANmngEzSuAJwBFIcCQAAxu04Ie2/buO1/aqOxK/dePzSJLLvi8fCawAwRLrRwFFISR4c1Zd8KYA9kuYrjky6niKVFFMCAIBhu/3KjqdVEtollFP/MKF7/8OzyD98CODypJsLHelm73qkJAYAADgH6dp/XFI8pyPFmAAAoG+XCenq6WafjG5ti3lK2iez+UOGAOJINxRpmpsa6aYNAAAA+xXGcnKsF0+KNQEAQNv+EtLmu587yWjLfIXH9B8otH/IMOFpagCXJd1ETGtuWKQbGuCMPvklXwoAm5HWJWANOQlqKfYEAADWrv+oIQB0SQF/V/dmIryp/amf/JLaOz/1k5VPvPNTK29/4p3i7bc/UbxVebv4+FtvF29+/K3Sx8vPJRGdImxzAABwLtK1/6yaGFCOO8dIsSwAACAhDeBgpGC/q3sjEd5AaRPS3c8cEx4PAAAA+yXFckM0iWkpngUA4OpISAM4FCnQ7+rePIQ3HUslpMNjAJPK8YdlhHMcODtpDmAm0tqN05NiPElqYlqKaQEAuDIS0gAORQryu7o3DeGNRngjn5uQDj/3tPyN+QGEfQsAAKZJ19PFSfHGDkmxXyj1qzykuBYAgKsiIQ3gUKQAv6t7wxDeXIQ3YdqEdPh5In/DNbPw3HF0n7wEP8cAnIc0189JWruxJSk2moUUywXCGFCSkpiWYlsAAK6IhDSAQ5GC+67ujUJ4UxHe2Pib69iEdPg5LcFnwpNu7pcVJkwAALgK6Zq4POnaf2xjCepubNkVm5SWYlsAAK6IhDSAQ5GC+67uTUJ4QxHeePgbuZiEdPgZteCz2qQbt3zhzSdwCOW8ArBT0pwFdkyKjeJJ8dowTWI65UnpkBTvAgBwdiSkARyKFMi39W8Q6huJzs2Gv8GREtImGf3xt0wyuvRmJyHd+Ryrf+MEpTBhksD3I7C+dzBKajMAc5GuiYuTrt8HNpS0Tk1Mk5QGACAOCWkAhyIF8W39m4P6BqJzk+FvQvwN3WRCurO/1b+pGRXezCUKbz6xF1LybWHlOD2Kak4B2CVpzu6WtBYuTlrzsSUpNoomxWQDpOR0SmKapDQAANNISAM4FCmAb+vfGNQ3Dp2bC3/j4W90qpv0oYR0Z18xEe0+51ykm/SFdRMRkbrJFhzdJ46jXDOwEKm9MRNp3mFL0rVtcdJ1OIoUMxyXlLTuJqaHktJGN/YkKQ0AwDgS0gAORQre29o3BEZ9wxDcVBj+hsPfjFQ3hG/LCWlpv5rbP450UxepexO5gu7N8jlJiZqFhQm3ldjvRgeA7Uhr0+KkNXhR0nUGISneiCLFRtGkmKxPm5juxp4GCWkAAIaNJqQBYG+k4L2tf0NQ3zAENxOGv9HwNyHVjVJ582pumqWEdHhzUnH7We6Gx3zGqUg32xHCZECibgIDXW+vr5wPV2DnPbA+aTzulrRGLE5aC+FJ19Jo0jU8ihQzHFOT7G7iuqnENElpAADykJAGcChS4N7WvxmobxbcTYTnbzD8zUd1Y1LenJmbO5skaBLS4Q1JuE96Ilq6qYsU3kAm6N647p+UjIjQTZpE6iaGsBdvHUe5TmBnpH5ChzTv4EnXi8VJ17Yo0rV0v6RYJYoUG83CxmhiYroT//Welg4S0kY3BjVSk9JS/AsAwNmQkAZwKFLg3ta/EahvFIIbCMPfXPibjuqGpLzhMTdL9oZUSEgHNyn9RHR5U+P23xfp5jVS92Y5UvfGft+kRE2kbhJsBdWYxIiPAxcizQGEpHU0irTmR5GuM+cjxgzRpFhlW2OJ6e7T0qlJaZ6SBgCgj4Q0gEORgva29k2AUd8kBDcPhr+x8DccUwlp/z7/VHSdiA5uaCzp5ssxN3FK3ZvBVXRv0CN1EwLnJSWIIpRj6go+BgABaZ1YnLQGR5HW/PORruFReon4FEK8EUGKjaJJMVmtieHsk9guMd19WtoYSkobI0lpQ45bZVIMDADAmZCQBnAoUtDe1r8BmCMh3dyQlDcnPhH9ieYGxurfPPVJN2aRujeDkbo3n+uQbu4jdZMJkaTkB+by5nF87Fg+ikVIbX1K0hxYnLRGYA7StS2KdC2NJl3DlyXFKlGk2CiaFJM1bNK6ien8E9P+aek68TySdI55ElqKbZdwtPMFAFwPCWkAhyIFy23tYNuog3EXnHvpCWmfiLbvM5/5VV/91cWnP/21xdd/wzcUN7e3xc3Ncj5zc4MxnzmSz6zuGwBgY9LatDxpDd4p6dqGmhQbzaaM4Uws9zWf/nTxM77qq6sYL3xa+mgJ3qOdLwDgekhIAzgUKVhuawfbRh2Mu+DcS0tIt5PRX/mVP6O6uf7yr/zq4u0v+Yrii9/6kuILP/pOok840msAMIOPLOGn4hI+iSxlXADnSw/hiz/+5WVM95XFl//0n1klwL/yZ3xVnZQ+WoL3aOcLALgeEtIADkUKltvawbZRB+MuOPdSEtI+GW1e+1lf8+niZ37N1xUffru8gZESQFF8MpqENICFiUnlXFICE+cgJVeRRkrKXlU/8XsEH37ry8tY72cXX/t1X0dCGgCABZCQBnAoUrAc6gbbYSAeJqR9Mtr8gZoqIe0Szq2EtElGl8z3OvrvizZPRptktJj0iU4uh8loEtIAViAmlXNIiUycg5RgRTwpKXtVcrL3SExS2jwpfbQE79HOFwBwPSSkARyKFCyHusF2GIjnJKTNNrO/+ZoO+cno2ARz+L6Y9wPATMTEcg4pmYljkxKsiCclZa+sn+A9GvOktPl+76MleI92vgCA6yEhDeBQpGA51A22w0A8NyFt/oCh+c7ofhJZk2BOeS8AzEBMKueQEpo4NinJijhSQvbK5ATvEZnvlK4TvMYBErxHO18AwPWQkAZwKFKwHOoG2z4Ir7jg3EhOSJf//vSnv7b6A4btJE+YiA6F7wGAHRCTyrmkpCaOS0q0YpqUkL06Obl7ROYPHR4twXu08wUAXA8JaQCHIgXLoW6w7YPwigvOjdSEtPn313/DNxRf/FZ5k1UneKREtOffAwA7ICaT5yAlNXFcUrIV47qJWEhJ3SP74o8fL8F7tPMFAFwPCWkAhyIFy6FusO2D8IoLzo30hPRbxc3NbSfJ009Ef+JTP7340p/2VaWvTvKJT31luX/42QCQySSMu//OYhKW0jach5RwxTApGXt1clL36I6W4D3a+QIArucNaSMAbEEKhLu6wbQPsg0ffBs+4Vwlm0thsvmtt9+uEs4m2fzmxz8elZA2//3MzU07uSMkpH/v73+/+C/+y7886i/8xf+q8of/yJ8s/tB/Yv0Hv+8PFj/pw2+VnxF+PgDMrJdQ1pASmTgHKemKPikRCymRexZHS/Ae7XwBANdDQhrAbkiBcFc3mPZBtuGDb2ObhPQ7xR/57u8p/v4/+IfJvvt7/mTxBV/8ZvUZALAYMcGcQkpi4jyk5CvapETscX3H7/49xY/8yI8UQ8W8Zt4j7dsmJ3KX8te/93uLX/iLf5n4mmFe+96/9tfE1zSOluA92vkCAK6HhDSA3ZAC4a5uMO2DbMMH38a6Celm2x/9nj9R/D//u/9Xcf8d31P8un/njxXf9p1/tPj1//53F7/hP/wjxX/9X//V4gd/4PuL//5v/I3KD3z/9xe/8w/9+UqTkG5/nuQHf+iHqsS39FoK8zn/4i+6E19bijnmX/i//5fia3/te/96RXpNy5Tf9Z3/vvja2kzdfs2vfSm+Nsa0lym+z00bmqL5LFyISR5L241ekjmFlMTEeUgJWDSkROyxmYTzz7395uITX/YzRT/r5/y86j3Svm1yIncpJuH8N//m3xST0mOvaR0twXu08wUAXA8JaQC7IQXCXd1g2gfZhg++jeUT0j4Z3U4g/7Hv+RPFf/tX/t/F//o3/eHif/Nb3i/+5X/7DxZPv+P3F8/+3d9b/MW/+FeKH/j+/6H4G3/jr1d8Qvo7vuvPRiekTQLZJDZNUlJ6PcVWCWlTusc1/zZl7oT0nmgS0qZdwr42yfWhhP6UnH1xMmKiWWISlNI2nJOUgEWblIg9NlNM4ll6zTNF2t6Qk7hLkxLPSySjjaMleI92vgCA6yEhDWA3pEC4qxtM+yDb8MG3sWxCOkxGe2b7O8V/+kf/eJWQ/le/848U/9tXv7+4+62/u/glD7+j+CW/47dVCekf/L52Qvrf/VN/uvgP//z3uIT0x+vPGWKekjWJRe3TtqGtEtImKdp9wtv822wnId1m3h+2iWmnbtvFIiGNSi/BrCElM3FcUuIVbVIS9hxMOWpC2ggT0Eslo42jJXiPdr4AgOshIQ1gN6RAuKsbTPsg2/DBt7FcQlpKRhvvVP6IS0h/67d9R/HP3//W4hu//duLb374DcW3/s771hPS/is7/sBf+q7iD/03fzg6Ie2TyN3kok9cmm2+hMnmcLvfz3yW+RxfwkRnuN0Un0j1T+z6z+t+tvkM8x5T/GeFzL7ms8x/w+2mdJOvYfHnLB3f7OeL2T9M/Jr3+nYw/z9UX/OaL37fUFhHU8Lt4WeG5+/bwZTueXWZ13zxbRPWy5T/5r/979z/2dLdz5yH2RYe1xTzb6k/w8/3x8SJiYllLSmpiWOSkq9okxKw52FKXkJaTuCuySeil0pGG0dL8B7tfAEA10NCGsBuSIFwVzeY9kG24YNvQ5eQdq+bZLRPSL/58aSEtH9C+uf9+n+r+Bf+rd9U/Iv/9rcVv/D1v1H84u98YRPS3/c/tL5D+r/6//zlSkxC2iQQw4RndYMYvGaKT0qaZKtP4pr/+v8PmSSk/zyfxDT/7z/Lv8+/Zv7r/98fp3tO4fvDbZ45pnnd7GP2NdvMZ5nzlT7L8/t1j2+Y4j/Ln7v/t9/P/79UX3PsMDk9JXy/T1T718wx/LFNGTqvULd/zGf78zTvD9skPLZpA6lfTfH/79va/H/3/WHb4OTEpHIuKbmJ45ESsGhICdhhsUXadyum6BPScvJ2bSSk+452vgCA6yEhDWA3pEC4rR1IGz7INgG3D76NsYR0lWx+yz79bBLOUQnp0mc+E5+Q/gW/9TcU3/I7fl3xP/9dL4tf8u/9H4pf+u6/Gjwh3SSk/+E/+PuVmIS0SSaGidjw393EZfjvocRjd7v/d5j09PyxzOvmfeFrpkiJUYk/hnR+UvI1LOY93eN39zHMv8128//+s7v/H/7bvNeUsG27zPvC4ttnqE+mzivUPS/DFPPf7ueEfePPKewrX5duMa+Z8wr7yfy/fw0nJyaUJSZBKW2XdBObOCYpCYuGlIQ9F1OOnJD2yWjz3/D/pffmOFqC92jnCwC4HhLSAHZDCoTb2oG04YPsvSWkv/X/9G8Wv+h3/x+Lf+n3/OvF/+L3/e+LX/4H/3dVQvr7v+//G3xlx/cVf+fv/O3ib/3QD0UlpKXik5XdxGX4bynhKW33/w6Tnp5JXprPNK+b94WvGSbZaUp3v67wmOb/zX5SHcznhMlTv1/3+Gaf8H2G+Qyz3fx/93j+/6V/+wSt39cz7zHF/ztsH7PPUEJ67LxC3fPw28x/zft9mxjhscNtpvjjhu8Pmde752SY4o+HkxITyjmkxCaOR0rAok1Kwp6LKekJaTlpuzYpAb1UUjomwWvI8WtDin+XcLTzBQBcDwlpALshBcJt/UDaB9nbJKTf6flP/9gfL/7SX/6rxbf9n39f8ev/0LvFb/yPfk/x7f+Xf6/4zd/1ncWf+3N/qUpI+6/s+P7v+77ih3/4bxU/8AM/MJmQDhO3IVNMMrObiAz/bZKQUiJyKEFr9jXFbw8Tsub/h5KX/pjh+7vCY/pEqtnP/Ds85zDx6s/H7Nc9vj+W/0z/Xv+Z4fHC/5f+bYTH9cx7wmOa//fv8Qlo/5r/t9nHFP/53fMKdfvHfLb/t3l/2K/S+RlhsnnoON3PCkltgRMRk8paUmITxyMlX9EWJmDP60d+5EeKn/Vzfp74mvHTfubXV+9ptskJ27WNJZ6XSEofLcF7tPMFAFwPCWkAuyEFwm39QNoH2esmpN8Z9J989x8v/vE//kfFD/+tHyz+tvN3/vYPl/5W8bd/+AeLv/c//t3iH/z9v1f83b/7d6pk9A/90A9WphLSJpEYJj49k4Q0CcpusrH7b/P/vvjE5ViC1hwrLH67+W+YnDXHCYt53TDFvyckHdP/f3jO/jNMMdv8fka4jxGeq3mvYT7LvBYeTzq2+bdpP1+6n+11288nhc3/h/0S/nvsvLrCzzf/77d3+zFMSHf7KNwnLL6/DV/Me0xdffGfiZMSE8uppKQmjklKvqKtnZQ9s+/43b+nSjgPFfOaeY99v5ysXdsXffRTxff+tb82mnA2r/317/1e8TWNoyV4j3a+AIDrISENYDekQLitH0j7IHsvCelv+/bfUiWXh/yxP/Gniz/+p/5M8Uf/+J9qbf+Nv/m3FT9p4is7EKebeAYuS0wsa0mJTRyPlHxFXz9xC0NO1m7BJKWl7Us5WoL3aOcLALgeEtIAdkMKhNv6gbQPstdLSL8z4hPFhz7ydpVYNk87pzD7fOgj48luTDNP+g495QxcjphY1pASmzgeKfF6ZSbBOrT96uSk7JUdLcF7tPMFAFwPCWkAuyEFwm39QNoH2dsnpP33So8lladeh0b41ROmSO8BLklMLqeSEps4HinxemVh8nXstSuSE7JXd7QE79HOFwBwPSSkAeyGFAi39QNpH2Rvm5AOk9FjCeep1wFgRmKCOZaU1MQxdROuVyclYcdeuxI5GQsS0gAAzI2ENIDdkALhtn4g7YPs7RLSYSI61H1f+F7pNQCYmZhojiUlNnE8YSIWchLWmHr9KuRk7DWZ76huHC3Be7TzBQBcDwlpALshBcJt/UDaB9n7Skh33wMAGxATzbG6iU1pG/YtTMTCkpKwsKSk7JWRkDakzwYAYA4kpAHshhQIt/UDaR9kL52Q/uzP+dHFT/vpXyknfUhIA9ijXpI5RZjYHNqO/ZKSsVcnJWFhSQnZqyMhbUifDQDAHEhIA9gNKRBu6wfSPsjOTUhXr7cS0s3rH3vzzZEnpAFgp1qJ5FQ+sTm0HfslJWOvLky+Dm2/KikZO/baFbST0SSkAQCYHwlpALshBcKhbhDtA+yKC7wNn4x+xyWj7dPPnYS0STaXzNPPMQlp8z4S0gB2zSSMu//OYpKb0jbsV5hshRUmX42x165GSsYaY6+dST/xPORoCd6jnS8A4HpISAPYDSkQDnWDaB9gV1zgbZCQBgCnl1DWkpKf2E6YVMWwbgIWDSlBezVy8lkiJXiNbmxqfptPimE9Kf5dwtHOFwBwPSSkAeyGFAiHukF0GGCTkAYAgZhcTiUlRLEdKfGKPikJC0tKzl6RnHyWHC3Be7TzBQBcDwlpALshBcKhbhAdBthrJaQpFAqFQqFQKNcqR0vwHu18AQDXQ0IawG5IgXCoG0SHATYJaQqFQqFQKBTKEuVoCd6jnS8A4HpISAPYDSkQDnWD6DDAJiFNoVAoFAqFQlmiHC3Be7TzBQBcDwlpALshBcKhbhAdBtgkpCkUCoVCoVAoS5SjJXiPdr4AgOshIQ1gN6RAONQNosMAm4Q0hUKhUCgUCmWJcrQE79HOFwBwPSSkAeyGFAiHukF0GGCTkKZQKBQKhUKhLFGOluA92vkCAK6HhDSA3ZAC4VA3iA4DbBLSFAqFQqFQKJQlytESvEc7XwDA9ZCQBrAbUiAc6gbRYYCdl5AWXncJafP6xz5GQppCoVAoFArlquVoCd6jnS8A4HpISAPYDSkQDnWD6DDAXj4h/Wbxmc98xt2WUCgUCoVCoVCuUo6W4D3a+QIAroeENIDdkALhRjuANsIA2wfehk9IV8noOiFtk8326zhcQtokm0lIUygUCoVCoVBGytESvEc7XwDA9ZCQBrAbUiDcaAfQRhhg+8DbICFNoVAoFAqFQpmrhHFmGH92Y1NDjmMtKf5dwtHOFwBwPSSkAeyGFAg3+gF0GGCHgTcJaQqFQqFQKBTKXCWMM8P4sxubGnIca0nx7xKOdr4AgOshIQ1gN6RAuNEPoMMAOwy8SUhTKBQKhUKhUOYqYZwZxp/d2NSQ41hLin+XcLTzBQBcDwlpALshBcKNfgAdBthh4E1CmkKhUCgUCoUyVwnjzDD+7MamhhzHWlL8u4SjnS8A4HpISAPYDSkQbvQD6DDADgNvEtIUCoVCoVAolLlKGGeG8Wc3NjXkONaS4t8lHO18AQDXQ0IawG5IgXCjH0CHAXYYeJOQplAoFAqFQqHMVcI4M4w/u7GpIcexlhT/LuFo5wsAuB4S0gB2QwqEG/0AOgyww8CbhDSFQqFQKBQKZa4Sxplh/NmNTQ05jrWk+HcJRztfAMD1kJAGsBtSINzoB9BhgB0G3iSkKRQKhUKhUChzlTDODOPPbmxqyHGsJcW/Szja+QIAroeENIDdkALhRj+ADgPsMPAmIU2hUCgUCoVCmauEcWYYf3ZjU0OOYy0p/l3C0c4XAHA9JKQB7IYUCDf6AXQYYIeBd3JCunq9k5A2r3/cvv7Rj71ZfPlX/LTiG7/xm9xtCYVCoVAoFArlKiWMM8P4sxubGnIca0nx7xKOdr4AgOshIQ1gN6RAuNEPoMMAOwy8l0hIf+hDHyq+9uu+zt2WUCgUCoVCoVCuUsI4M4w/u7GpIcexlhT/LuFo5wsAuB4S0gB2QwqEG/0AOgyww8C7m5Cuks2thLT9Og6bkH4zKiH9Td/0LxR3v/SXutsSCoVCoVAoFMpViokr6wSvEcSg3fjUxKxyLLtegvdo5wsAuB4S0gB2QwqEG+3g2QiDax90G0skpL/uZ//s4lt/4S90tyUUCoVCoVAolKsUEtIAAMyLhDSA3ZAC4UY7eDbC4NoH3QYJaQqFQqFQKBTKXIWENAAA8yIhDWA3pEC40Q6ejTC49kG3QUKaQqFQKBQKhTJXISENAMC8SEgD2A0pEG60g2cjDK590G2QkKZQKBQKhUKhzFVISAMAMC8S0gB2QwqEG+3g2QiDax90GySkKRQKhUKhUChzFRLSAADMi4Q0gN2QAuFGO3g2wuDaB90GCWkKhUKhUCgUylyFhDQAAPMiIQ1gN6RAuNEOno0wuPZBt0FCmkKhUCgUCoUyVyEhDQDAvEhIA9gNKRButINnIwyufdBtLJKQ/rqfXXzrt5KQplAoFAqFQrlaISENAMC8SEgD2A0pEG60g2cjDK590G0skZD+WhLSFAqFQqFQKJcsJKQBAJgXCWkAuyEFwo128GyEwbUPuo3UhLR9/Z3g9beD10lIUygUCoVCoVy5kJAGAGBeJKQB7IYUCFs2WO4G0HVw7QJuyyajm4S08PSzS0ibZPPHPhaXkP70134dCWkKhUKhUCiUCxYS0gAAzIuENIDdkAJhi4Q0hUKhUCgUCmWbQkIaAIB5kZAGsBtSIGyRkKZQKBQKhUKhbFNISAMAMC8S0gB2QwqErT0kpJ8Uv/rbfq27LaFQKBQKhUKhXKWQkAYAYF4kpAHshhQIW3tJSH+buy2hUCgUCoVCoVylkJAGAGBeJKQB7IYUCFt7SUjzhDSFQqFQKBTK1QoJaQAA5kVCGsBuSIGwRUKaQqFQKBQKhbJNISENAMC8SEgD2A0pELZ2kJD+NAlpCoVCoVAolCsWEtIAAMyLhDSA3ZACYYuENIVCoVAoFAplm0JCGgCAeZGQBrAbUiBs7SEh/bXFt3zrt7rbEgqFQqFQKBTKVQoJaQAA5kVCGsBuSIGwRUKaQqFQKBQKhbJNISENAMC8SEgD2A0pELbWSEgPvP7mm8VHP/YxEtIUCoVCoVAoFy0kpAEAmBcJaQC7IQXCVj8hHQbWYkK6SkaX3NPPrYS0efr5483TzzEJ6a8xCelvISFNoVAoFAqFcrVCQhoAgHmRkAawG1IgbJGQplAoFAqFQqFsU8IEb5XkDeLQMD41xhK8hhQDz+1o5wsAuB4S0gB2QwqCLRLSFAqFQqFQKJRtCglpAADmRUIawG5IQbBFQppCoVAoFAqFsk0hIQ0AwLxISAPYDSkItvaQkP508S3f8i3utoRCoVAoFAqFcpVCQhoAgHmRkAawG1IQbO0gIf01JKQpFAqFQqFQrlhISAMAMC8S0gB2QwqCLRLSFAqFQqFQKJRtCglpAADmRUIawG5IQbBFQppCoVAoFAqFsk0hIQ0AwLxISAPYDSkItrZPSH/0ox8rvuEbPuNuSygUCoVCoVAoVykkpAEAmBcJaQC7IQXBFglpCoVCoVAoFMo2hYQ0AADzIiENYDekINhaOSHdeZ2ENIVCoVAoFMp1CwlpAADmRUIawG5IQbBFQppCoVAoFAqFsk0hIQ0AwLxISAPYDSkIttqBsxEG1mHAXSWjg4S0TTa/UyWb36q+juPt6us43qy+joOENIVCoVAoFAplvJCQBgBgXiSkAeyGFARb7cDZCAPrMOAmIU2hUCgUCoVCmbPYBG+T5A3j0G6MahO8w0leKQae29HOFwBwPSSkAeyGFARb7cDZCANrH2wbJKQpFAqFQqFQKHMWEtIAAMyLhDSA3ZCCYKsdOBthYO2DbYOENIVCoVAoFAplzkJCGgCAeZGQBrAbUhBstQNnIwysfbBtkJCmUCgUCoVCocxZSEgDADAvEtIAdkMKgq124GyEgbUPtg0S0hQKhUKhUCiUOQsJaQAA5kVCGsBuSEGw1Q6cjTCw9sG2QUKaQqFQKBQKhTJnISENAMC8SEgD2A0pCLbagbMRBtY+2DZISFMoFAqFQqFQ5iwkpAEAmBcJaQC7IQXBVjtwNsLA2gfbxqIJ6W/+pe62hEKhUCgUCoVylUJCGgCAeZGQBrAbUhBstQNnIwysfbBtkJCmUCgUCoVCocxZSEgDADAvEtIAdkMKgq124GyEgbUPtg11Qtq8PpSQ/qhNSP+cX/S/dLclFAqFQqFQKJSrFBLSAADMi4Q0gN2QgmCrHTgbYWDtg21jqYT0Rz760eJr736luy2hUCgUCoVCoVylkJAGAGBeJKQB7IYUBFvtwNkIA2sfbJvA2yekTTL6E+/YZHTr6zjeMsnmt6pk88fetF/HEZOQfuOX/bLiy34lCWkKhUKhUCiUq5VegnckybvLhPTOzxcAcD0kpAHshhQEW03Q7IVBtQ+2SUhTKBQKhUKhUOYuJKQBAJgXCWkAuyEFwVYTNHthUO2DbRLSFAqFQqFQKJS5CwlpAADmRUIawG5IQbDVBM1eGFT7YHvJhPRHPvqp4mf9chLSFAqFQqFQKFcrJKQBAJgXCWkAuyEFwVYTNHthUO2DbRLSFAqFQqFQKJS5CwlpAADmRUIawG5IQbDVBM1eGFT7YJuENIVCoVAoFApl7kJCGgCAeZGQBrAbUhBsNUGzFwbVPtgmIU2hUCgUCoVCmbuQkAYAYF4kpAHshhQEW03Q7IVBtQ+2SUhTKBQKhUKhUOYuJKQBAJgXCWkAuyEFwVYTNHthUO2D7WUT0h8tvvaOhDSFQqFQKBTK1QoJaQAA5kVCGsBuSEGw1QTNXhhU+2B76YT013/znbstoVAoFAqFQqFcpZCQBgBgXiSkAeyGFARbTdDshUG1D7ZzEtLm9bfeNq+/Xb3+Zv36m8VHfEL6G36euy2hUCgUCoVCoVylkJAGAGBeJKQB7IIUAHth0OyFQbUPtqMS0t2nn2MT0h8xCelvcLclFAqFQqFQKJSrFBLSAADMi4Q0gF2QAmAvDJq9MKj2wTYJaQqFQqFQKBTK3MXHlzEJXmMswWtIsfCcjna+AIDrISENYBek4NfrBs1GGFT7YJuENIVCoVAoFApl7nK0BO/RzhcAcD0kpAHsghT8et2g2QiDah9sk5CmUCgUCoVCocxdjpbgPdr5AgCuh4Q0gF2Qgl+vGzQbYVDtg20S0hQKhUKhUCiUucvRErxHO18AwPWQkAawC1Lw63WDZiMMqn2wTUKaQqFQKBQKhTJ3OVqC92jnCwC4HhLSAHZBCn69btBshEG1D7ZJSFMoFAqFQqFQ5i5HS/Ae7XwBANdDQhrALkjBr9cNmo0wqPbBNglpCoVCoVAoFMrc5WgJ3qOdLwDgekhIA9gFKfj1ukGzEQbVPtgmIU2hUCgUCoVCmbscLcF7tPMFAFwPCWkAuyAFv143aDbCoNoH2ySkKRQKhUKhUChzl6MleI92vgCA6yEhDWAXpODX6wbNRhhU+2A7OyFtXg8T0tXrJKQpFAqFQqFQrlyOluA92vkCAK6HhDSAXZCCX68bNBthUO2DbRLSFAqFQqFQKJS5y9ESvEc7XwDA9ZCQBrALUvDrdYNmIwyqfbDtg2+jSkhXyehS9XUcAwnpj8YlpD9sEtJfT0KaQqFQKBQK5WrlaAneo50vAOB6SEgD2AUp+PW6QbMRBtU+2PbBt0FCmkKhUCgUCoUyR+kmeKskbxCLduPUvSWk936+AIDrISENYBek4NfrBs1GGFT7QNsH3wYJaQqFQqFQKBTKHOVoCd6jnS8A4HpISAPYBSn49bpBsxEG1T7Q9sG3QUKaQqFQKBQKhTJHOVqC92jnCwC4HhLSAHZBCn69btBshEG1D7R98G2QkKZQKBQKhUKhzFGOluA92vkCAK6HhDSAXZCCX68bNBthUO0DbR98GySkKRQKhUKhUChzlKMleI92vgCA6yEhDWAXpODX6wbNRhhU+0DbB98GCWnKpcsb2JPf+Rd+Gnbkn/vNBXaEQjlCOVqC92jnCwC4HhLSAHZBCn69btBshEG1D7R98G2QkKZcughJUWxHSopiO1JSFNuhUI5QjpbgPdr5AgCuh4Q0gF2Qgl+vGzQbYVDtA20ffBskpCmXLkJSFNuRkqLYjpQUxXYolCOUoyV4j3a+AIDrISENYBek4NfrBs1GGFT7QNsH3wYJacqli5AUxXakpCi2IyVFsR0K5QjlaAneo50vAOB6SEgD2AUp+PW6QbMRBtU+0PbBt5GWkA5ef8u8/lbz+sc+Vnzkox8lIU05VhGSotiOlBTFdqSkKLZDoRyhHC3Be7TzBQBcDwlpALsgBb9eN2g2wqDaB9o++DZISFMuXYSkKLYjJUWxHSkpiu1QKEcoR0vwHu18AQDXQ0IawC5Iwa/VDpiNMKD+ZBBo++D7HZOMDhLS1ddxvN35Oo43m6/jICFNOV0RkqLYjpQUxXakpCi2Q6EcoaQmeA05rrWkWHhORztfAMD1kJAGsAtS8Gv1A+YwoCYhTaEIRUiKYjtSUhTbkZKi2A6FcoRytATv0c4XAHA9JKQB7IIU/Fr9gDkMqElIUyhCEZKi2I6UFMV2pKQotkOhHKEcLcF7tPMFAFwPCWkAuyAFv1Y/YA4DahLSFIpQhKQotiMlRbEdKSmK7VAoRyhHS/Ae7XwBANdDQhrALkjBr9UPmMOAmoQ0hSIUISmK7UhJUWxHSopiOxTKEcrRErxHO18AwPWQkAawC1Lwa/UD5jCgJiFNoQhFSIpiO1JSFNuRkqLYDoVyhHK0BO/RzhcAcD0kpAHsghT8Wv2AOQyoSUhTKEIRkqLYjpQUxXakpCi2Q6EcoRwtwXu08wUAXA8JaQC7IAW/Vj9gDgNqEtIUilCEpCi2IyVFsR0pKYrtUChHKEdL8B7tfAEA10NCGsAuSMGv1Q+Yw4CahDSFIhQhKYrtSElRbEdKimI7FMoRytESvEc7XwDA9ZCQBrALUvBr9QPmMKAmIU2hCEVIimI7UlIU25GSotgOhXKEcrQE79HOFwBwPSSkAeyCFPxa/YA5DKhnSUhXr7uEdP26S0iXr5OQphyuCElRbEdKimI7UlIU26FQjlCOluA92vkCAK6HhDSAzUmBb6MfMIcBdRho++DbJ6RNMrpOSFdPPwcJ6erp54SE9Ic/Unz913+9uy2hUHZehKQotiMlRbEdKSmK7VAoRyhHS/Ae7XwBANdDQhrA5qTAt9EPmMOAOgy0ffBNQppy+SIkRbEdKSmK7UhJUWyHQjlCERO8hjLBa0gx8VyOdr4AgOshIQ1gc1LQ2+gHzD6YNsJA2wffJKQply9CUhTbkZKi2I6UFMV2KJQjlKMleI92vgCA6yEhDWBzUtDb6AfMPpg2wkDbB98kpCmXL0JSFNuRkqLYjpQUxXYolCOUoyV4j3a+AIDrISENYHNS0NvoB8w+mDbCQNsH3ySkKZcvQlIU25GSotiOlBTFdiiUI5SjJXiPdr4AgOshIQ1gc1LQ2+gHzD6YNsJA2wffJKQply9CUhTbkZKi2I6UFMV2KJQjlKMleI92vgCA6yEhDWBzUtDb6AfMPpg2wkDbB98kpCmXL0JSFNuRkqLYjpQUxXYolCOUoyV4j3a+AIDrISENYHNS0NvoB8w+mDbCQNsH3ySkKZcvQlIU25GSotiOlBTFdiiUI5SjJXiPdr4AgOshIQ1gc1LQ2+gHzD6YNsJA2wffJKQply9CUhTbkZKi2I6UFMV2KJQjlKMleI92vgCA6yEhDWBzUtDb6AfMPpg2wkDbB98kpCmXL0JSFNuRkqLYjpQUxXYolCOUoyV4j3a+AIDrISENYHNS0NvoB8w+mDbCQNsH3ySkKZcvQlIU25GSotiOlBTFdiiUI5SjJXiPdr4AgOshIQ1gc1LQ2+gHzD6YNsJA2wffqQnp6vW3O6+HCemPkJCmHKwISVFsR0qKYjtSUhTboVCOUI6W4D3a+QIAroeENIDNSUFvox0s+0DaawJtl4wumWT0J96xyei3PxE8/fzWW1XCuU42f8w+/UxCmnK6IiRFsR0pKYrtSElRbIdCOUI5WoL3aOcLALgeEtIANicFvY12sOwDaa8JtElIUyh1EZKi2I6UFMV2pKQotkOhHKE0Cd4myRsmeI0wXjXkuLYhxcRzOdr5AgCuh4Q0gM1JQW+jHSyHgbThg2wS0hRKUISkKLYjJUWxHSkpiu1QKEcoR0vwHu18AQDXQ0IawOakoLfRDpbDQNrwQTYJaQolKEJSFNuRkqLYjpQUxXYolCOUoyV4j3a+AIDrISENYHNS0NtoB8thIG34IJuENIUSFCEpiu1ISVFsR0qKYjsUyhHK0RK8RztfAMD1kJAGsDkp6G20g+UwkDZ8kE1CmkIJipAUxXakpCi2IyVFsR0K5QjlaAneo50vAOB6SEgD2JwU9DbawXIYSBs+yCYhTaEERUiKYjtSUhTbkZKi2A6FcoRytATv0c4XAHA9JKQBbE4KehvtYDkMpA0fZJOQplCCIiRFsR0pKYrtSElRbIdCOUI5WoL3aOcLALgeEtIANicFvY12sBwG0oYPsklIUyhBEZKi2I6UFMV2pKQotkOhHKEcLcF7tPMFAFwPCWkAm5OC3kY7WA4DacMH2SSkKZSgCElRbEdKimI7UlIU26FQjlCOluA92vkCAK6HhDSAzUlBb6MdLIeBtOGD7OyEdPV6PyH9ERLSlCMWISmK7UhJUWxHSopiOxTKEcrRErxHO18AwPWQkAawOSnobbSD5TCQNnyQTUKaQgmKkBTFdqSkKLYjJUWxHQrlCOVoCd6jnS8A4HpISAPYlBTwNkxw3A6Ww0Da8EG2D7yNKiFdJaNL1ddxuIS09HUckQnpL/7wh4ufS0KacpQiJEWP558Uf+eN/7z4k298X/GPxdePQ0qKHsVv/1OfKn7dH/5k8fI//tLi2//MV4jvORopKXoI3/6Pip/yb/7N4gt/zV8pvvDX/kDxU36T8J4DolCOUI6W4D3a+QIAroeENIBNSQFvg4Q0haIqQlL0WH6g+C/e+JeKT7zxo4tPvfGfF/+j+J7jkJKiu/bnv6z41/+NLyi+5MOfVXzWB98o3njD+sBn/ajiJ/6sLyh+xR/48uJ3SPsdhJQU3a//X/GTf/X7xY/76q8pPutzP7t44wO+Pz5QfOBHv1N8/s//ruILf72033FQKEco75Sx5ZESvEc7XwDA9ZCQBrApKeBtkJCmUFRFSIoew98r/vs3fkvxy974p4vPqpJun118koT0uv7cJ4tf/uhzi8827f/BDxb/k4/92OJLv+HHFV/6ZZ9X/LjPd4npf+rHFN/4u75M3v8ApKTofn1f8c/+jJ9cvPGBzyo+8GPfLD7nrV9QfP6X3BSf+wU/sfhAlZz+YPHBj/+G4id9m7TvMVAoRygkpElIAwDmRUIawKakgLdBQppCURUhKbpvf7347jf+5eLRGz/BJkLf+PHFF73x+SSkt/Bn3ym++Us/q/jxX/kFxa/8A19WvApe++3f9fHi53/Fj6qS0p/7Uz9U/Oo/Hex3IFJSdL++r/iJP/9p8eN+xV8tfsq3h9v/YfFFv/JXFZ/zuWa+/Njic3/+Xyh+Smu/46BQjlBISJOQBgDMi4Q0gE1JAW+DhDSFoipCUnTf/mDx+I0PFOZrCD7vjX+++DVv/LHi33nji4sPkpBe3599p/gV/8qbxf3/TXit9PDuFxUf/zFvFG989ucV/7Pf9eXie/ZOSooe0w8XX/Cz3yk+YJ5a/+hvKj500O+UplCOUEhIk5AGAMyLhDSATUkBb4OENIWiKkJSdN/+4+JXvfHLil/7xv+j+L7q3z9Y/F9JSO/Tn/p48XP/OfPDg88ufvr9l8rv2TkpKXpM/6T4wl/y88p58kbxgZ/8rxU/6aDfJU2hHKGQkCYhDQCYFwlpAJuSAt4GCWkKRVWEpOixkJDerT/zdvHozQ8Ub3zgs4uf+e2fkt+zc1JS9Jj+UfGhX/Dp6gnpD37yO4svan2lx3FQKEcoJKRJSAMA5kVCGsCmpIC3QUKaQlEVISl6LCSk9+p3fPdHi6/6Z98o3viczy++6T/4CvE9eyclRQ/p1//l4sd/4p8p3vjAFxSf9/h75fccAIVyhGJiwC/+8EeKD3/kI1XsaGJIEyeaeNHEjSZ+/Phbb5Ux5dtVXPn2J4x3bEzqksM2QWzj1ipBHMSzYazrybGxJcXUAAAcCQlpAJuSguwGCWkKRVWEpOixkJDep68oXvyqf6r4/DfeKD7nnQ8V/8p/Jr1n/6Sk6LH8k+Kn/Nr/rPgJP+OTxQfe+Jzisz7124sPfZv0vmOgUI5QSEgDADAvEtIANiUF2Q0S0hSKqghJ0WMhIb1Hv+33/uTikz/hjeKND3528WX/2pcUr4T3HIGUFN23f1h86Bf/r4rPe+e2+NEf/lTxWT/unyk+8MEfVXzgf/pVxY/5xu8qvvA3SvscB4VyhEJCGgCAeZGQBrApKchubJmQLl93CekPk5CmHK0ISdFjISG9N7/1vS8uvvqLP1i88cYHiy/6xW8Wv/HPy+87Aikpum//sPhJP/+riw984I2y/Z0P/pjiR/3/27sXeNvPu67z6+TWJE2aQtI0t5OTk5OkSVt6S1tKbwQoCLSKggjoVFHQUpDhNkKV64BcrAqjOI4to9wcXyCjMGi5iFCLLUIBLzgqiDggigygTkEEaZtn/s/ae+39PP/12zv/HP5rP/9n5f19vd4vYe996kkWZ5/f+rxW1z7/O9MNr/6WdNtXvCf4Nf0w62GCNADMS5AGmoqO7GMLC9IfJEhbJwuiaF8E6eV4fvqqr7k1XbghR9Ar0z2//1L6yh+Ovq4fURRduvN/5pfSnV/2C+nOL/xX6bbP/P70tI/97HTd05+6jtPnbvqQdNMf/5Xw1/XArIflGzDfgveso/S96/vw3kuX0qVNlD4M0vmWXAfpdZR+aH2PlkE6OwrSjxGlD+7g6D4WpAHonyANNBUd2cd++0F6HZufEb8dxzpID08qBGnbuwVRtC+C9CL8yPulz/rkG9KNV6zSueuuTe//hQ+lr42+rjNRFO3SV/9Cetor3i+dy1H61telp/3pR+OvWzizHiZIA8C8BGmgqejIPiZIm13WgijaF0G6ubc9I33MS69OV65W6dpLN6c/9K3PTW+Kvq5DURTt1ld+b7rhlqvSanVbuv4T/2P8NQtn1sMEaQCYlyANNBUd2ccEabPLWhBF+yJIN/X2h9Lv+4Crh3//59LNH3x3+uK3B1/TsSiKdutr/l26+Vk3p9XqSemaD3tnOh99zcKZ9TBBGgDmJUgDTUVH9jFB2uyyFkTRvgjS7Tw3ffYnXJuuyjH6w+9JX9H5+0VHoijara/+yfQ+l25Mq9V16ZrX/IQgbbajCdIAMC9BGmgqOrKPCdJml7UgivZFkG7lr3zH3elZN63SFbe+T/rk73p++DW9i6Jor85//pvSdTdekVZXPpRu/PRfDb9m6cx6mCANAPMSpIGmoiP7mCBtdlkLomhfBOlW3vinn5puzO8b/fD59GXvfEF604+dIvj1PYii6DI9mu587WelG37vD6Y7/+z4BxY+ms5/wXekp9x9U1oNj9cVD/zFdPufLz/fD7MeJkgDwLwEaaCp6Mg+JkibXdaCKNoXQbqN56cv+rQnp2tWq3TuqivStU++8nS3PCV9wrf39yrqKIou06Ppzj/wO4c/B6u0uvZCuuah359u+MDPSTe+9BPSdRcfSFdcOXx8dS6du+2PpVu+5N3Br++DWQ8TpAFgXoI00FR0ZB8TpM0ua0EU7ct/Tt+7ena6cfXU9P6rHxakz8zz0uf+4evTdVefS1dd89iuvunG9PGC9E7d9Ya/mW4a/j684qor1q+EPnZFOvfkZ6frPvTb0u1/Zvzq6b6Y9TBBGgDmJUgDTUVH9jFB2uyyFkTR/rwnvWct+lxfoii6WD/6/PRX3vk4/Fjwn7FwURRdvDf+p3TnF/2rdNtn/EC69TN+LN3+Rb+czn918HUdMuthgjQAzEuQBpqKjuxjgrTZZS2IorQTRVHaiaIo7Zj1MEEaAOYlSANNRUf2sbMO0sPnh6/Jn89PMARp63ZBFKWdKIrSThRFaceshwnSADAvQRpoJjqwa/VhnpWHez7kt4J0jtGD/CTgKEivY/N2kM5PJiYH6QuCtHW0IIrSThRFaSeKorRj1sM2QfrCUZC+d/3ChnwrroP04P51lD4I0usoXQbpIkoL0gAgSAMNRQd2rT7Ms/JwF6TNTlgQRWkniqK0E0VR2jHrYYI0AMxLkAaaiQ7sWn2YZ+XhLkibnbAgitJOFEVpJ4qitGPWwwRpAJiXIA00Ex3Ytfowz8rDXZA2O2FBFKWdKIrSThRFaceshwnSADAvQRpoJjqwa/VhnpWHuyBtdsKCKEo7URSlnSiK0o5ZDxOkAWBegjTQTHRg1+rDPCsPd0Ha7IQFUZR2oihKO1EUpR2zHiZIA8C8BGmgmejArtWHeVYe7oK02QkLoijtRFGUdqIoSjtmPUyQBoB5CdJAM9GBXasP86w83AVpsxMWRFHaiaIo7URRlHbMepggDQDzEqSBZqIDu1Yf5ll5uAvSZicsiKK0E0VR2omiKO2Y9TBBGgDmJUgDzUQHdq0+zLPycBekzU5YEEVpJ4qitBNFUdox62GCNADMS5AGmokO7Fp9mGfl4S5Im52wIIrSThRFaSeKorRj1sMEaQCYlyANNBMd2LX6MM/Kw33OIJ0/fxCkjz9/76Xh88MTDkHaulsQRWkniqK0E0VR2jHrYYI0AMxLkAaaiQ7sWn2YZ+Xh/thB+uAJwXaQrl/9PCVI370O0h90+LTEbOELoijtRFGUdqIoSjtmPSwH6XwLHgXpwThI5ztzHaQPo/TmxREnBel1lC7u2vHNe1qQzqLbGgB6IUgDzUTHda0+zLPycBekzU5YEEVpJ4qitBNFUdox62GCNADMS5AGmomO61p9mGfl4S5Im52wIIrSThRFaSeKorRj1sMEaQCYlyANNBMd17X6MM/Kw12QNjthQRSlnSiK0k4URWnHrIcJ0gAwL0EaaCY6rmv1YZ6Vh7sgbXbCgihKO1EUpZ0oitKOWQ8TpAFgXoI00Ex0XNfqwzwrD3dB2uyEBVGUdqIoSjtRFKUdsx4mSAPAvARpoJnouK7Vh3lWHu6CtNkJC6Io7URRlHaiKEo7Zj1MkAaAeQnSQDPRcV2rD/OsPNwFabMTFkRR2omiKO1EUZR2zHqYIA0A8xKkgWai47pWH+ZZebgL0mYnLIiitBNFUdqJoijtmPUwQRoA5iVIA81Ex3WtPsyz8nAXpM1OWBBFaSeKorQTRVHaMethgjQAzEuQBpqJjutafZhn5eE+e5DOny+D9PB5Qdq6XBBFaSeKorQTRVHaMethgjQAzEuQBpqJjutafZhn5eEuSJudsCCK0k4URWkniqK0Y9bDBGkAmJcgDTQTHdel8WGelYf78UF/GKMH+eiPg3SOzQ+snzRcyrFZkLZ9XhBFaSeKorQTRVHaMeth+QY8CNL3pHvuubgO0vmOzG/vll/osI7S4yB9GKU3t+lxkD6O0uVdO755D4L0yVE6uq0BoBeCNNBMdFyXxod5Vh7ugrTZCQuiKO1EUZR2oihKO2Y9TJAGgHkJ0kAz0XFdGh/mWXm4C9JmJyyIorQTRVHaiaIo7Zj1MEEaAOYlSAPNRMd1aXyYZ+XhLkibnbAgitJOFEVpJ4qitGPWwwRpAJiXIA00Ex3XpfFhnpWHuyBtdsKCKEo7URSlnSiK0o5ZDxOkAWBegjTQTHRcl8aHeVYe7oK02QkLoijtRFGUdqIoSjtmPUyQBoB5CdJAM9FxXRof5ll5uAvSZicsiKK0E0VR2omiKO2Y9TBBGgDmJUgDzUTHdWl8mGfl4S5Im52wIIrSThRFaSeKorRj1sMEaQCYlyANNBMd16XxYZ6Vh7sgbXbCgihKO1EUpZ0oitKOWQ8TpAFgXoI00Ex0XJfGh3lWHu6CtNkJC6Io7URRlHaiKEo7Zj1MkAaAeQnSQDPRcV0aH+ZZebjPF6Tz55+x/rwgbXuxIIrSThRFaSeKorRj1sMEaQCYlyANNBMd16XxYZ6Vh/vZBukLgrT1syCK0k4URWkniqK0Y9bDHlkH6QvpwoWDIJ1vw3wj5iCdb8bjIH0YpcsgfRilHzqM0lWQPiVKC9IA7DNBGmgmOq5L5VG+UR7tJwfpHKMHOUYP8hODgyBdxObhCcQmNgvStndbrVgSO5NF/+ppZ8pWU7/QrPEEaQCYlyANNBMd16XyKN8oj3ZB2uyEjcsQbdmZLPpXTztTJkhbLxOkAWBegjTQTHRcl8qjfKM82gVpsxM2LkO0ZWey6F897UyZIG29TJAGgHkJ0kAz0XFdKo/yjfJoF6TNTti4DNGWncmif/W0M2WCtPUyQRoA5iVIA81Ex3WpPMo3yqNdkDY7YeMyRFt2Jov+1dPOlAnS1ssEaQCYlyANNBMd16XyKN8oj3ZB2uyEjcsQbdmZLPpXTztTJkhbLxOkAWBegjTQTHRcl8qjfKM82gVpsxM2LkO0ZWey6F897UyZIG29TJAGgHkJ0kAz0XFdKo/yjfJoF6TNTti4DNGWncmif/W0M2WCtPUyQRoA5iVIA81Ex3WpPMo3yqNdkDY7YeMyRFt2Jov+1dPOlAnS1ssEaQCYlyANNBMd16XyKN8oj3ZB2uyEjcsQbdmZLPpXTztTJkhbLxOkAWBegjTQTHRcl8qjfKM82s8kSA+fv+fiRUHa+tq4DLETqy9hUeKHiUamTJC2XiZIA8C8BGmgmei4LpVHeVYe7NlWkF7H6OMgnZ8MHAXpU179PClI331h/WTErIuNyxA7EUZR2okfJhqZMkHaetk6SA+3YA7SF8ogPdyKx0H6/vW9uQnS6ygdBOmDKP3YQTo7LUhn0X0NAD0QpIFmosO6ND7Ky4M9E6TNTti4DLETYRSlnfhhopEpE6StlwnSADAvQRpoJjqsS+OjvDzYM0Ha7ISNyxA7EUZR2okfJhqZMkHaepkgDQDzEqSBZqLDujQ+ysuDPROkzU7YuAyxE2EUpZ34YaKRKROkrZcJ0gAwL0EaaCY6rEvjo7w82DNB2uyEjcsQOxFGUdqJHyYamTJB2nqZIA0A8xKkgWaiw7o0PsrLgz0TpM1O2LgMsRNhFKWd+GGikSkTpK2XCdIAMC9BGmgmOqxL46O8PNgzQdrshI3LEDsRRlHaiR8mGpkyQdp6mSANAPMSpIFmosO6ND7Ky4M9E6TNTti4DLETYRSlnfhhopEpE6StlwnSADAvQRpoJjqsS+OjvDzYM0Ha7ISNyxA7EUZR2okfJhqZMkHaepkgDQDzEqSBZqLDujQ+ysuDPROkzU7YuAyxE2EUpZ34YaKRKROkrZcJ0gAwL0EaaCY6rEvjo7w82DNB2uyEjcsQOxFGUdqJHyYamTJB2nqZIA0A8xKkgWaiw7o0PsrLgz3bSZAePn/pvuHzZZAenngI0tbVxmWInQijKO3EDxONTJkgbb1MkAaAeQnSQBPRUT02PsrLgz0f8JtjfnPcHwXp4fA/DtKnvPpZkLZ93bgMsRNhFKWd+GGikSkTpK2XbYL03esgfc/6NqyD9H3rGzLfkgdB+iBK53t0HaUPb9RxkF5H6eK+Hd++gjQA+0qQBpqIjuqx8VFeHuyCtNkpG5chdiKMorQTP0w0MmWCtPUyQRoA5iVIA01ER/XY+CgvD3ZB2uyUjcsQOxFGUdqJHyYamTJB2nqZIA0A8xKkgSaio3psfJSXB7sgbXbKxmWInQijKO3EDxONTJkgbb1MkAaAeQnSQBPRUT02PsrLg12QNjtl4zLEToRRlHbih4lGpkyQtl4mSAPAvARpoInoqB4bH+XlwS5Im52ycRliJ8IoSjvxw0QjUyZIWy8TpAFgXoI00ER0VI+Nj/LyYBekzU7ZuAyxE2EUpZ34YaKRKROkrZcJ0gAwL0EaaCI6qsfGR3l5sAvSZqdsXIbYiTCK0k78MNHIlAnS1ssEaQCYlyANNBEd1WPjo7w82AVps1M2LkPsRBhFaSd+mGhkygRp62WCNADMS5AGmoiO6rHxUV4e7IK02SkblyF2IoyitBM/TDQyZYK09TJBGgDmJUgDTURH9dj4KC8P9lmD9PD5k4J0/rwgbd1tXIbYiTCK0k78MNHIlAnS1ssEaQCYlyANNBEd1WPjo7w82M86SJ8XpK2njcsQOxFGUdqJHyYamTJB2npZvgHzLVgF6eFGvHhSkF5H6RykD6L05QbpLLqRN6IbGwB6IEgDTURH9dj4IC8P9ihIb479yUE6x+aLFwVp27+NyxA7EUZR2okfJhqZMkHaepkgDQDzEqSBJqKjemx8kJcHuyBtdsrGZYidCKMo7cQPE41MmSBtvUyQBoB5CdJAE9FRPTY+yMuDXZA2O2XjMsROhFGUduKHiUamTJC2XiZIA8C8BGmgieioHhsf5OXBLkibnbJxGWInwihKO/HDRCNTJkhbLxOkAWBegjTQRHRUj40P8vJgF6TNTtm4DLETYRSlnfhhopEpE6StlwnSADAvQRpoIjqqx8YHeXmwC9Jmp2xchtiJMIrSTvww0ciUCdLWywRpAJiXIA00ER3VY+ODvDzYBWmzUzYuQ+xEGEVpJ36YOvNrg387+LnBrx5+rE9TJkhbLxOkAWBegjTQRHRUj40P8vJgF6TNTtm4DHXqFwfPG9w8+JLDjy1JGEVpJ36YOvGWwYsHVw7yP0t2xeDhwa8Mol+zbFMmSFsvE6QBYF6CNNBEdFSPjQ/y8mAXpM1O2bgMdSpH6E2ce8Phx5YkjKK0Ez9MC/fuwacNcnw+N7hv8DGDVw8uDc4PfnkQ/dplmzJB2nqZIA0A8xKkgSaio3psfJCXB7sgbXbKxmWoQ//P4LaBIM1k8cO0cH9qkEP0HYO/d/ix0r8Z/MboY32YMkHaepkgDQDzEqSBJqKjemx8kJcH+1kE6fwkY/01grT1tnEZ6syjg08dPGnw0oEgzSTxw7RgPzy4fvC0wT85/Nj+mDJB2nqZIA0A8xKkgSaio3psfJCXB/vZB+m70yOPCNLWycZlqDN/b3Dt4HcNXjsQpJkkfpgW6r2D3zXIv+83Hn5sv0yZIG297CBI353uvnDhKEjn/xbdxXvvHW7GS+nScDeeHqQPonQYpLPLDNJZdGcDwNIJ0kAT0UFd2z7IHytIP3QYpPPhHwbpIjYfBenhCYUgbXu3cRnqyH8aPHNwy+BfDT5lIEgzSfwwLdS/Hdw8uHXw84cf2y9TJkhbLxOkAWBegjTQRHRQ17YPckHabOLGZagT+a06PnNwbvBVhx/Lb90hSDNJ/DAt1DcP8ntHf+Qgv1o6+pq+TZkgbb1MkAaAeQnSQBPRQV3bPsgFabOJG5ehTnzb4JrBI4P/dvgxQZrJ4odpoT5jkH/PXzB49+DbBq8ePGfwosHnDn5uEP3aPkyZIG29TJAGgHkJ0kAT0UFd2z7IBWmziRuXoQ7kt+d4+iC/Vcc/P/xYJkgzWfwwLVB+RfSHD/Lv+YsGrzn8n7Mriv/5usE3DqL/jOWbsvzPadbDBGkAmJcgDTQRHdS17YNckDabuHEZWrhfHbxicNXgGw4/tiFIM1n8MC3Qbw1eNsi/5w8c5PD8ZYN/N/jVwT8afMAgf/6GwQ8Nov+cZZsyQdp6mSANAPMSpIEmooO6tn2QC9JmEzcuQwv2nsEnD3KYet3gvYPy84L0jD5/cGFw/Sny5//kIPr1Sxc/TAv0m4PnD/Lv+crB3xyMvyaH6RcM8td8zODRwfhrlm3KBGnrZYI0AMxLkAaaiA7q2vZBLkibTdy4DC3YVwzyDzF85eBdhx8rCdIzyqH5fQf5937uBLcP/tQg+vVLFz9MC/TfBy8c5N/zBw3ye0hHX5dDdf7Bh+cHv3z4sX5MmSBtvUyQBoB5CdJAE9FBXds+yAVps4kbl6GF+s5B/iGGTx18+eDrRt48+PBBjlYfe/ixbx5sfuBha2EUXbI/MbhxcMPg0wf5FdNjXzCIfm0P4odpgXKAzm/VkX/Pn3X4sciPDp40eMrgpw8/1o8pE6StlwnSADAvQRpoIjqoa9sHuSBtNnHjMrRQXzk4iHLT3T34lcHwvzQXRtEl+6zBdYP3Gbzh8GP7JH6YFup1g/x7fn3xsbGfHOT3kBakzVpPkAaAeQnSQBPRQV3bPsgFabOJG5ehhcqvkP6sU3zm4IWDHK1efvi/57fuyD8Ecfyf1UIYRZfs0wbXDG4d5FdDR1/Ts/hhWqi/Osi/51cN3nP4sbHvH+T3mL5r4C07zFpOkAaAeQnSQBPRQV3bPsjPLEjnzx9+TX6yIUhbdxuXoY69fpCj1ecVH1uKMIou2R8dXDk4P/jCw4/tk/hhWqifHdw8uHbwDw4/Vso/xPCTBvmf66MP//fx1yzblAnS1ssEaQCYlyANNBEd1LXtg/zxBekcowfj2FwE6U1sFqRt7zYuQx3bBGk/1HAGf2iQf3DhfYMvPvzYPokfpgX77EH+fT9zkN+eY/PxHJ//+uC6Q28flL+uD1MmSFsvyzfgOkjffSFduHBPulAG6eFezHfjpXWQvn+4KQ+jdA7S6yj9UHpwHaXLIH0cpcsgnY3v3/hOPhbd2QCwdII00ER0UNfqYzwrj3VB2uyUjctQxwTpGX3cIAfpi4NXDz5i8DGD/FYe+xCo44dpwf7L4AMG+fd+/SC/fUd+T+nnD84N8tt1vHEQ/drlmzJB2nqZIA0A8xKkgSaig7pWH+NZeawL0manbFyGOvY/Da4d/M/Fx5YijKJL9lGD/PuOPGWQ43T063oRP0wL9/8N8ltzPGmQ/xk2Lg2+YxD9mj5MWf5nNethgjQAzEuQBpqIDupafYxn5bEuSJudsnEZ6th7B791+P9Gn28pjKJL9trBhwzyq6N/5+CRwbMGTxrkf5786ukPHkS/tgfxw9SJXx3848EPDvL7S/f3ntFjUyZIWy8TpAFgXoI00ER0UNfqYzwrj3VB2uyUjcsQOxFG0R593iCH6fzPlOP06wbR1y1d/DDRyJQJ0tbLBGkAmJcgDTQRHdS1+hjPymNdkDY7ZeMyxE6EUbRXOUo/bZD/uV5x+LHexA8TjUyZIG29TJAGgHkJ0kAT0UFdq4/xrDzWBWmzUzYuQ+xEGEV79sJB/ud6cNDjDzmMHyYamTJB2nqZIA0A8xKkgSaig7pWH+NZeawL0manbFyG2IkwivbsQwf5n+vSQJDmt2nKBGnrZYI0AMxLkAaaiA7qWn2MZ+WxLkibnbJxGWInwijas+cM8j/Xc4uP9SR+mGhkygRp62WCNADMS5AGmogO6lp9jGflsS5Im52ycRliJ8Io2qtPH9wwODf4mMOP9SZ+mGhkygRp62WCNADMS5AGmogO6lp9jGflsS5Im52ycRliJ8IoulRfMPiIwWcXH9vIMfquQf5numPwJwfjr+lB/DDRyJQJ0tbLBGkAmJcgDTQRHdS1+hjPymN9p0H68GsuCtLW68ZliJ0Io+hSfeHgzsGVg9sHzxu8YJBDdP5Y/ud56uBTB9Gv70H8MNHIlAnS1ssEaQCYlyANNBEd1LX6GM/KY31zxJdBOh/6U4N0js0XH0+QPi9IW0cblyF2IoyiS5WD9PMHVw/y7710zeDFg88dRL+2F/HDRCNTJkhbL1sH6eEWzEH67tOC9OD+4Z48CNKHUboM0odRWpAG4IlOkAaaiA7qWn2MZ+WxLkibnbJxGWInwii6dJ8/+B8Hnzz4w4P8dh1fNIi+tjfxw0QjUyZIWy8TpAFgXoI00ER0UNfqYzwrj3VB2uyUjcsQOxFGUdqJHyYamTJB2nqZIA0A8xKkgSaig7pWH+NZeawL0manbFyG2IkwitJO/DDRyJQJ0tbLBGkAmJcgDTQRHdS1+hjPymNdkDY7ZeMyxE6EUZR24oeJRqZMkLZeJkgDwLwEaaCJ6KCu1cd4Vh7rgrTZKRuXIXYijKK0Ez9MNDJlgrT1MkEaAOYlSANNRAd1rT7Gs/JYF6TNTtm4DLETYRSlnfhhopEpE6StlwnSADAvQRpoIjqoa/UxnpXHuiBtdsrGZYidCKMo7cQPE41MmSBtvUyQBoB5CdJAE9FBXauP8aw81gVps1M2LkPsRBhFaSd+mGhkygRp62WCNADMS5AGmogO6lp9jGflsS5Im52ycRliJ8IoSjvxw0QjUyZIWy8TpAFgXoI00ER0UNfqYzwrj/WdBunh8/deGj4vSFuvG5chdiKMorQTP0w0MmWCtPUyQRoA5iVIA01EB3WtPsaz8lgXpM1O2bgMsRNhFKWd+GGikSkTpK2XbYL0+SpIX1zfkvleLIN0vicfT5DOyht3fP/mmzi+lQ9EdzYALJ0gDTQRHdS1+hjPymO9POLjIP1QHKTXsXlQxGZB2vZu4zLEToRRlHbih4lGpkyQtl4mSAPAvARpoInooK7Vx3hWHuvlES9Im402LkPsRBhFaSd+mGhkygRp62WCNADMS5AGmogO6lp9jGflsV4e8YK02WjjMsROhFGUduKHiUamTJC2XiZIA8C8BGmgieigrtXHeFYe6+URL0ibjTYuQ+xEGEVpJ36YaGTKBGnrZYI0AMxLkAaaiA7qWn2MZ+WxXh7xgrTZaOMyxE6EUZR24oeJRqZMkLZeJkgDwLwEaaCJ6KCu1cd4Vh7r5REvSJuNNi5D7EQYRWknfphoZMoEaetlgjQAzEuQBpqIDupafYxn5bFeHvGCtNlo4zLEToRRlHbih4lGpkyQtl4mSAPAvARpoInooK7Vx3hWHuvlES9Im402LkPsRBhFaSd+mGhkygRp62WCNADMS5AGmogO6lp9jGflsV4e8YK02WjjMsROhFGUduKHiUamTJC2XiZIA8C8BGmgieigrtXHeFYe6+URL0ibjTYuQ+xEGEVpJ36YaGTKBGnrZYI0AMxLkAaaiA7qWn2MZ+WxXh7xcwbp/GTi0n0HXyNIW7cblyF2IoyitBM/TDQyZYK09TJBGgDmJUgDTUQHda0+xrPyWC+PeEHabLRxGWInwihKO/HDRCNTJkhbL3vkkUeKIH0hXbjnnvV9WAfp++ognY2C9DpKH96t5S1b3rjj+/exgnQW3doAsGSCNNBEdEzX6mM8K4/18oiPg/SDcZAOYrMgbXu3cRliJ8IoSjvxw0QjUyZIWy8TpAFgXoI00ER0TNfqYzwrj/XyiBekzUYblyF2IoyitBM/TDQyZYK09TJBGgDmJUgDTUTHdK0+xrPyWC+PeEHabLRxGWInwihKO/HDRCNTJkhbLxOkAWBegjTQRHRM1+pjPCuP9fKIF6TNRhuXIXYijKK0Ez9MNDJlgrT1MkEaAOYlSANNRMd0rT7Gs/JYL494QdpstHEZYifCKEo78cNEI1MmSFsvE6QBYF6CNNBEdEzX6mM8K4/18ogXpM1GG5chdiKMorQTP0w0MmWCtPUyQRoA5iVIA01Ex3StPsaz8lgvj3hB2qyeyHM2C6MozVh/873KepkgDQDzEqSBJqJjulYf41l5rJdHvCBtVk/kOZtFUZR2rL/5XmW9TJAGgHkJ0kAT0TFdq4/xrDzWyyNekDarJ/KczaIoSjvW33yvsl4mSAPAvARpoInomK7Vx3hWHuvlES9Im9UTec5mURSlHetvvldZLxOkAWBegjTQRHRM1+pjPCuP9fKI/+0G6ZM+np9s5Ccd+cmHIG09TeQ5m0VRlHasv/leZb1MkAaAeQnSwJmLDult9TGelcf68RF/cNRPDtLDE4Z7L12qwvP6VdHrjz9WkH7k8GmJ2bIn8pzNoihKO9bffK+yXnYcpO+ugnS+GY+C9OCkIL2O0oI0ABwRpIEzFx3S2+pjPCuPdUHa7OSJPGezKIrSjvU336uslwnSADAvQRo4c9Ehva0+xrPyWBekzU6eyHM2i6Io7Vh/873KepkgDQDzEqSBMxcd0tvqYzwrj3VB2uzkiTxnsyiK0o71N9+rrJcJ0gAwL0EaOHPRIb2tPsaz8lgXpM1OnshzNouiKO1Yf/O9ynqZIA0A8xKkgTMXHdLb6mM8K491QdqeiPug1/8cC5JSjmksxj/4UZZkwgRp62WCNADMS5AGzlx0SG+rj/GsPNYFaXsiLoqitLMVRGkriqK0M2GCtPUyQRoA5iVIA2cuOqS31cd4Vh7rgrQ9ERdFUdrZCqK0FUVR2pkwQdp6mSANAPMSpIEzFx3S2+pjPCuPdUHanoiLoijtbAVR2oqiKO1MmCBtvUyQBoB5CdLAmYsO6W31MZ6Vx7ogbU/ERVGUdraCKG1FUZR2JkyQtl4mSAPAvARp4MxFh/S2+hjPymNdkLYn4qIoSjtbQZS2oihKOxMmSFsvE6QBYF6CNHDmokN6W32MZ+WxLkjbE3FRFKWdrSBKW1EUpZ0JE6StlwnSADAvQRo4c9EhXTs4vscH+dGxXhzw20H64OiPgvQ6PN+3HZ7zx/PHDkL18LHh4xdykL5wT7o7x+jhycddw5OQDxSkrfGiKEo7W0GUtqIoSjsTJkhbL8s34F3nzx8H6eFGzLfiQZC+d31D1kH6gSJIH0Tp7SB9HKXzbXt6kD49Skf3NgAsmSANnLnokK4J0mbRoihKO1tBlLaiKEo7EyZIWy8TpAFgXoI0cOaiQ7omSJtFi6Io7WwFUdqKoijtTJggbb1MkAaAeQnSwJmLDumaIG0WLYqitLMVRGkriqK0M2GCtPUyQRoA5iVIA2cuOqRrgrRZtCiK0s5WEKWtKIrSzoQJ0tbLBGkAmJcgDZy56JCuCdJm0aIoSjtbQZS2oihKOxMmSFsvE6QBYF6CNHDmokO6JkibRYuiKO1sBVHaiqIo7UyYIG29TJAGgHkJ0sCZiw7pmiBtFi2KorSzFURpK4qitDNhgrT1MkEaAOYlSANnLjqka4K0WbQoitLOVhClrSiK0s6ECdLWywRpAJiXIA2cueiQrgnSZtGiKEo7W0GUtqIoSjsTJkhbLxOkAWBegjRw5qJDuiZIm0WLoijtbAVR2oqiKO1MmCBtvUyQBoB5CdLAmYsO6VqjID18rAzSd1dB+rwgbc0XRVHa2QqitBVFUdqZMEHaetlRkD5/9/o2zDdiFaSHGzLfkvmmvO/++9P96yg9DtIHUToM0psb9zKDdBbd3ACwVII0sCjRgV0aH+nlAZ9therDV6NsQvU6Ug/yk4T8ZCE/aRCkrZdFUZR2toIobUVRlHYmTJC2XiZIA8C8BGlgUaIDuzQ+0ssDPhOkbZ8XRVHa2QqitBVFUdqZMEHaepkgDQDzEqSBRYkO7NL4SC8P+EyQtn1eFEVpZyuI0lYURWlnwgRp62WCNADMS5AGFiU6sEvjI7084DNB2vZ5URSlna0gSltRFKWdCROkrZcJ0gAwL0EaWJTowC6Nj/TygM8EadvnRVGUdraCKG1FUZR2JkyQtl4mSAPAvARpYFGiA7s0PtLLAz4TpG2fF0VR2tkKorQVRVHamTBB2nqZIA0A8xKkgUWJDuzS+EgvD/hMkLZ9XhRFaWcriNJWFEVpZ8IEaetlgjQAzEuQBhYlOrBL4yO9POAzQdr2eVEUpZ2tIEpbURSlnQkTpK2XCdIAMC9BGliU6MAujY/08oDPBGnb50VRlHa2gihtRVGUdiZMkLZeJkgDwLwEaWBRogO7ND7SywM+E6RtnxdFUdrZCqK0FUVR2pkwQdp6mSANAPMSpIFFiQ7s0vhILw/4TJC2fV4URWlnK4jSVhRFaWfCBGnrZYI0AMxLkAYWIzqux8ZHennAP+soRj/76Ng/CtLDE4HjIP2M9ZOE+x4jSF/YBOnhycddA0HaWi+KorSzFURpK4qitDNhgrT1sqMgfffJQfrSSUF6HaWLIF1F6e0gnZW3riANwD4SpIHFiI7rsfJAz6oDXpC2PV8URWlnK4jSVhRFaWfCBGnrZYI0AMxLkAYWIzqux8oDPasOeEHa9nxRFKWdrSBKW1EUpZ0JE6StlwnSADAvQRpYjOi4HisP9Kw64AVp2/NFUZR2toIobUVRlHYmTJC2XiZIA8C8BGlgMaLjeqw80LPqgBekbc8XRVHa2QqitBVFUdqZMEHaepkgDQDzEqSBxYiO67HyQM+qA16Qtj1fFEVpZyuI0lYURWlnwgRp62WCNADMS5AGFiM6rsfKAz2rDnhB2vZ8URSlna0gSltRFKWdCROkrZcJ0gAwL0EaWIzouB4rD/SsOuAFadvzRVGUdraCKG1FUZR2JkyQtl4mSAPAvARpYDGi43qsPNCz6oAXpG3PF0VR2tkKorQVRVHamTBB2nqZIA0A8xKkgcWIjuux8kDPqgNekLY9XxRFaWcriNJWFEVpZ8IEaetlgjQAzEuQBhYjOq7HygM9qw54Qdr2fFEUpZ2tIEpbURSlnQkTpK2XCdIAMC9BGliM6LgeKw/0rDrgBWnb80VRlHa2gmhP3rtK//k/rNJP/etV+vf/aZXeG31Nb6Io2osfeHv6z3/rO9O/+Rt/J/3iW34oPRp9TW8mTJC2XiZIA8C8BGlgMaLjeqw80LPqgA+C9DpGP54gPTyxuOfixfWTjPxk4zhInxekrfmiKLpMP5Keef896Zpr3yddPcV1z0h3fuQ/Cf5zlm0riPbgt1bpHV+7Ss+/ZZXOrVbrILi6YpWe/qJVevOPrdJ7ol/TiyiKLtx73/Kt6Vs+/iXpvhuuLh6Pa9MdD31UevPXvTW9N/g13ZgwQdp62ZQgnW/JTZDON+YmSK+jdA7S6yh9QpDOipt2fO8K0gDsG0EaWIzouB4bH+jl8S5I274viqLL9M70zPtuT1ecuzKdO9W5gwB35YPp7t/9L4P/nGXbCqJL999X6es+apWuyv/Or1qliy9apY/+Pav0ontW6crDj33sN63Su6Nf24Moii7Yu7/lK9MnXbhu/WfgymtvTg8+6wPSa17wYLrw5KsO4vS1D6TP/vPf1++rpSdMkLZeJkgDwLwEaWAxouN6bHygl8e7IG37viiKLtUjr/up9Mo/+pMn+yPvSM97+OF01erK9KT7/3J6afCfsXRbQXTh/umfW6X3PbdK525ZpS//h0V4fvcqve2LV+mpq1W64tZV+l//Zf3ruhFF0aX6vr+ZvvaFN6Vzq3Pp5mf/ofR3v/UdR5979Lu/Jf3vrzqfrh0ej2vu+uj03d85+rW9mDBB2nqZIA0A8xKkgcWIjuux8YFeHu+CtO37oijaq0de+7+kp11/RVpd85J038f9dPg1S7cVRJfs11fp85+3WgfAV/zZVfqN8ed/c5W+6mUHn3/Jl6/Sb44/34Moii7Ur7zxd6dLV67Suae8JP2lb/qh7a95y5vTn7j0pOHxuCF98Gf87fSe8ed7MGGCtPUyQRoA5iVIA4sRHddj4wO9PN4Fadv3RVG0T/8iPf95D6YrVlel6575jenl4dcs31YQXbJfXqXX3rVKqytX6fV/P/j84Ps/7eCtO+75o6v0X4LPL14URRfpH6Qf+Oi701Wrc+m2D/qq9Ivh1/xI+rk3vCLdPDweT33489JP/0D0NQs3YYK09TJBGgDmJUgDixEd12PjA7083gVp2/dFUbRHj/z+r0w3X3surZ70ivTAJ/xM+DU92AqiS/brq/SnnnvwCujf+y3B5wff+rEHP+jwRV/mFdI79da3pG962VOHx+Ka9IJP/Ob0m9HXDH7tL3x8esaV+W1UXpP+bo9v2zFhgrT1MkEaAOYlSAOLER3XY+MDvTzeBWnb90VRtD//d3r+cx84eHX0Q9/Q7aujs60gunDv/JJVun61Sje/apX++W/Un/tvP7FKH/K+q7S6cZW+6p/Vn+tGFEWX6K3fmf7q+z8lrYY/Aw993Nel/xp9zeDd3/w56QOvHx6Ta5+T3vgNPxx+zaJNmCBtvUyQBoB5CdLAYkTH9dj4QC+Pd0Ha9n1RFO3NI6/9CwfvHX31w+ne3/evw6/pxVYQXbp3rdKXv/LgVdAXXr1K/9c/XaVf+n9X6R9/+yp9xPlVWl2xSq/6c6v0a9Gv7UEURRfp+9N3v/r2dMXwODzt5V+afv6t0df8aPqVr3h1uuvc8Lhc/UD6wjcd/9DDbkyYIG29TJAGgHkJ0sBiRMf12PhAL493Qdr2fVEU7ctPphe+6LnpytUV6ZpLfzG9NPyafmwF0Q48+mur9A2ftEo3rA7evuPIDav0ur+xSr8e/JpuRFF0oX7xS39HumMdm+9Nn/HV37/9Nd/zf6Q3PvfGg8fmyovps7/2bdtfs3QTJkhbLxOkAWBegjSwGNFxPTY+0MvjXZC2fV8URbvyR7453XnTVWl17kK64zU/EX9NR7aC6NL9xip922eu0m3XrNavhn6f86v0ghes0h03rdav1r3mjlX6nG9fpf8e/doeRFF0qb7nG9OXPev6dZC94inPTJ/6hm9K//4t70i/9X1vS7/4174qfe4Lnp6ecsez0gtvyf9tgmekL36zV0ibtZwgDQDzEqSBxYiO67HxgV4e74K07fuiKNqPn00v/bDXpCflAHfzp6YXfHL0NX3ZCqJL9p5V+s7Xr9J1w7//G565Sn/5nav0nuJzP/qXV+nB/H7FT16lz/yeVXpv+Wt7EUXRBfuNv/6l6Q+ef9LBq6CzK65M11x1xfotVVZXn0+v/WOvT6+55VxaXfvc9Oe+8R+F/xmLNmGCtPUyQRoA5iVIA4sRHddj4wO9PN4Fadv3RVG0G697W3rG+aem1erJ6aaXfE/6wOhrOrMVRBfsXT+4Su/3pFVa3bRKX/nj8df8+Fes0lNWq3T9w6v0w/81/ppFi6Lowj36Xd+W/s9P/B3p5edvTjddd3266abb0vM+4BPSm/7Sd6X/9jc+P334jat0xS0fnv72d8S/ftEmTJC2XiZIA8C8BGlgMaLjulYf51l5vEdBOh/9+fjPTwTCID08cbh03311kB6eYAjStsRFUbQXj3z8F6anXr1Kq2temu7/hJ8Jv6Y3W0F0wb77kw/eluPmV6/Szz0af82j/26VXnPz8BhdtUqf/tb4axYtiqI9ees706PF//6ur/m49MCVq/TkZ316+onvK76uFxMmSFsvWwfpu86vb8I6SF98jCB9EKXLIL2O0usYLUgD8MQlSAOLER3Xtfo4z8rjXZC2fV8URfvwM+n9X/aSdNVqla68/QvSi18XfU1/toLoUr17lf7CI6t1/Hv2557ygwt/fZX+5HMOvu53vLnDt+2Iomi33pF+/BMfStetrk7P+rg3p18Nv2bhJkyQtl4mSAPAvARpYDGi47pWH+dZebwL0rbvi6JoF1731nT/nTem1er6dNNLvncv3q4j2wqiS/XeVXrThx2E5ls/epV+Ifqa7D+s0kfdcvB1v+ubVunR6GuWLIqivXrLm9Pn3ndtWl19b/qcv/i2+GuWbsIEaetlgjQAzEuQBhYjOq5r9XGelce7IG37viiK9uCRP/Dl6X3z+xdf9Zx08ff+6/BrerQVRBfsx77k4AcaXnHHKn3zz8Zf8zN/dZWefm54nJ68Sl/xT+OvWbQoinbpbenH/9jz01NX59ItL35D+qm/H31NByZMkLZeJkgDwLwEaWAxouO6Vh/nWXm8C9K274uiaA9e9qEfma5ZrdK5m/5get4nxV/To60gumDv/ulV+ojDVz/f9epVeusv1J//ubes0gfeevD5p3/UKv3se+rPdyGKokv11remn/5r357e9QOjj3//96a3v/6V6e6rhz8vT35O+tL/rdNXR2cTJkhbLxOkAWBegjSwGNFxXauP86w83gVp2/dFUXT5/kV63vvdm86tVunqC38+vTT8mj5tBdGF+9lvXaVnXHcQna+4fpUeePEq/Z7fvUovum+Vrs2vjB4+ft1Dq/Tt/z7+9YsXRdGleut3pr/2slvSTbfcnx552UemP/5x/0P61A97eXr4lietf/jkuWvvTa/7srekd0e/thcTJkhbLxOkAWBegjSwGNFxXauP86w83gVp2/dFUXTxPuUfpgfvvSNdecVT0lMe/lvpldHXdGoriHbgv/yTVfqMD16lG648CNAbVz1llT70s1bpn70r/nVdiKLoUr3176Rv/JDz6X2uOlc9Dueuvik9+P6vTd/21/9h/Ot6MmH5n9mshwnSADAvQRpYjOi4rtXHeVYe74K07fuiKNqFT/mZ9MjrBp/ys/HnO7UVRDvyW+9apZ/6Z6v0Qz+0Sj/x06v0a++Ov64rURRdtHemd3/396Sf+fpvSj/4NW9KP/L135H+43f9o+DrOjVhgrT1MkEaAOYlSAOLER3Xtfo4z8rjXZC2fV8URWlnK4jSVhRFaWfCBGnrZYI0AMxLkAYWIzqua/VxnpXHuyBt+74oitLOVhClrSiK0s6ECdLWywRpAJiXIA0sRnRc1+rjPCuPd0Ha9n1RFKWdrSBKW1EUpZ0JE6StlwnSADAvQRpYjOi4rtXHeVYe748dpHOMHgxPEE4K0vccBel71k82zm+C9PAkRJC21ouiKO1sBVHaiqIo7UyYIG29rAzS+TasgvRwO1ZBeh2lt4P0OkrnGH0YpA+idByks/LeFaQB2DeCNLAY0XFdq2N0Vh3vh0e9IG37uiiK0s5WEKWtKIrSzoQJ0tbLBGkAmJcgDSxGdFzX6hidVcf74VEvSNu+LoqitLMVRGkriqK0M2GCtPUyQRoA5iVIA4sRHde1OkZn1fF+eNQL0ravi6Io7WwFUdqKoijtTJggbb1MkAaAeQnSwGJEx3WtjtFZdbwfHvWCtO3roihKO1tBlLaiKEo7EyZIWy8TpAFgXoI0sBjRcV2rY3RWHe+HR70gbfu6KIrSzlYQpa0oitLOhAnS1ssEaQCYlyANLEZ0XNfqGJ1Vx/vhUS9I274uiqK0sxVEaSuKorQzYYK09TJBGgDmJUgDixEd17U6RmfV8X541AvStq+LoijtbAVR2oqiKO1MmCBtvUyQBoB5CdLAYkTHda2O0Vl1vB8e9YK07euiKEo7W0GUtqIoSjsTJkhbLxOkAWBegjSwGNFxXatjdFYd74dHvSBt+7ooitLOVhClrSiK0s6ECdLWywRpAJiXIA0sRnRc1+oYnVXH++FRL0jbvi6KorSzFURpK4qitDNhgrT1MkEaAOYlSAOLER3XtTpGZ9XxfnjUC9K2r4uiKO1sBVHaiqIo7UyYIG29TJAGgHkJ0sBiRMd1rY7RWXm4b476Mkjnw39qkL44PJnITyqOg/QFQdoWtSiK0s5WEKWtKIrSzoQJ0tbLtoP0hfWtmG/G/GKGE4P0OkrnIH0QpU8K0ll502bjmze+jY9FtzUALJUgDSxGdFzX6sM8Kw/38qgXpG0fF0VR2tkKorQVRVHamTBB2nqZIA0A8xKkgcWIjutafZhn5eFeHvWCtO3joihKO1tBlLaiKEo7EyZIWy8TpAFgXoI0sBjRcV2rD/OsPNzLo16Qtn1cFEVpZyuI0lYURWlnwgRp62WCNADMS5AGFiM6rmv1YZ6Vh3t51AvSto+LoijtbAVR2oqiKO1MmCBtvUyQBoB5CdLAYkTHda0+zLPycC+PekHa9nFRFKWdrSBKW1EUpZ0JE6StlwnSADAvQRpYjOi4rtWHeVYe7uVRL0jbPi6KorSzFURpK4qitDNhgrT1MkEaAOYlSAOLER3Xtfowz8rDvTzqBWnbx0VRlHa2gihtRVGUdiZMkLZeJkgDwLwEaWAxouO6Vh/mWXm4l0e9IG37uCiK0s5WEKWtKIrSzoQJ0tbLBGkAmJcgDSxGdFzX6sM8Kw/38qgXpG0fF0VR2tkKorQVRVHamTBB2nqZIA0A8xKkgcWIjutafZhn5eFeHvWCtO3joihKO1tBlLaiKEo7EyZIWy8TpAFgXoI0sBjRcV2rD/OsPNzLo16Qtn1cFEVpZyuI0lYURWlnwgRp62WCNADMS5AGFiM6rmv1YZ6Vh3t51MdB+qE4SA9PIPKTiPxkIj+pEKRtqYuiKO1sBVHaiqIozeTYPIVZD3usIJ1f1HAQpO87IUgf3KGbu/SxgvT43s3i2/hYdFsDwFIJ0sBiRMd1bfs4L4/38qgXpG0fF0VR2gmjKO0EUZSGzPZogjQAzEuQBhYjOq5r28d5ebyXR70gbfu4KIrSThhFaSeKorRjtkcTpAFgXoI0sBjRcV3bPs7L4/60Q8cAABXsSURBVL086gVp28dFUZR2wihKO1EUpR2zPZogDQDzEqSBxYiO69r2cV4e7+VRL0jbPi6KorQTRlHaiaIo7Zjt0QRpAJiXIA0sRnRc17aP8/J4L496Qdr2cVEUpZ0witJOFEVpx2yPJkgDwLwEaWAxouO6tn2cl8d7edQL0raPi6Io7YRRlHaiKEo7Zns0QRoA5iVIA4sRHde17eO8PN7Lo16Qtn1cFEVpJ4yitBNFUdox26MJ0gAwL0EaWIzouK5tH+fl8V4e9YK07eOiKEo7YRSlnSiK0o7ZHk2QBoB5CdLAYkTHdW37OC+P9/KoF6RtHxdFUdoJoyjtRFGUdsz2aII0AMxLkAYWIzqua9vHeXm8l0e9IG37uCiK0k4YRWkniqK0Y7ZHE6QBYF6CNLAY0XFd2z7Oy+O9POoFaTMzMzObY4I0AMxLkAYWIzqua9vHeXm8l0d9HKQfjIP08OQhP4nITyYEaTMzMzMrtw7S58sgfc9BkL54MV0cbsf8oobTg/RBlBakAeCAIA0sRnRc17aP8/J4L496QdrMzMzM5pggDQDzEqSBxYiO69r2cV4e7+VRL0ibmZmZ2RwTpAFgXoI0sBjRcV3bPs7L47086gVpMzMzM5tjgjQAzEuQBhYjOq5r28d5ebyXR70gbWZmZmZzTJAGgHkJ0sBiRMd1bfs4L4/38qgXpM3MzMxsjgnSADAvQRpYjOi4rm0f5+XxXh71grSZmZmZzTFBGgDmJUgDixEd17Xt47w83sujXpA2MzMzszkmSAPAvARpYDGi47q2fZyXx3t51AvSZmZmZjbHBGkAmJcgDSxGdFzXto/z8ngvj3pB2szMzMzmmCANAPMSpIHFiI7r2vZxXh7v5VEvSJuZmZnZHBOkAWBegjSwCNFhvW37OC+P9+Oj/uDInxykhycQ9166dEKQHp54CNJmZmZmT9itg/RwC24F6eFmzLdjviEPgvT9jzNIH0fp8qYd37v5Bo5v42PRfQ0ASyVIA4sQHdbb6uM8K493QdrMzMzM5p4gDQDzEqSBRYgO6231cZ6Vx7sgbWZmZmZzT5AGgHkJ0sAiRIf1tvo4z8rjXZA2MzMzs7knSAPAvARpYBGiw3pbfZxn5fEuSJuZmZnZ3BOkAWBegjSwCNFhva0+zrPyeBekzczMzGzuCdIAMC9BGliE6LDeVh/nWXm8C9JmZmZmNvcEaQCYlyANLEJ0WG+rj/OsPN4FaTMzMzObe4I0AMxLkAYWITqst9XHeVYe74K0mZmZmc09QRoA5iVIA4sQHdbb6uM8K493QdrMzMzM5p4gDQDzEqSBRYgO6231cZ6Vx7sgbWZmZmZzT5AGgHkJ0sAiRIf1tvo4z8rjXZA2MzMzs7knSAPAvARpYBGiw7p2cIyPD/Sj4/0oRkdBOsfoOEjnJw6X7stB+r4TgvQgB+nzgrSZmZnZE3HbQfrCCUH6vhOC9MEtOjVIZ+W9K0gDsG8EaWARosO6JkibmZmZ2dlPkAaAeQnSwCJEh3VNkDYzMzOzs58gDQDzEqSBRYgO65ogbWZmZmZnP0EaAOYlSAOLEB3WNUHazMzMzM5+gjQAzEuQBhYhOqxrgrSZmZmZnf0EaQCYlyANLEJ0WNcEaTMzMzM7+wnSADAvQRpYhOiwrgnSZmZmZnb2E6QBYF6CNLAI0WFdE6TNzMzM7OwnSAPAvARpYBGiw7omSJuZmZnZ2U+QBoB5CdLAIkSHdU2QNjMzM7OznyANAPMSpIFFiA7rmiBtZmZmZmc/QRoA5iVIA4sQHda17SBdHe6nBulnnhik85OGS8MTiHsvXRKkzczMzGxr6yA93IKPHaTvPyFIH0Tp/CKJyw/Sp0fp6L4GgKUSpIFFiA7rmiBtZmZmZmc/QRoA5iVIA4sQHdY1QdrMzMzMzn6CNADMS5AGFiE6rGuCtJmZmZmd/QRpAJiXIA0sQnRY1wRpMzMzMzv7CdIAMC9BGliE6LCuCdJmZmZmdvYTpAFgXoI0sAjRYV0TpM3MzMzs7CdIA8C8BGlgEaLDuiZIm5mZmdnZT5AGgHkJ0sAiRId1TZA2MzMzs7OfIA0A8xKkgUWIDuuaIG1mZmZmZz9BGgDmJUgDixAd1jVB2szMzMzOfoI0AMxLkAYWITqsa4K0mZmZmZ39BGkAmJcgDSxCdFjX6hidVYd7EaQ3R74gbWZmZma/3ZVB+u51kL7nhCB9XxWk11F6apDOitu2vHkFaQD2jSANLEJ0WNfqGJ2VR7sgbWZmZma7mCANAPMSpIFFiA7rWh2js/JoF6TNzMzMbBcTpAFgXoI0sAjRYV2rY3RWHu2CtJmZmZntYoI0AMxLkAYWITqsa3WMzsqjXZA2MzMzs11MkAaAeQnSwCJEh3WtjtFZebQL0mZmZma2iwnSADAvQRpYhOiwrtUxOiuPdkHazMzMzHYxQRoA5iVIA4sQHda1OkZn5dEuSJuZmZnZLiZIA8C8BGlgEaLDulbH6Kw82gVpMzMzM9vFBGkAmJcgDSxCdFjX6hidlUe7IG1mZmZmu5ggDQDzEqSBRYgO61odo7PyaBekzczMzGwXE6QBYF6CNLAI0WFdq2P0xrQgnWP0KUF6ePKQn0TkJxMXc5C+mIP0RUHazMzMzE4I0heDIH1/FaTzzVkH6YMXSpS3qiANwBORIA0sQnRY1+oQvSFIm5mZmdkuJ0gDwLwEaWARosO6VofoDUHazMzMzHY5QRoA5iVIA4sQHda1OkRvCNJmZmZmtssJ0gAwL0EaWITosK7VIXpDkDYzMzOzXU6QBoB5CdLAIkSHda0O0RuCtJmZmZntcoI0AMxLkAYWITqsa3WI3hCkzczMzGyXE6QBYF6CNLAI0WFdq0P0hiBtZmZmZrucIA0A8xKkgUWIDutaHaI3BGkzMzMz2+UEaQCYlyANLEJ0WNfqEL0hSJuZmZnZLidIA8C8BGlgEaLDulaH6A1B2szMzMx2OUEaAOYlSAOLEB3WtTpEbwjSZmZmZrbLCdIAMC9BGliE6LCu1SF6ozzc5wjS+UnFcZC+Z/2k4/zdgrSZmZnZE3XjIH1hE6SHmzG/mGF6kD6I0uWtehSki5s2K+/dKUE6i25sAFgiQRpYhOiortUheqM83AVpMzMzM5t7gjQAzEuQBhYhOqprdYjeKA93QdrMzMzM5p4gDQDzEqSBRYiO6lodojfKw12QNjMzM7O5J0gDwLwEaWARoqO6VofojfJwF6TNzMzMbO4J0gAwL0EaWIToqK7VIXqjPNwFaTMzMzObe4I0AMxLkAYWITqqa3WI3jg63A+P+ThIP3NykM5PKnKU3g7Sd6dHBGkzMzOzJ9yOgvRwE959YRSk77033StIA8DjIkgDixAd1bU6RG8cHe5FkH7msx5vkL5//SQiP5nITyo2r5DOTzbykw5B2szMzOyJu3wD5ldHbwfp/OroxxOkD+5SQRqAJzpBGliE6Kiu1SF64+hwj4L04dH/2G/ZMQ7SB6+QXgfpw1dI5ychL3/FK9Iv/dIvHT41MTMzM7N9X779Xv7yV1xekH6GIA0AEUEaWIToqK7VIXrj6HAvgnR55G8O/ypID08OTg7SB+8jvQ7S92xeIT0YnoS86EUvTm9/xzsOn56YmZmZ2b4v334vfNGLDoP0hYMgPdyI95RB+lIRpO+/P91/4iukvWUHAGSCNLAI0VFdq0P0xtHhPiVIr2P0cZDOTxbyk4YoSOcnGZsgvX6V9PAk5DnPfW76+q//+sOnJ2ZmZma278u333OGWzTfgvkmzD9jZB2kL26CdI7RB0H66NXRwSukH3ysV0hnQYzOBGkA9o0gDSxCdFTX6sN8IwrSj/ke0oMwSA9PJo6C9Pp9pHOQPn7bjhysX/WqD00///M/f/gUxczMzMz2dfnmy7dfvgHXb9dxFKQPf6DhUZC+L106eoV0GaQP7s6DO3R6kD45Skc38rHoxgaAJRKkgUWIjupafZRn5dGenRak86tS1v91yTJIP5CD9APrJw/5SUR+MpGfVJTvI70O0uu37Th4H+lnD///fN4b3nD4NMXMzMzM9nX55su338HbdTzW+0cXQXq4MTdBOt+eZZDOP+NEkAbgiU6QBhYhOqpr9VGelUd79thBenAYpA9+sGERpIcnEetXSY+C9OZV0pv3kb7r/Pn04he/f/q8z3uDV0qbmZmZ7eHyjZdvvRe9+MVHL0qo3q4jDNL3Fz/QcDtIR2/ZkW/WoyA9umvHd68gDcA+EaSBRYiO6tL4KM/Gh3sUpPOrUA6O/yhIn/SDDQ+C9PH7SB+/bcdd6yh99/D/37PTh7zqVev3FXz729++/gnsZmZmZtbn8i2Xb7p82+UbL99661dGZ8HbdRwF6fIHGhZB+ugHGo6CdPkK6ccfpEVpAPaDIA0sQnRQl8ZHeTY+3MMfbDgO0kfvI70dpA/etuPgfaTzewIevI90+bYdx6+SvvOu8+vPv9/w+3j4hS9ML3vZy9MrX/nK9IrsFad5xWV7+eV6eQsvP3Mva2F43C/Py54QXtrCS1t4KTsT/fveQ9H/Le9Y9Gd2P0XfgyeIvufvWPR32+5Ff4fvVnTj7F50kx0abrd8w+U/iw8//PBwY77f+sbLt16++Q6CdI7R22/Xsf3+0feHP9BwHaSHW/S3H6TjO7kU3dkAsDSCNLAI0UFdGh/l2fhwPz1Ixz/YcB2kD3+w4eZtO8r3kT5+lfTwRKQI0ncNT1LuvOuudMedd6Y77rgz3X7HHen22+9It91+e7rttpM9/bbbLt/TL8+tT3/65bv17D3t1lsvz9Mu19Mu2y0t3HL2br7llieGm2EQ/d8GR6LvETsXfS+cKPrePU3098WORX+3TRD9Xbpr0b2xc9FtNFF0kx0Zbrd8w90+3HP5rrvzzrvWN16+9bZfHX3y23UcBOkHtn+g4TpKnxSkD2N0Nrprx3evIA3APhGkgUWIDurS+CjPxod7GKQHdZB+qArS+UnD5LftKH644cGrpIcnLMOTljBKnyB6krRz0ZO6icJIPUXw5HXXoifpk0RRYMeiaLJzUeRZsCiEwb6K/gzspeh70wRxMJ4q/j78mKK/L3Ys+rtt56K/wyeIbobJoltlgjAmTxXcZBsHMfqO9S13HKTLV0ePfpjhIP836davji6C9NHbdYyD9NErpA/u0fJGFaQBeKISpIFFiA7q0vgoz8aHexmkT/vBhpsnCOUPNqyC9OhtO9ZR+jBIH79KenD4KulNlM6vrNlE6ZNET4Qmi55gTRA9qZsseiI5QfTkdbLoCfMORVFg56L4sXNloHl8okC0c1HMoqkopO5a9PugEP3Z2bHoe8R00femCaLvowsV/T2zc9HfpRNFf4dPEt0ME0W3yiTRbTRRdJMdybdb8OrofOuNXx199HYdmyA93IxHb9exCdLF+0cfBOmHwh9oKEgD8EQmSAOLEB3UpfFRvlEd70cxug7SW+8jvQnS5ftID/KTic3bdjzWDzd8rLfuOEn0JGnnoid1E0VPJCeJnrzuWPREe5Loyf2ORRFj56LIs3NliHp8ohDGTKKwuVTR738PRX8Gdi/6M7tj0femHYu+B+9U9PfMRNHfbTsX/R0+QXQzTBbdKhNEd9UscowebMXoIkgfvDr6pLfrOH7/6IMgXbx/9CZIB2/XcVqQjm7e6D6ORHc2ACyNIA0sQnRQl6LDPCuP98sN0vXbdpRB+tJBkD784YYHUfrwVdKbKL0O0oPqrTtOET0Rmih6crZz0RPJCaInr5NFT5h3KIoCk0UxYqGiULNoUczaS2UgZD7Rv+s9FP3ZWbDoe9PORd+7dyj6e2bnor9LJ4r+Dp8kuhkmim6cSdavZL5cwU126NS36niMV0dvvV3HA6MgPX67DkEaANYEaWARooO6tn2YZ+Xxnp0epOMfbHjq23ZUr5K+ePAq6fV7SZ/81h3rJzYniJ8kTRQ9OZsgejK4c9GT14miJ8w7FT2537EoYuxcFGp2LApSdCwKorsW/T44Ev25W7Toe9OORd+Ddyr6e2bHor9LJ4v+Dp8gujd2bn1HXZ7oJjtSvlVH/m+/5Ri9DtI5Rm+C9MFbuG29OnorSD9j9HYdJwfpfKseBenRPTu+d71dBwD7RpAGFiE6qmv1Yb4xPuAfK0jH7yO9eduOgyAdv0r63vWTkcd6646jKH2S6InQRGGkniJ6Urdj0ZPXXYuepO9cFCMWKgo1OxcFKSpRZOS3L/p3zUj0Z3bHou9NOxd9716o6O+2XYv+Dp8kujcm2w7GU0S30WTRTXboKEZXr44++G/EbV4dvYnRB0H6UvB2HQ8UP8zw8NXR6yD9UP3+0ZkgDQCCNLAM0VE9Nj7Os/EBfxykn10F6aMo/RhBun6V9H3Bq6SHJyaHr5LeROn1q6Q3UTo/qTlF9ERosugJ1gTxk8GJoiehOxY9Yd6p6BVjE0VBYbGiULNjUZBatCja8cQT/d/GQkV/7hYt+t60Y9H37p2K/p7Zsejv0p1b3xeXJ7pVJoluo4mim+xIEaPrH2S4ee/o+tXRB2/XcXAn1q+OPuHtOg6DdBmjD4L08c06vmfLW/cgRgvSAOwXQRpYhOio3lbH6I3qiC+O+2lv23H4PtKjt+3I/xXM9ZONdZC+dPiqmIMnJPWrpIu37hieyGzeT3oXoidYk0RP6iYKI/WuRU98dyh6cr9zUcSYKAouixUFKZqLwuZSRb9/ZhL9mV2o6HvhZNH34B2K/p7Zuejv0h2LbobJoltlgug2msXhW3WsXxm9DtLRq6MvHr939GGQPnp19FGQfsbh23WMgvTh/Xniq6Oz4pYd37lTY3QW3dgAsESCNLAI0VG9rT7QN8ojfnqQ3n6VdP3DDU94L+nNDzhcv0o6iNLrt+44zcETn8sSPYmaIHpSN1n0RHLHoie+k0RP0ncsihGLFYWaHYvCEh2LouauRb8PZhH9md256HvTQkXf83cu+rttgujv0p2LboaJoltlkug2miy6yQ4cvDo6iNHrIH0Qozevjt7E6PrV0fcfv13HOkg/+PjeriMrbtnxnStIA7CPBGlgEaKjelt9oG+UR/yUIL15247tV0kfvnXHYZAev5d0/dYdp0fpk0RPhCaLnpztWPREcueiJ74TRP+14GniJ/iTREFhoaLgspeiCLaHosDIPKJ/3zsX/d/yHoq+N+1c9L17p6K/Z6aJ/m6bJPq7dKLo7/6dC4PxY4vuqlmcFqPXQfre4NXRB7fi+u3e1jH69LfrWAfpzU0qSAOAIA0sQ3RUbzs4yseHennEnxikB0dBelAH6QePgvT4VdIHb91x8ATk+FXSx1F6HaSL95M+itInyk98Lk8YqSeJn9hNEj2R3LHoCfNORU/uJ4qCwjRRxJgoCi57KIpZQC36s7No0fe0HYu+d+9U9PfMjkV/l04W/d2/Y2EUniK4jaaLbrIDBzF6877R2zF6HaSLV0fn2/D41dEPnPDq6MMgXdye5U16fKvWMTob37mCNAD753np/weFAh2vonqbngAAAABJRU5ErkJggg==;" vertex="1" parent="1">
          <mxGeometry x="990" y="220" width="1444" height="1016" as="geometry" />
        </mxCell>
      </root>
    </mxGraphModel>
  </diagram>
</mxfile>
